<svg xmlns:xlink="http://www.w3.org/1999/xlink" version="1.1" class="highcharts-root" style="font-family:&quot;Lucida Grande&quot;, &quot;Lucida Sans Unicode&quot;, Arial, Helvetica, sans-serif;font-size:12px;" xmlns="http://www.w3.org/2000/svg" width="500" height="400" viewBox="0 0 500 400"><desc>Created with Highcharts 9.3.3</desc><defs><clipPath id="highcharts-t16sjvw-3018-"><rect x="0" y="0" width="416" height="292" fill="none"></rect></clipPath><clipPath id="highcharts-t16sjvw-3519-"><rect x="0" y="0" width="416" height="292" fill="none"></rect></clipPath></defs><rect fill="#ffffff" class="highcharts-background" x="0" y="0" width="500" height="400" rx="0" ry="0"></rect><rect fill="none" class="highcharts-plot-background" x="74" y="48" width="416" height="292"></rect><g class="highcharts-grid highcharts-xaxis-grid" data-z-index="1"><path fill="none" stroke-dasharray="none" data-z-index="1" class="highcharts-grid-line" d="M 77.5 48 L 77.5 340" opacity="1"></path><path fill="none" stroke-dasharray="none" data-z-index="1" class="highcharts-grid-line" d="M 159.5 48 L 159.5 340" opacity="1"></path><path fill="none" stroke-dasharray="none" data-z-index="1" class="highcharts-grid-line" d="M 241.5 48 L 241.5 340" opacity="1"></path><path fill="none" stroke-dasharray="none" data-z-index="1" class="highcharts-grid-line" d="M 322.5 48 L 322.5 340" opacity="1"></path><path fill="none" stroke-dasharray="none" data-z-index="1" class="highcharts-grid-line" d="M 404.5 48 L 404.5 340" opacity="1"></path><path fill="none" stroke-dasharray="none" data-z-index="1" class="highcharts-grid-line" d="M 486.5 48 L 486.5 340" opacity="1"></path></g><g class="highcharts-grid highcharts-yaxis-grid" data-z-index="1"><path fill="none" stroke="#e6e6e6" stroke-width="1" stroke-dasharray="none" data-z-index="1" class="highcharts-grid-line" d="M 74 340.5 L 490 340.5" opacity="1"></path><path fill="none" stroke="#e6e6e6" stroke-width="1" stroke-dasharray="none" data-z-index="1" class="highcharts-grid-line" d="M 74 282.5 L 490 282.5" opacity="1"></path><path fill="none" stroke="#e6e6e6" stroke-width="1" stroke-dasharray="none" data-z-index="1" class="highcharts-grid-line" d="M 74 223.5 L 490 223.5" opacity="1"></path><path fill="none" stroke="#e6e6e6" stroke-width="1" stroke-dasharray="none" data-z-index="1" class="highcharts-grid-line" d="M 74 165.5 L 490 165.5" opacity="1"></path><path fill="none" stroke="#e6e6e6" stroke-width="1" stroke-dasharray="none" data-z-index="1" class="highcharts-grid-line" d="M 74 106.5 L 490 106.5" opacity="1"></path><path fill="none" stroke="#e6e6e6" stroke-width="1" stroke-dasharray="none" data-z-index="1" class="highcharts-grid-line" d="M 74 47.5 L 490 47.5" opacity="1"></path></g><rect fill="none" class="highcharts-plot-border" data-z-index="1" x="74" y="48" width="416" height="292"></rect><g class="highcharts-axis highcharts-xaxis" data-z-index="2"><path fill="none" class="highcharts-tick" stroke="#ccd6eb" stroke-width="1" d="M 77.5 340 L 77.5 350" opacity="1"></path><path fill="none" class="highcharts-tick" stroke="#ccd6eb" stroke-width="1" d="M 159.5 340 L 159.5 350" opacity="1"></path><path fill="none" class="highcharts-tick" stroke="#ccd6eb" stroke-width="1" d="M 241.5 340 L 241.5 350" opacity="1"></path><path fill="none" class="highcharts-tick" stroke="#ccd6eb" stroke-width="1" d="M 322.5 340 L 322.5 350" opacity="1"></path><path fill="none" class="highcharts-tick" stroke="#ccd6eb" stroke-width="1" d="M 404.5 340 L 404.5 350" opacity="1"></path><path fill="none" class="highcharts-tick" stroke="#ccd6eb" stroke-width="1" d="M 486.5 340 L 486.5 350" opacity="1"></path><text x="282" data-z-index="7" text-anchor="middle" transform="translate(0,0)" class="highcharts-axis-title" style="color:#666666;fill:#666666;" y="379">epoch</text><path fill="none" class="highcharts-axis-line" stroke="#ccd6eb" stroke-width="1" data-z-index="7" d="M 74 340.5 L 490 340.5"></path></g><g class="highcharts-axis highcharts-yaxis" data-z-index="2"><text x="24.640625" data-z-index="7" text-anchor="middle" transform="translate(0,0) rotate(270 24.640625 194)" class="highcharts-axis-title" style="color:black;font-family:Aa般若楷书;font-size:12px;fill:black;" y="194">判别器的输出</text><path fill="none" class="highcharts-axis-line" data-z-index="7" d="M 74 48 L 74 340"></path></g><g class="highcharts-series-group" data-z-index="3"><g class="highcharts-series highcharts-series-0 highcharts-line-series highcharts-color-0" data-z-index="0.1" opacity="1" transform="translate(74,48) scale(1 1)" clip-path="url(#highcharts-t16sjvw-3519-)"><path fill="none" d="M 4.078431372549 74.50438400000002 L 4.8957522888915 82.45846400000002 L 5.713073205234 78.90774400000001 L 6.5303941215765 84.885568 L 7.347715037919 71.48160000000001 L 8.1650359542615 69.95152000000002 L 8.982356870604 73.08876800000002 L 9.7996777869464 70.493472 L 10.616998703289 65.52246400000001 L 11.434319619631 70.75744 L 12.251640535974 66.223264 L 13.068961452316 65.05993600000002 L 13.886282368659 66.75820800000002 L 14.703603285001 78.18592000000001 L 15.520924201344 65.260832 L 16.338245117686 69.18064000000001 L 17.155566034029 93.827776 L 17.972886950371 65.879872 L 18.790207866714 62.75897600000002 L 19.607528783056 65.702336 L 20.424849699399 63.611616000000026 L 21.242170615741 70.533184 L 22.059491532084 68.27427200000002 L 22.876812448426 65.190752 L 23.694133364769 84.68233599999999 L 24.511454281111 61.894656 L 25.328775197454 60.21040000000002 L 26.146096113796 69.11990399999999 L 26.963417030139 65.07395199999999 L 27.780737946481 61.541920000000005 L 28.598058862824 61.11910399999999 L 29.415379779166 60.789728 L 30.232700695509 59.01436800000002 L 31.050021611851 58.79478399999999 L 31.867342528194 58.542496 L 32.684663444536 59.15686400000001 L 33.501984360879 58.44905600000001 L 34.319305277221 110.102688 L 35.136626193564 268.471808 L 35.953947109906 139.27465600000002 L 36.771268026249 86.745024 L 37.588588942591 158.212608 L 38.405909858934 111.05110400000001 L 39.223230775276 99.70748800000001 L 40.040551691619 131.76208000000003 L 40.857872607961 122.600288 L 41.675193524304 101.21187200000003 L 42.492514440646 105.047584 L 43.309835356988 106.44684799999999 L 44.127156273331 135.450624 L 44.944477189673 111.76592000000002 L 45.761798106016 160.733152 L 46.579119022358 133.80608 L 47.396439938701 165.346752 L 48.213760855043 130.01008 L 49.031081771386 87.6 L 49.848402687728 93.76704000000001 L 50.665723604071 122.186816 L 51.483044520413 110.50214400000002 L 52.300365436756 135.999584 L 53.117686353098 87.228576 L 53.935007269441 95.832064 L 54.752328185783 145.021216 L 55.569649102126 93.56380800000002 L 56.386970018468 86.63056 L 57.204290934811 80.62236800000002 L 58.021611851153 104.04544000000001 L 58.838932767496 102.30979199999999 L 59.656253683838 175.314464 L 60.473574600181 122.910976 L 61.290895516523 142.49833600000002 L 62.108216432866 122.30595199999999 L 62.925537349208 88.14895999999999 L 63.742858265551 96.918304 L 64.560179181893 161.17699199999998 L 65.377500098236 141.29296 L 66.194821014578 71.96982399999999 L 67.012141930921 196.144576 L 67.829462847263 116.18796800000001 L 68.646783763606 123.42022400000002 L 69.464104679948 124.36864 L 70.281425596291 112.73068800000001 L 71.098746512633 113.88233600000001 L 71.916067428976 104.80697599999999 L 72.733388345318 71.981504 L 73.550709261661 118.61507200000003 L 74.368030178003 102.12758399999998 L 75.185351094346 104.97984 L 76.002672010688 72.215104 L 76.819992927031 76.80768 L 77.637313843373 82.033312 L 78.454634759716 92.02672000000001 L 79.271955676058 70.96768 L 80.0892765924 120.31100800000002 L 80.906597508743 84.33660799999998 L 81.723918425085 190.510144 L 82.541239341428 113.53894400000001 L 83.35856025777 86.86649599999998 L 84.175881174113 84.124032 L 84.993202090455 77.807488 L 85.810523006798 91.25350399999999 L 86.62784392314 94.39542399999999 L 87.445164839483 76.721248 L 88.262485755825 103.27456000000001 L 89.079806672168 93.129312 L 89.89712758851 136.86624 L 90.714448504853 147.96224 L 91.531769421195 81.206368 L 92.349090337538 90.75126399999999 L 93.16641125388 77.935968 L 93.983732170223 71.923104 L 94.801053086565 81.29513600000001 L 95.618374002908 67.395936 L 96.43569491925 65.12768000000003 L 97.253015835593 85.50927999999999 L 98.070336751935 68.01030399999999 L 98.887657668278 114.99193600000001 L 99.70497858462 158.773248 L 100.52229950096 143.57523200000003 L 101.33962041731 93.26246400000002 L 102.15694133365 87.64671999999999 L 102.97426224999 121.007136 L 103.79158316633 127.099424 L 104.60890408268 92.41449600000001 L 105.42622499902 92.571008 L 106.24354591536 126.847136 L 107.0608668317 85.05609600000003 L 107.87818774805 76.80768 L 108.69550866439 99.66543999999999 L 109.51282958073 114.75833600000001 L 110.33015049707 78.18124800000001 L 111.14747141342 82.895296 L 111.96479232976 141.24857599999999 L 112.7821132461 121.21971200000002 L 113.59943416244 81.8184 L 114.41675507879 89.02262400000001 L 115.23407599513 120.38809600000002 L 116.05139691147 204.222464 L 116.86871782781 149.77264 L 117.68603874415 89.634656 L 118.5033596605 80.68310399999999 L 119.32068057684 94.92569600000002 L 120.13800149318 97.299072 L 120.95532240952 83.168608 L 121.77264332587 82.439776 L 122.58996424221 69.47731200000001 L 123.40728515855 113.80992 L 124.22460607489 78.14387200000002 L 125.04192699124 86.429664 L 125.85924790758 70.930304 L 126.67656882392 73.324704 L 127.49388974026 71.19894400000001 L 128.31121065661 136.56256000000002 L 129.12853157295 132.647424 L 129.94585248929 112.7704 L 130.76317340563 64.94547200000002 L 131.58049432198 80.215904 L 132.39781523832 71.67548800000003 L 133.21513615466 87.57664 L 134.032457071 91.85619200000002 L 134.84977798735 71.32742399999998 L 135.66709890369 170.37849599999998 L 136.48441982003 127.63904 L 137.30174073637 90.59708800000001 L 138.11906165272 71.483936 L 138.93638256906 70.096352 L 139.7537034854 108.63100800000001 L 140.57102440174 136.256544 L 141.38834531809 101.33334400000001 L 142.20566623443 141.85126400000001 L 143.02298715077 107.24108800000002 L 143.84030806711 94.34169600000001 L 144.65762898346 85.91574399999999 L 145.4749498998 277.346272 L 146.29227081614 95.325152 L 147.10959173248 133.577152 L 147.92691264883 156.369504 L 148.74423356517 130.486624 L 149.56155448151 139.29801600000002 L 150.37887539785 188.867936 L 151.1961963142 133.918208 L 152.01351723054 211.298208 L 152.83083814688 109.427584 L 153.64815906322 109.140256 L 154.46547997957 91.087648 L 155.28280089591 106.280992 L 156.10012181225 179.070752 L 156.91744272859 135.445952 L 157.73476364494 141.704096 L 158.55208456128 158.747552 L 159.36940547762 186.134816 L 160.18672639396 120.32969599999998 L 161.00404731031 103.67635200000001 L 161.82136822665 108.42543999999998 L 162.63868914299 135.971552 L 163.45601005933 141.20652800000002 L 164.27333097568 124.42003199999999 L 165.09065189202 74.97859199999999 L 165.90797280836 89.69072 L 166.7252937247 105.070944 L 167.54261464105 92.58735999999999 L 168.35993555739 101.599648 L 169.17725647373 100.55545599999999 L 169.99457739007 91.923936 L 170.81189830642 86.62355200000002 L 171.62921922276 95.778336 L 172.4465401391 97.630784 L 173.26386105544 105.477408 L 174.08118197179 100.536768 L 174.89850288813 114.316832 L 175.71582380447 80.81392 L 176.53314472081 80.32803200000001 L 177.35046563716 91.78844800000002 L 178.1677865535 93.19004800000002 L 178.98510746984 104.07814400000001 L 179.80242838618 100.64889600000001 L 180.61974930253 95.726944 L 181.43707021887 129.584928 L 182.25439113521 119.892864 L 183.07171205155 90.98486400000002 L 183.8890329679 90.125216 L 184.70635388424 82.841568 L 185.52367480058 69.89312000000001 L 186.34099571692 97.915776 L 187.15831663327 116.57808 L 187.97563754961 176.38201600000002 L 188.79295846595 90.512992 L 189.61027938229 107.73632 L 190.42760029864 117.061632 L 191.24492121498 90.94281600000002 L 192.06224213132 107.051872 L 192.87956304766 70.88825599999998 L 193.69688396401 111.796288 L 194.51420488035 98.90390400000001 L 195.33152579669 106.42348799999999 L 196.14884671303 89.62998400000001 L 196.96616762938 67.131968 L 197.78348854572 64.305408 L 198.60080946206 66.547968 L 199.4181303784 118.418848 L 200.23545129475 70.73174400000002 L 201.05277221109 85.88304000000002 L 201.87009312743 74.79872 L 202.68741404377 82.55891199999999 L 203.50473496012 76.868416 L 204.32205587646 81.115264 L 205.1393767928 66.898368 L 205.95669770914 68.81388799999999 L 206.77401862549 63.887264000000016 L 207.59133954183 68.904992 L 208.40866045817 71.976832 L 209.22598137451 64.13955200000001 L 210.04330229086 64.52732800000001 L 210.8606232072 161.58112 L 211.67794412354 67.99628799999999 L 212.49526503988 64.41286400000001 L 213.31258595623 73.33404800000002 L 214.12990687257 66.94041600000003 L 214.94722778891 66.85398400000003 L 215.76454870525 66.97312 L 216.5818696216 74.02550400000001 L 217.39919053794 66.01535999999999 L 218.21651145428 68.47984000000002 L 219.03383237062 68.69708800000001 L 219.85115328697 63.63497600000002 L 220.66847420331 61.637696000000005 L 221.48579511965 61.665728 L 222.30311603599 60.91120000000001 L 223.12043695234 60.733664000000005 L 223.93775786868 82.388384 L 224.75507878502 68.52656000000002 L 225.57239970136 79.068928 L 226.38972061771 81.785696 L 227.20704153405 243.89008 L 228.02436245039 87.89433600000001 L 228.84168336673 121.42060800000002 L 229.65900428308 174.79353600000002 L 230.47632519942 107.26444800000002 L 231.29364611576 110.03260799999998 L 232.1109670321 108.89264 L 232.92828794845 113.277312 L 233.74560886479 133.0936 L 234.56292978113 95.85308799999999 L 235.38025069747 93.07091199999999 L 236.19757161382 114.64854399999999 L 237.01489253016 77.16742400000001 L 237.8322134465 93.14566400000001 L 238.64953436284 148.226208 L 239.46685527919 72.24313599999999 L 240.28417619553 88.55542400000002 L 241.10149711187 83.80633599999999 L 241.91881802821 174.32867199999998 L 242.73613894456 109.752288 L 243.5534598609 94.09875199999999 L 244.37078077724 108.55625599999999 L 245.18810169358 135.96454400000002 L 246.00542260993 96.004928 L 246.82274352627 113.51558400000002 L 247.64006444261 114.39392000000001 L 248.45738535895 90.015424 L 249.2747062753 119.56582399999999 L 250.09202719164 110.54652800000002 L 250.90934810798 113.25862400000003 L 251.72666902432 164.297888 L 252.54398994067 133.71030399999998 L 253.36131085701 112.32656 L 254.17863177335 135.903808 L 254.99595268969 141.823232 L 255.81327360604 154.692256 L 256.63059452238 116.89577600000001 L 257.44791543872 125.440864 L 258.26523635506 97.64246399999999 L 259.08255727141 95.037824 L 259.89987818775 77.99670400000002 L 260.71719910409 120.437152 L 261.53452002043 126.232768 L 262.35184093678 107.44432 L 263.16916185312 200.940384 L 263.98648276946 118.477248 L 264.8038036858 128.720608 L 265.62112460215 74.94355200000001 L 266.43844551849 143.26220800000002 L 267.25576643483 117.78111999999999 L 268.07308735117 125.11148799999998 L 268.89040826752 89.097376 L 269.70772918386 86.796416 L 270.5250501002 89.02963200000002 L 271.34237101654 93.325536 L 272.15969193289 135.228704 L 272.97701284923 102.87744 L 273.79433376557 106.879008 L 274.61165468191 119.46304 L 275.42897559826 150.91728 L 276.2462965146 157.918272 L 277.06361743094 90.09017600000001 L 277.88093834728 74.00448 L 278.69825926363 83.378848 L 279.51558017997 114.98259200000001 L 280.33290109631 90.53401600000001 L 281.15022201265 76.022784 L 281.967542929 68.90966399999999 L 282.78486384534 96.61462400000002 L 283.60218476168 102.03647999999998 L 284.41950567802 93.95158400000003 L 285.23682659437 141.93536 L 286.05414751071 97.65180800000002 L 286.87146842705 110.326944 L 287.68878934339 103.48012800000001 L 288.50611025974 132.446528 L 289.32343117608 171.80345599999998 L 290.14075209242 73.01635200000001 L 290.95807300876 124.56720000000001 L 291.77539392511 103.82118399999999 L 292.59271484145 99.557984 L 293.41003575779 68.930688 L 294.22735667413 78.71852799999999 L 295.04467759048 86.485728 L 295.86199850682 78.00137600000002 L 296.67931942316 102.30044800000002 L 297.4966403395 180.659232 L 298.31396125585 91.02224000000001 L 299.13128217219 120.99078399999999 L 299.94860308853 139.267648 L 300.76592400487 178.28352 L 301.58324492121 115.622656 L 302.40056583756 107.731648 L 303.2178867539 78.982496 L 304.03520767024 112.02755200000001 L 304.85252858658 98.83148800000001 L 305.66984950293 118.332416 L 306.48717041927 92.239296 L 307.30449133561 97.31075200000001 L 308.12181225195 89.050656 L 308.9391331683 76.83104 L 309.75645408464 145.306208 L 310.57377500098 124.527488 L 311.39109591732 121.04217599999998 L 312.20841683367 99.91772800000001 L 313.02573775001 80.79756799999998 L 313.84305866635 72.32256000000001 L 314.66037958269 140.260448 L 315.47770049904 102.230368 L 316.29502141538 98.17974400000003 L 317.11234233172 129.316288 L 317.92966324806 111.139872 L 318.74698416441 112.46672000000001 L 319.56430508075 101.63468800000001 L 320.38162599709 76.31712000000002 L 321.19894691343 121.41126399999999 L 322.01626782978 116.750944 L 322.83358874612 80.95408 L 323.65090966246 81.84409600000001 L 324.4682305788 86.16336000000001 L 325.28555149515 108.08438400000003 L 326.10287241149 88.936192 L 326.92019332783 101.05302400000002 L 327.73751424417 138.19776000000002 L 328.55483516052 67.70896000000002 L 329.37215607686 67.07590399999998 L 330.1894769932 165.372448 L 331.00679790954 97.932128 L 331.82411882589 106.01235199999999 L 332.64143974223 181.27827200000002 L 333.45876065857 129.120064 L 334.27608157491 130.108192 L 335.09340249126 85.247648 L 335.9107234076 109.542048 L 336.72804432394 85.36444800000001 L 337.54536524028 132.745536 L 338.36268615663 76.812352 L 339.18000707297 87.71913600000002 L 339.99732798931 106.35107199999999 L 340.81464890565 138.53647999999998 L 341.631969822 104.39583999999999 L 342.44929073834 108.46515199999999 L 343.26661165468 113.03670400000001 L 344.08393257102 83.30643200000003 L 344.90125348737 71.579712 L 345.71857440371 61.22422400000002 L 346.53589532005 64.669824 L 347.35321623639 233.639712 L 348.17053715274 133.21040000000002 L 348.98785806908 154.24374400000002 L 349.80517898542 115.18816000000001 L 350.62249990176 109.76163200000002 L 351.43982081811 96.96035200000003 L 352.25714173445 113.79823999999999 L 353.07446265079 88.74230399999999 L 353.89178356713 90.89376000000001 L 354.70910448348 141.400416 L 355.52642539982 91.97532800000002 L 356.34374631616 127.20688000000001 L 357.1610672325 71.25968 L 357.97838814885 86.88752 L 358.79570906519 158.168224 L 359.61302998153 173.59750400000001 L 360.43035089787 117.76243200000002 L 361.24767181422 88.77734400000003 L 362.06499273056 161.45264 L 362.8823136469 107.82742399999998 L 363.69963456324 96.42307199999999 L 364.51695547959 176.211488 L 365.33427639593 122.54422400000001 L 366.15159731227 129.199488 L 366.96891822861 144.652128 L 367.78623914496 128.51504 L 368.6035600613 83.58675200000002 L 369.42088097764 95.544736 L 370.23820189398 72.378624 L 371.05552281033 110.418048 L 371.87284372667 82.65235200000001 L 372.69016464301 82.762144 L 373.50748555935 70.11737600000001 L 374.3248064757 128.04083200000002 L 375.14212739204 108.68473600000002 L 375.95944830838 114.97324799999998 L 376.77676922472 132.43952 L 377.59409014107 121.50236799999999 L 378.41141105741 122.249888 L 379.22873197375 131.36963200000002 L 380.04605289009 112.289184 L 380.86337380644 132.189568 L 381.68069472278 72.032896 L 382.49801563912 104.05945599999998 L 383.31533655546 68.26726400000001 L 384.13265747181 85.88771200000002 L 384.94997838815 68.43078399999999 L 385.76729930449 115.28160000000003 L 386.58462022083 131.659296 L 387.40194113718 76.96185600000001 L 388.21926205352 68.208864 L 389.03658296986 75.40608 L 389.8539038862 91.64828800000001 L 390.67122480255 115.162464 L 391.48854571889 86.401632 L 392.30586663523 122.33865600000001 L 393.12318755157 101.408096 L 393.94050846792 82.79952 L 394.75782938426 64.162912 L 395.5751503006 189.330464 L 396.39247121694 137.307744 L 397.20979213329 94.29497600000002 L 398.02711304963 95.654528 L 398.84443396597 91.732384 L 399.66175488231 94.344032 L 400.47907579866 76.95251200000001 L 401.296396715 106.692128 L 402.11371763134 89.63699199999999 L 402.93103854768 65.33558400000001 L 403.74835946403 88.10224 L 404.56568038037 85.712512 L 405.38300129671 99.284672 L 406.20032221305 66.09712000000002 L 407.0176431294 114.678912 L 407.83496404574 68.890976 L 408.65228496208 70.44908799999999 L 409.46960587842 64.971168 L 410.28692679477 69.327808 L 411.10424771111 66.496576 L 411.92156862745 62.976224" class="highcharts-graph" data-z-index="1" stroke="#7cb5ec" stroke-width="2" stroke-linejoin="round" stroke-linecap="round"></path></g><g class="highcharts-markers highcharts-series-0 highcharts-line-series highcharts-color-0" data-z-index="0.1" opacity="1" transform="translate(74,48) scale(1 1)" clip-path="none"></g><g class="highcharts-series highcharts-series-1 highcharts-line-series highcharts-color-1" data-z-index="0.1" opacity="1" transform="translate(74,48) scale(1 1)" clip-path="url(#highcharts-t16sjvw-3519-)"><path fill="none" d="M 4.078431372549 270.75408 L 4.8957522888915 284.503776 L 5.713073205234 290.654464 L 6.5303941215765 288.007776 L 7.347715037919 290.161568 L 8.1650359542615 290.607744 L 8.982356870604 283.80064 L 9.7996777869464 289.346304 L 10.616998703289 290.406848 L 11.434319619631 291.467392 L 12.251640535974 291.306208 L 13.068961452316 291.056256 L 13.886282368659 290.946464 L 14.703603285001 291.208096 L 15.520924201344 291.238464 L 16.338245117686 291.74304 L 17.155566034029 291.516448 L 17.972886950371 291.708 L 18.790207866714 291.623904 L 19.607528783056 291.455712 L 20.424849699399 291.773408 L 21.242170615741 288.654848 L 22.059491532084 291.911232 L 22.876812448426 291.511776 L 23.694133364769 291.612224 L 24.511454281111 290.993184 L 25.328775197454 291.773408 L 26.146096113796 288.98656 L 26.963417030139 291.072608 L 27.780737946481 290.64512 L 28.598058862824 291.037568 L 29.415379779166 291.38096 L 30.232700695509 290.262016 L 31.050021611851 291.481408 L 31.867342528194 291.995328 L 32.684663444536 291.11232 L 33.501984360879 291.913568 L 34.319305277221 290.009728 L 35.136626193564 285.89136 L 35.953947109906 246.690944 L 36.771268026249 269.754272 L 37.588588942591 258.868512 L 38.405909858934 246.137312 L 39.223230775276 221.716768 L 40.040551691619 273.858624 L 40.857872607961 273.041024 L 41.675193524304 220.523072 L 42.492514440646 161.917504 L 43.309835356988 202.4144 L 44.127156273331 239.81376 L 44.944477189673 243.49296 L 45.761798106016 268.941344 L 46.579119022358 242.07968 L 47.396439938701 266.785216 L 48.213760855043 241.299456 L 49.031081771386 227.624512 L 49.848402687728 274.14128 L 50.665723604071 270.406016 L 51.483044520413 256.583904 L 52.300365436756 269.672512 L 53.117686353098 265.668608 L 53.935007269441 258.156032 L 54.752328185783 274.370208 L 55.569649102126 228.068352 L 56.386970018468 270.709696 L 57.204290934811 248.594784 L 58.021611851153 257.880384 L 58.838932767496 264.9608 L 59.656253683838 274.575776 L 60.473574600181 204.15238399999998 L 61.290895516523 270.011232 L 62.108216432866 230.640288 L 62.925537349208 271.095136 L 63.742858265551 282.782144 L 64.560179181893 281.35952 L 65.377500098236 222.84271999999999 L 66.194821014578 252.203904 L 67.012141930921 270.312576 L 67.829462847263 236.330784 L 68.646783763606 256.21248 L 69.464104679948 266.030688 L 70.281425596291 256.408704 L 71.098746512633 268.1728 L 71.916067428976 208.340832 L 72.733388345318 217.54000000000002 L 73.550709261661 282.483136 L 74.368030178003 270.377984 L 75.185351094346 264.615072 L 76.002672010688 262.792992 L 76.819992927031 269.310432 L 77.637313843373 283.658144 L 78.454634759716 272.828448 L 79.271955676058 154.22038400000002 L 80.0892765924 263.811488 L 80.906597508743 199.281824 L 81.723918425085 284.059936 L 82.541239341428 241.645184 L 83.35856025777 193.033024 L 84.175881174113 275.96336 L 84.993202090455 184.4272 L 85.810523006798 255.007104 L 86.62784392314 235.739776 L 87.445164839483 251.496096 L 88.262485755825 260.260768 L 89.079806672168 246.803072 L 89.89712758851 239.563808 L 90.714448504853 277.708352 L 91.531769421195 261.276928 L 92.349090337538 282.686368 L 93.16641125388 264.965472 L 93.983732170223 282.891936 L 94.801053086565 256.754432 L 95.618374002908 265.967616 L 96.43569491925 280.992768 L 97.253015835593 278.86 L 98.070336751935 128.811712 L 98.887657668278 231.448544 L 99.70497858462 250.11552 L 100.52229950096 257.70752 L 101.33962041731 188.026976 L 102.15694133365 233.065056 L 102.97426224999 239.724992 L 103.79158316633 252.316032 L 104.60890408268 234.37788799999998 L 105.42622499902 278.88336 L 106.24354591536 273.412448 L 107.0608668317 272.314528 L 107.87818774805 275.734432 L 108.69550866439 274.629504 L 109.51282958073 245.38512 L 110.33015049707 219.200896 L 111.14747141342 270.074304 L 111.96479232976 267.74064 L 112.7821132461 251.708672 L 113.59943416244 269.14224 L 114.41675507879 153.120128 L 115.23407599513 239.59651200000002 L 116.05139691147 264.299712 L 116.86871782781 251.442368 L 117.68603874415 220.067552 L 118.5033596605 259.183872 L 119.32068057684 264.161888 L 120.13800149318 264.596384 L 120.95532240952 199.134656 L 121.77264332587 256.705376 L 122.58996424221 281.588448 L 123.40728515855 267.072544 L 124.22460607489 257.125856 L 125.04192699124 272.361248 L 125.85924790758 285.328384 L 126.67656882392 287.587296 L 127.49388974026 195.632992 L 128.31121065661 263.713376 L 129.12853157295 275.60128 L 129.94585248929 265.96528 L 130.76317340563 283.711872 L 131.58049432198 238.234624 L 132.39781523832 275.138752 L 133.21513615466 279.941568 L 134.032457071 289.619616 L 134.84977798735 278.803936 L 135.66709890369 281.502016 L 136.48441982003 264.091808 L 137.30174073637 273.676416 L 138.11906165272 253.565792 L 138.93638256906 287.984416 L 139.7537034854 258.434016 L 140.57102440174 280.24992 L 141.38834531809 220.329184 L 142.20566623443 267.969568 L 143.02298715077 287.190176 L 143.84030806711 289.64064 L 144.65762898346 261.685728 L 145.4749498998 290.803968 L 146.29227081614 230.736064 L 147.10959173248 263.094336 L 147.92691264883 254.813216 L 148.74423356517 240.825248 L 149.56155448151 254.275936 L 150.37887539785 257.506624 L 151.1961963142 215.895456 L 152.01351723054 261.52688 L 152.83083814688 204.03791999999999 L 153.64815906322 202.813856 L 154.46547997957 157.92060800000002 L 155.28280089591 228.091712 L 156.10012181225 269.537024 L 156.91744272859 257.002048 L 157.73476364494 240.815904 L 158.55208456128 252.839296 L 159.36940547762 273.585312 L 160.18672639396 219.534944 L 161.00404731031 238.430848 L 161.82136822665 232.789408 L 162.63868914299 273.328352 L 163.45601005933 262.089856 L 164.27333097568 268.773152 L 165.09065189202 123.92246400000002 L 165.90797280836 252.421152 L 166.7252937247 254.84592 L 167.54261464105 264.729536 L 168.35993555739 249.816512 L 169.17725647373 261.580608 L 169.99457739007 247.646368 L 170.81189830642 238.78592 L 171.62921922276 274.283776 L 172.4465401391 270.441056 L 173.26386105544 264.220288 L 174.08118197179 253.285472 L 174.89850288813 274.216032 L 175.71582380447 244.815136 L 176.53314472081 286.42864 L 177.35046563716 215.93516799999998 L 178.1677865535 260.21872 L 178.98510746984 251.624576 L 179.80242838618 249.900608 L 180.61974930253 248.907808 L 181.43707021887 284.436032 L 182.25439113521 267.581792 L 183.07171205155 230.63328 L 183.8890329679 259.723488 L 184.70635388424 253.376576 L 185.52367480058 254.100736 L 186.34099571692 282.548544 L 187.15831663327 276.456256 L 187.97563754961 288.353504 L 188.79295846595 209.8312 L 189.61027938229 265.376608 L 190.42760029864 262.669184 L 191.24492121498 281.013792 L 192.06224213132 265.694304 L 192.87956304766 222.40822400000002 L 193.69688396401 282.943328 L 194.51420488035 273.879648 L 195.33152579669 283.534336 L 196.14884671303 285.312032 L 196.96616762938 278.14752 L 197.78348854572 288.19232 L 198.60080946206 233.824256 L 199.4181303784 269.443584 L 200.23545129475 213.37257599999998 L 201.05277221109 256.747424 L 201.87009312743 241.21536 L 202.68741404377 254.04934400000002 L 203.50473496012 240.16416 L 204.32205587646 277.479424 L 205.1393767928 254.229216 L 205.95669770914 284.819136 L 206.77401862549 280.76384 L 207.59133954183 284.155712 L 208.40866045817 284.1744 L 209.22598137451 262.288416 L 210.04330229086 289.040288 L 210.8606232072 287.115424 L 211.67794412354 263.795136 L 212.49526503988 272.496736 L 213.31258595623 268.700736 L 214.12990687257 285.828288 L 214.94722778891 279.586496 L 215.76454870525 274.297792 L 216.5818696216 281.583776 L 217.39919053794 288.346496 L 218.21651145428 288.428256 L 219.03383237062 287.919008 L 219.85115328697 288.6712 L 220.66847420331 284.798112 L 221.48579511965 285.199904 L 222.30311603599 288.778656 L 223.12043695234 290.170912 L 223.93775786868 264.530976 L 224.75507878502 287.975072 L 225.57239970136 284.905568 L 226.38972061771 281.431936 L 227.20704153405 291.063264 L 228.02436245039 214.384064 L 228.84168336673 232.52777600000002 L 229.65900428308 282.62096 L 230.47632519942 243.27337599999998 L 231.29364611576 228.19449600000002 L 232.1109670321 267.83408 L 232.92828794845 238.55232 L 233.74560886479 266.866976 L 234.56292978113 264.568352 L 235.38025069747 256.245184 L 236.19757161382 253.411616 L 237.01489253016 234.842752 L 237.8322134465 211.585536 L 238.64953436284 256.055968 L 239.46685527919 215.463296 L 240.28417619553 217.997856 L 241.10149711187 272.706976 L 241.91881802821 279.976608 L 242.73613894456 211.80512 L 243.5534598609 226.958752 L 244.37078077724 240.087072 L 245.18810169358 260.225728 L 246.00542260993 216.157088 L 246.82274352627 249.068992 L 247.64006444261 239.619872 L 248.45738535895 252.88368 L 249.2747062753 265.969952 L 250.09202719164 254.827232 L 250.90934810798 256.817504 L 251.72666902432 209.385024 L 252.54398994067 248.67888 L 253.36131085701 238.69248 L 254.17863177335 246.6816 L 254.99595268969 249.83052800000002 L 255.81327360604 278.843648 L 256.63059452238 220.01148799999999 L 257.44791543872 229.014432 L 258.26523635506 241.53072 L 259.08255727141 252.143168 L 259.89987818775 178.2952 L 260.71719910409 258.156032 L 261.53452002043 235.265568 L 262.35184093678 213.74166400000001 L 263.16916185312 270.487776 L 263.98648276946 223.912608 L 264.8038036858 249.51516800000002 L 265.62112460215 219.766208 L 266.43844551849 246.534432 L 267.25576643483 228.79952 L 268.07308735117 253.86713600000002 L 268.89040826752 236.092512 L 269.70772918386 243.5864 L 270.5250501002 191.755232 L 271.34237101654 258.966624 L 272.15969193289 262.230016 L 272.97701284923 246.630208 L 273.79433376557 252.271648 L 274.61165468191 233.959744 L 275.42897559826 285.328384 L 276.2462965146 253.44432 L 277.06361743094 206.518752 L 277.88093834728 217.194272 L 278.69825926363 234.05785600000002 L 279.51558017997 263.650304 L 280.33290109631 240.787872 L 281.15022201265 223.109024 L 281.967542929 225.91456 L 282.78486384534 252.306688 L 283.60218476168 241.58912 L 284.41950567802 258.055584 L 285.23682659437 276.428224 L 286.05414751071 232.52777600000002 L 286.87146842705 256.555872 L 287.68878934339 264.386144 L 288.50611025974 269.242688 L 289.32343117608 273.70678399999997 L 290.14075209242 172.074432 L 290.95807300876 270.314912 L 291.77539392511 251.43536 L 292.59271484145 184.266016 L 293.41003575779 269.226336 L 294.22735667413 279.39728 L 295.04467759048 283.361472 L 295.86199850682 198.398816 L 296.67931942316 218.52112 L 297.4966403395 252.94208 L 298.31396125585 216.619616 L 299.13128217219 274.216032 L 299.94860308853 267.044512 L 300.76592400487 279.308512 L 301.58324492121 188.839904 L 302.40056583756 250.22297600000002 L 303.2178867539 205.610048 L 304.03520767024 230.927616 L 304.85252858658 274.0712 L 305.66984950293 224.410176 L 306.48717041927 226.54528 L 307.30449133561 266.752512 L 308.12181225195 224.491936 L 308.9391331683 255.80367999999999 L 309.75645408464 254.117088 L 310.57377500098 247.81456 L 311.39109591732 253.755008 L 312.20841683367 226.746176 L 313.02573775001 198.17455999999999 L 313.84305866635 202.131744 L 314.66037958269 268.45312 L 315.47770049904 246.48304000000002 L 316.29502141538 186.092768 L 317.11234233172 270.856864 L 317.92966324806 256.950656 L 318.74698416441 243.682176 L 319.56430508075 223.569216 L 320.38162599709 269.836032 L 321.19894691343 259.223584 L 322.01626782978 249.912288 L 322.83358874612 242.98604799999998 L 323.65090966246 271.870688 L 324.4682305788 259.419808 L 325.28555149515 262.708896 L 326.10287241149 259.466528 L 326.92019332783 227.51472 L 327.73751424417 263.000896 L 328.55483516052 275.290592 L 329.37215607686 261.59696 L 330.1894769932 250.99152 L 331.00679790954 259.464192 L 331.82411882589 273.44048 L 332.64143974223 277.350944 L 333.45876065857 238.81161600000001 L 334.27608157491 221.840576 L 335.09340249126 263.942304 L 335.9107234076 281.167968 L 336.72804432394 204.974656 L 337.54536524028 273.248928 L 338.36268615663 152.33056000000002 L 339.18000707297 265.449024 L 339.99732798931 269.044128 L 340.81464890565 256.133056 L 341.631969822 251.605888 L 342.44929073834 274.262752 L 343.26661165468 278.979136 L 344.08393257102 282.969024 L 344.90125348737 271.076448 L 345.71857440371 286.28848 L 346.53589532005 269.44592 L 347.35321623639 281.747296 L 348.17053715274 232.534784 L 348.98785806908 219.02336 L 349.80517898542 238.279008 L 350.62249990176 252.4048 L 351.43982081811 269.109536 L 352.25714173445 232.252128 L 353.07446265079 224.27936 L 353.89178356713 249.27456 L 354.70910448348 259.419808 L 355.52642539982 279.29216 L 356.34374631616 263.97968000000003 L 357.1610672325 288.42592 L 357.97838814885 210.611424 L 358.79570906519 242.222176 L 359.61302998153 247.314656 L 360.43035089787 197.459744 L 361.24767181422 155.61497599999998 L 362.06499273056 244.394656 L 362.8823136469 212.945088 L 363.69963456324 240.608 L 364.51695547959 260.21872 L 365.33427639593 186.403456 L 366.15159731227 265.862496 L 366.96891822861 240.579968 L 367.78623914496 256.777792 L 368.6035600613 255.264064 L 369.42088097764 280.754496 L 370.23820189398 278.301696 L 371.05552281033 271.57401600000003 L 371.87284372667 279.614528 L 372.69016464301 272.316864 L 373.50748555935 174.396416 L 374.3248064757 233.548608 L 375.14212739204 227.39091200000001 L 375.95944830838 242.829536 L 376.77676922472 259.19088 L 377.59409014107 230.20812800000002 L 378.41141105741 265.659264 L 379.22873197375 248.613472 L 380.04605289009 219.21024 L 380.86337380644 255.953184 L 381.68069472278 268.331648 L 382.49801563912 275.619968 L 383.31533655546 267.747648 L 384.13265747181 184.25433600000002 L 384.94997838815 182.586432 L 385.76729930449 268.065344 L 386.58462022083 258.258816 L 387.40194113718 204.15238399999998 L 388.21926205352 231.936768 L 389.03658296986 253.698944 L 389.8539038862 229.100864 L 390.67122480255 267.574784 L 391.48854571889 266.37408 L 392.30586663523 213.60851200000002 L 393.12318755157 279.049216 L 393.94050846792 267.5888 L 394.75782938426 290.17792 L 395.5751503006 283.632448 L 396.39247121694 237.2208 L 397.20979213329 242.8272 L 398.02711304963 220.305824 L 398.84443396597 242.866912 L 399.66175488231 253.885824 L 400.47907579866 267.303808 L 401.296396715 201.907488 L 402.11371763134 272.265472 L 402.93103854768 257.98784 L 403.74835946403 274.384224 L 404.56568038037 212.080768 L 405.38300129671 216.783136 L 406.20032221305 289.140736 L 407.0176431294 269.174944 L 407.83496404574 291.551488 L 408.65228496208 279.224416 L 409.46960587842 288.748288 L 410.28692679477 284.330912 L 411.10424771111 269.420224 L 411.92156862745 291.792096" class="highcharts-graph" data-z-index="1" stroke="#434348" stroke-width="2" stroke-linejoin="round" stroke-linecap="round"></path></g><g class="highcharts-markers highcharts-series-1 highcharts-line-series highcharts-color-1" data-z-index="0.1" opacity="1" transform="translate(74,48) scale(1 1)" clip-path="none"></g></g><text x="250" text-anchor="middle" class="highcharts-title" data-z-index="4" style="color:#333333;font-size:18px;fill:#333333;" y="24"></text><text x="250" text-anchor="middle" class="highcharts-subtitle" data-z-index="4" style="color:#666666;fill:#666666;" y="24"></text><text x="10" text-anchor="start" class="highcharts-caption" data-z-index="4" style="color:#666666;fill:#666666;" y="397"></text><g class="highcharts-legend highcharts-no-tooltip" data-z-index="7" transform="translate(227,10)"><rect fill="none" class="highcharts-legend-box" rx="0" ry="0" x="0" y="0" width="263" height="26" visibility="visible"></rect><g data-z-index="1"><g><g class="highcharts-legend-item highcharts-line-series highcharts-color-0 highcharts-series-0" data-z-index="1" transform="translate(8,3)"><path fill="none" d="M 0 11 L 16 11" class="highcharts-graph" stroke="#7cb5ec" stroke-width="2"></path><path fill="#7cb5ec" d="M 8 15 A 4 4 0 1 1 8.003999999333336 14.999998000000167 Z" class="highcharts-point" opacity="1"></path><text x="21" style="color:#333333;cursor:pointer;font-size:12px;font-weight:bold;font-family:Aa般若楷书;fill:#333333;" text-anchor="start" data-z-index="2" y="15">d real probability</text></g><g class="highcharts-legend-item highcharts-line-series highcharts-color-1 highcharts-series-1" data-z-index="1" transform="translate(140.2438507080078,3)"><path fill="none" d="M 0 11 L 16 11" class="highcharts-graph" stroke="#434348" stroke-width="2"></path><path fill="#434348" d="M 8 7 L 12 11 L 8 15 L 4 11 Z" class="highcharts-point" opacity="1"></path><text x="21" y="15" style="color:#333333;cursor:pointer;font-size:12px;font-weight:bold;font-family:Aa般若楷书;fill:#333333;" text-anchor="start" data-z-index="2">d fake probability</text></g></g></g></g><g class="highcharts-axis-labels highcharts-xaxis-labels" data-z-index="7"><text x="78.078431372549" style="color:#666666;cursor:default;font-size:11px;fill:#666666;" text-anchor="middle" transform="translate(0,0)" y="359" opacity="1">0</text><text x="159.8105230068" style="color:#666666;cursor:default;font-size:11px;fill:#666666;" text-anchor="middle" transform="translate(0,0)" y="359" opacity="1">100</text><text x="241.54261464105" style="color:#666666;cursor:default;font-size:11px;fill:#666666;" text-anchor="middle" transform="translate(0,0)" y="359" opacity="1">200</text><text x="323.2747062753" style="color:#666666;cursor:default;font-size:11px;fill:#666666;" text-anchor="middle" transform="translate(0,0)" y="359" opacity="1">300</text><text x="405.00679790954" style="color:#666666;cursor:default;font-size:11px;fill:#666666;" text-anchor="middle" transform="translate(0,0)" y="359" opacity="1">400</text><text x="479.54443359375" style="color:#666666;cursor:default;font-size:11px;fill:#666666;" text-anchor="middle" transform="translate(0,0)" y="359" opacity="1">500</text></g><g class="highcharts-axis-labels highcharts-yaxis-labels" data-z-index="7"><text x="59" style="color:#666666;cursor:default;font-size:11px;fill:#666666;" text-anchor="end" transform="translate(0,0)" y="344" opacity="1">0</text><text x="59" style="color:#666666;cursor:default;font-size:11px;fill:#666666;" text-anchor="end" transform="translate(0,0)" y="286" opacity="1">0.25</text><text x="59" style="color:#666666;cursor:default;font-size:11px;fill:#666666;" text-anchor="end" transform="translate(0,0)" y="227" opacity="1">0.5</text><text x="59" style="color:#666666;cursor:default;font-size:11px;fill:#666666;" text-anchor="end" transform="translate(0,0)" y="169" opacity="1">0.75</text><text x="59" style="color:#666666;cursor:default;font-size:11px;fill:#666666;" text-anchor="end" transform="translate(0,0)" y="110" opacity="1">1</text><text x="59" style="color:#666666;cursor:default;font-size:11px;fill:#666666;" text-anchor="end" transform="translate(0,0)" y="52" opacity="1">1.25</text></g></svg>