<svg xmlns:xlink="http://www.w3.org/1999/xlink" version="1.1" class="highcharts-root" style="font-family:&quot;Lucida Grande&quot;, &quot;Lucida Sans Unicode&quot;, Arial, Helvetica, sans-serif;font-size:12px;" xmlns="http://www.w3.org/2000/svg" width="500" height="400" viewBox="0 0 500 400"><desc>Created with Highcharts 9.3.3</desc><defs><clipPath id="highcharts-fepm7kb-100-"><rect x="0" y="0" width="420" height="294" fill="none"></rect></clipPath><clipPath id="highcharts-fepm7kb-147-"><rect x="0" y="0" width="420" height="294" fill="none"></rect></clipPath></defs><rect fill="#ffffff" class="highcharts-background" x="0" y="0" width="500" height="400" rx="0" ry="0"></rect><rect fill="none" class="highcharts-plot-background" x="70" y="50" width="420" height="294"></rect><g class="highcharts-grid highcharts-xaxis-grid" data-z-index="1"><path fill="none" stroke-dasharray="none" data-z-index="1" class="highcharts-grid-line" d="M 73.5 50 L 73.5 344" opacity="1"></path><path fill="none" stroke-dasharray="none" data-z-index="1" class="highcharts-grid-line" d="M 165.5 50 L 165.5 344" opacity="1"></path><path fill="none" stroke-dasharray="none" data-z-index="1" class="highcharts-grid-line" d="M 256.5 50 L 256.5 344" opacity="1"></path><path fill="none" stroke-dasharray="none" data-z-index="1" class="highcharts-grid-line" d="M 348.5 50 L 348.5 344" opacity="1"></path><path fill="none" stroke-dasharray="none" data-z-index="1" class="highcharts-grid-line" d="M 439.5 50 L 439.5 344" opacity="1"></path></g><g class="highcharts-grid highcharts-yaxis-grid" data-z-index="1"><path fill="none" stroke="#e6e6e6" stroke-width="1" stroke-dasharray="none" data-z-index="1" class="highcharts-grid-line" d="M 70 344.5 L 490 344.5" opacity="1"></path><path fill="none" stroke="#e6e6e6" stroke-width="1" stroke-dasharray="none" data-z-index="1" class="highcharts-grid-line" d="M 70 285.5 L 490 285.5" opacity="1"></path><path fill="none" stroke="#e6e6e6" stroke-width="1" stroke-dasharray="none" data-z-index="1" class="highcharts-grid-line" d="M 70 226.5 L 490 226.5" opacity="1"></path><path fill="none" stroke="#e6e6e6" stroke-width="1" stroke-dasharray="none" data-z-index="1" class="highcharts-grid-line" d="M 70 168.5 L 490 168.5" opacity="1"></path><path fill="none" stroke="#e6e6e6" stroke-width="1" stroke-dasharray="none" data-z-index="1" class="highcharts-grid-line" d="M 70 109.5 L 490 109.5" opacity="1"></path><path fill="none" stroke="#e6e6e6" stroke-width="1" stroke-dasharray="none" data-z-index="1" class="highcharts-grid-line" d="M 70 49.5 L 490 49.5" opacity="1"></path></g><rect fill="none" class="highcharts-plot-border" data-z-index="1" x="70" y="50" width="420" height="294"></rect><g class="highcharts-axis highcharts-xaxis" data-z-index="2"><path fill="none" class="highcharts-tick" stroke="#ccd6eb" stroke-width="1" d="M 73.5 344 L 73.5 354" opacity="1"></path><path fill="none" class="highcharts-tick" stroke="#ccd6eb" stroke-width="1" d="M 165.5 344 L 165.5 354" opacity="1"></path><path fill="none" class="highcharts-tick" stroke="#ccd6eb" stroke-width="1" d="M 256.5 344 L 256.5 354" opacity="1"></path><path fill="none" class="highcharts-tick" stroke="#ccd6eb" stroke-width="1" d="M 348.5 344 L 348.5 354" opacity="1"></path><path fill="none" class="highcharts-tick" stroke="#ccd6eb" stroke-width="1" d="M 439.5 344 L 439.5 354" opacity="1"></path><text x="280" data-z-index="7" text-anchor="middle" transform="translate(0,0)" class="highcharts-axis-title" style="color:black;font-family:楷体;font-size:14px;fill:black;" y="385">迭代次数</text><path fill="none" class="highcharts-axis-line" stroke="#ccd6eb" stroke-width="1" data-z-index="7" d="M 70 344.5 L 490 344.5"></path></g><g class="highcharts-axis highcharts-yaxis" data-z-index="2"><text x="27.6015625" data-z-index="7" text-anchor="middle" transform="translate(0,0) rotate(270 27.6015625 197)" class="highcharts-axis-title" style="color:black;font-family:Times New Roman;font-size:16px;fill:black;" y="197">losses</text><path fill="none" class="highcharts-axis-line" data-z-index="7" d="M 70 50 L 70 344"></path></g><g class="highcharts-series-group" data-z-index="3"><g class="highcharts-series highcharts-series-0 highcharts-line-series highcharts-color-0" data-z-index="0.1" opacity="1" transform="translate(70,50) scale(1 1)" clip-path="url(#highcharts-fepm7kb-147-)"><path fill="none" d="M 4.1176470588235 149.50643733143806 L 13.267973856209 165.1842231452465 L 22.418300653595 169.65763306617737 L 31.56862745098 181.7815729379654 L 40.718954248366 193.75017777085304 L 49.869281045752 196.33144158124924 L 59.019607843137 203.69857281446457 L 68.169934640523 208.47211226820946 L 77.320261437908 211.32233083248138 L 86.470588235294 213.97737845778465 L 95.62091503268 214.82270519435406 L 104.77124183007 216.56577882170677 L 113.92156862745 218.5606032460928 L 123.07189542484 220.43966567516327 L 132.22222222222 221.96552784740925 L 141.37254901961 226.47965423762798 L 150.52287581699 228.053159147501 L 159.67320261438 231.6691640764475 L 168.82352941176 233.29244086146355 L 177.97385620915 236.65508499741554 L 187.12418300654 241.2602320164442 L 196.27450980392 242.57346957921982 L 205.42483660131 246.1972386315465 L 214.57516339869 249.79202447086573 L 223.72549019608 251.92481897771358 L 232.87581699346 256.9041323438287 L 242.02614379085 255.99594676494598 L 251.17647058824 255.54425418376923 L 260.32679738562 257.3424783870578 L 269.47712418301 259.34661450237036 L 278.62745098039 260.52432326227427 L 287.77777777778 263.1381024196744 L 296.92810457516 260.7376378700137 L 306.07843137255 263.0696743056178 L 315.22875816993 264.9245835095644 L 324.37908496732 264.90562169998884 L 333.52941176471 264.8734480664134 L 342.67973856209 267.39911937341094 L 351.83006535948 267.78422547876835 L 360.98039215686 266.87271805107594 L 370.13071895425 267.2251050956547 L 379.28104575163 268.6333159916103 L 388.43137254902 272.3680055513978 L 397.58169934641 269.76437593996525 L 406.73202614379 267.9626935310662 L 415.88235294118 275.5234004929662" class="highcharts-graph" data-z-index="1" stroke="#7cb5ec" stroke-width="2" stroke-linejoin="round" stroke-linecap="round"></path></g><g class="highcharts-markers highcharts-series-0 highcharts-line-series highcharts-color-0" data-z-index="0.1" opacity="1" transform="translate(70,50) scale(1 1)" clip-path="none"><path fill="#7cb5ec" d="M 4 154 A 4 4 0 1 1 4.0039999993333355 153.99999800000018 Z" opacity="1" class="highcharts-point highcharts-color-0"></path><path fill="#7cb5ec" d="M 13 169 A 4 4 0 1 1 13.003999999333336 168.99999800000018 Z" opacity="1" class="highcharts-point highcharts-color-0"></path><path fill="#7cb5ec" d="M 22 174 A 4 4 0 1 1 22.003999999333335 173.99999800000018 Z" opacity="1" class="highcharts-point highcharts-color-0"></path><path fill="#7cb5ec" d="M 31 186 A 4 4 0 1 1 31.003999999333335 185.99999800000018 Z" opacity="1" class="highcharts-point highcharts-color-0"></path><path fill="#7cb5ec" d="M 40 198 A 4 4 0 1 1 40.00399999933334 197.99999800000018 Z" opacity="1" class="highcharts-point highcharts-color-0"></path><path fill="#7cb5ec" d="M 49 200 A 4 4 0 1 1 49.00399999933334 199.99999800000018 Z" opacity="1" class="highcharts-point highcharts-color-0"></path><path fill="#7cb5ec" d="M 59 208 A 4 4 0 1 1 59.00399999933334 207.99999800000018 Z" opacity="1" class="highcharts-point highcharts-color-0"></path><path fill="#7cb5ec" d="M 68 212 A 4 4 0 1 1 68.00399999933333 211.99999800000018 Z" opacity="1" class="highcharts-point highcharts-color-0"></path><path fill="#7cb5ec" d="M 77 215 A 4 4 0 1 1 77.00399999933333 214.99999800000018 Z" opacity="1" class="highcharts-point highcharts-color-0"></path><path fill="#7cb5ec" d="M 86 218 A 4 4 0 1 1 86.00399999933333 217.99999800000018 Z" opacity="1" class="highcharts-point highcharts-color-0"></path><path fill="#7cb5ec" d="M 95 219 A 4 4 0 1 1 95.00399999933333 218.99999800000018 Z" opacity="1" class="highcharts-point highcharts-color-0"></path><path fill="#7cb5ec" d="M 104 221 A 4 4 0 1 1 104.00399999933333 220.99999800000018 Z" opacity="1" class="highcharts-point highcharts-color-0"></path><path fill="#7cb5ec" d="M 113 223 A 4 4 0 1 1 113.00399999933333 222.99999800000018 Z" opacity="1" class="highcharts-point highcharts-color-0"></path><path fill="#7cb5ec" d="M 123 224 A 4 4 0 1 1 123.00399999933333 223.99999800000018 Z" opacity="1" class="highcharts-point highcharts-color-0"></path><path fill="#7cb5ec" d="M 132 226 A 4 4 0 1 1 132.00399999933333 225.99999800000018 Z" opacity="1" class="highcharts-point highcharts-color-0"></path><path fill="#7cb5ec" d="M 141 230 A 4 4 0 1 1 141.00399999933333 229.99999800000018 Z" opacity="1" class="highcharts-point highcharts-color-0"></path><path fill="#7cb5ec" d="M 150 232 A 4 4 0 1 1 150.00399999933333 231.99999800000018 Z" opacity="1" class="highcharts-point highcharts-color-0"></path><path fill="#7cb5ec" d="M 159 236 A 4 4 0 1 1 159.00399999933333 235.99999800000018 Z" opacity="1" class="highcharts-point highcharts-color-0"></path><path fill="#7cb5ec" d="M 168 237 A 4 4 0 1 1 168.00399999933333 236.99999800000018 Z" opacity="1" class="highcharts-point highcharts-color-0"></path><path fill="#7cb5ec" d="M 177 241 A 4 4 0 1 1 177.00399999933333 240.99999800000018 Z" opacity="1" class="highcharts-point highcharts-color-0"></path><path fill="#7cb5ec" d="M 187 245 A 4 4 0 1 1 187.00399999933333 244.99999800000018 Z" opacity="1" class="highcharts-point highcharts-color-0"></path><path fill="#7cb5ec" d="M 196 247 A 4 4 0 1 1 196.00399999933333 246.99999800000018 Z" opacity="1" class="highcharts-point highcharts-color-0"></path><path fill="#7cb5ec" d="M 205 250 A 4 4 0 1 1 205.00399999933333 249.99999800000018 Z" opacity="1" class="highcharts-point highcharts-color-0"></path><path fill="#7cb5ec" d="M 214 254 A 4 4 0 1 1 214.00399999933333 253.99999800000018 Z" opacity="1" class="highcharts-point highcharts-color-0"></path><path fill="#7cb5ec" d="M 223 256 A 4 4 0 1 1 223.00399999933333 255.99999800000018 Z" opacity="1" class="highcharts-point highcharts-color-0"></path><path fill="#7cb5ec" d="M 232 261 A 4 4 0 1 1 232.00399999933333 260.9999980000002 Z" opacity="1" class="highcharts-point highcharts-color-0"></path><path fill="#7cb5ec" d="M 242 260 A 4 4 0 1 1 242.00399999933333 259.9999980000002 Z" opacity="1" class="highcharts-point highcharts-color-0"></path><path fill="#7cb5ec" d="M 251 260 A 4 4 0 1 1 251.00399999933333 259.9999980000002 Z" opacity="1" class="highcharts-point highcharts-color-0"></path><path fill="#7cb5ec" d="M 260 261 A 4 4 0 1 1 260.00399999933336 260.9999980000002 Z" opacity="1" class="highcharts-point highcharts-color-0"></path><path fill="#7cb5ec" d="M 269 263 A 4 4 0 1 1 269.00399999933336 262.9999980000002 Z" opacity="1" class="highcharts-point highcharts-color-0"></path><path fill="#7cb5ec" d="M 278 265 A 4 4 0 1 1 278.00399999933336 264.9999980000002 Z" opacity="1" class="highcharts-point highcharts-color-0"></path><path fill="#7cb5ec" d="M 287 267 A 4 4 0 1 1 287.00399999933336 266.9999980000002 Z" opacity="1" class="highcharts-point highcharts-color-0"></path><path fill="#7cb5ec" d="M 296 265 A 4 4 0 1 1 296.00399999933336 264.9999980000002 Z" opacity="1" class="highcharts-point highcharts-color-0"></path><path fill="#7cb5ec" d="M 306 267 A 4 4 0 1 1 306.00399999933336 266.9999980000002 Z" opacity="1" class="highcharts-point highcharts-color-0"></path><path fill="#7cb5ec" d="M 315 269 A 4 4 0 1 1 315.00399999933336 268.9999980000002 Z" opacity="1" class="highcharts-point highcharts-color-0"></path><path fill="#7cb5ec" d="M 324 269 A 4 4 0 1 1 324.00399999933336 268.9999980000002 Z" opacity="1" class="highcharts-point highcharts-color-0"></path><path fill="#7cb5ec" d="M 333 269 A 4 4 0 1 1 333.00399999933336 268.9999980000002 Z" opacity="1" class="highcharts-point highcharts-color-0"></path><path fill="#7cb5ec" d="M 342 271 A 4 4 0 1 1 342.00399999933336 270.9999980000002 Z" opacity="1" class="highcharts-point highcharts-color-0"></path><path fill="#7cb5ec" d="M 351 272 A 4 4 0 1 1 351.00399999933336 271.9999980000002 Z" opacity="1" class="highcharts-point highcharts-color-0"></path><path fill="#7cb5ec" d="M 360 271 A 4 4 0 1 1 360.00399999933336 270.9999980000002 Z" opacity="1" class="highcharts-point highcharts-color-0"></path><path fill="#7cb5ec" d="M 370 271 A 4 4 0 1 1 370.00399999933336 270.9999980000002 Z" opacity="1" class="highcharts-point highcharts-color-0"></path><path fill="#7cb5ec" d="M 379 273 A 4 4 0 1 1 379.00399999933336 272.9999980000002 Z" opacity="1" class="highcharts-point highcharts-color-0"></path><path fill="#7cb5ec" d="M 388 276 A 4 4 0 1 1 388.00399999933336 275.9999980000002 Z" opacity="1" class="highcharts-point highcharts-color-0"></path><path fill="#7cb5ec" d="M 397 274 A 4 4 0 1 1 397.00399999933336 273.9999980000002 Z" opacity="1" class="highcharts-point highcharts-color-0"></path><path fill="#7cb5ec" d="M 406 272 A 4 4 0 1 1 406.00399999933336 271.9999980000002 Z" opacity="1" class="highcharts-point highcharts-color-0"></path><path fill="#7cb5ec" d="M 415 280 A 4 4 0 1 1 415.00399999933336 279.9999980000002 Z" opacity="1" class="highcharts-point highcharts-color-0"></path></g><g class="highcharts-series highcharts-series-1 highcharts-line-series highcharts-color-1" data-z-index="0.1" opacity="1" transform="translate(70,50) scale(1 1)" clip-path="url(#highcharts-fepm7kb-147-)"><path fill="none" d="M 4.1176470588235 67.41140270233154 L 13.267973856209 79.59269785881042 L 22.418300653595 88.53792741894722 L 31.56862745098 110.18083369731903 L 40.718954248366 131.6338130235672 L 49.869281045752 143.59512358903885 L 59.019607843137 161.138388723135 L 68.169934640523 171.9631472826004 L 77.320261437908 180.61204558610916 L 86.470588235294 173.91287210583687 L 95.62091503268 166.40406122803688 L 104.77124183007 164.12957721948624 L 113.92156862745 170.44549280405045 L 123.07189542484 179.68711933493614 L 132.22222222222 183.28231260180473 L 141.37254901961 184.78116627037525 L 150.52287581699 182.72344028949738 L 159.67320261438 182.14629945158958 L 168.82352941176 187.8311951905489 L 177.97385620915 190.116351172328 L 187.12418300654 193.69483990967274 L 196.27450980392 196.2874459773302 L 205.42483660131 198.47141535580158 L 214.57516339869 199.2365511506796 L 223.72549019608 199.78758376836777 L 232.87581699346 202.75497718155384 L 242.02614379085 206.99898567795753 L 251.17647058824 207.99047376215458 L 260.32679738562 208.66445092856884 L 269.47712418301 212.50433072447777 L 278.62745098039 216.7802697122097 L 287.77777777778 218.51753421127796 L 296.92810457516 218.83610969781876 L 306.07843137255 221.97552953660488 L 315.22875816993 223.78013786673546 L 324.37908496732 226.89209577441216 L 333.52941176471 229.39143379032612 L 342.67973856209 232.02134576439857 L 351.83006535948 234.67172111570835 L 360.98039215686 236.93072944879532 L 370.13071895425 240.14840494841337 L 379.28104575163 244.04594888538122 L 388.43137254902 246.23193568736315 L 397.58169934641 249.40484672784805 L 406.73202614379 253.2548037841916 L 415.88235294118 256.8811882585287" class="highcharts-graph" data-z-index="1" stroke="#434348" stroke-width="2" stroke-linejoin="round" stroke-linecap="round"></path></g><g class="highcharts-markers highcharts-series-1 highcharts-line-series highcharts-color-1" data-z-index="0.1" opacity="1" transform="translate(70,50) scale(1 1)" clip-path="none"><path fill="#434348" d="M 4 63 L 8 67 L 4 71 L 0 67 Z" opacity="1" class="highcharts-point highcharts-color-1"></path><path fill="#434348" d="M 13 76 L 17 80 L 13 84 L 9 80 Z" opacity="1" class="highcharts-point highcharts-color-1"></path><path fill="#434348" d="M 22 85 L 26 89 L 22 93 L 18 89 Z" opacity="1" class="highcharts-point highcharts-color-1"></path><path fill="#434348" d="M 31 106 L 35 110 L 31 114 L 27 110 Z" opacity="1" class="highcharts-point highcharts-color-1"></path><path fill="#434348" d="M 40 128 L 44 132 L 40 136 L 36 132 Z" opacity="1" class="highcharts-point highcharts-color-1"></path><path fill="#434348" d="M 49 140 L 53 144 L 49 148 L 45 144 Z" opacity="1" class="highcharts-point highcharts-color-1"></path><path fill="#434348" d="M 59 157 L 63 161 L 59 165 L 55 161 Z" opacity="1" class="highcharts-point highcharts-color-1"></path><path fill="#434348" d="M 68 168 L 72 172 L 68 176 L 64 172 Z" opacity="1" class="highcharts-point highcharts-color-1"></path><path fill="#434348" d="M 77 177 L 81 181 L 77 185 L 73 181 Z" opacity="1" class="highcharts-point highcharts-color-1"></path><path fill="#434348" d="M 86 170 L 90 174 L 86 178 L 82 174 Z" opacity="1" class="highcharts-point highcharts-color-1"></path><path fill="#434348" d="M 95 162 L 99 166 L 95 170 L 91 166 Z" opacity="1" class="highcharts-point highcharts-color-1"></path><path fill="#434348" d="M 104 160 L 108 164 L 104 168 L 100 164 Z" opacity="1" class="highcharts-point highcharts-color-1"></path><path fill="#434348" d="M 113 166 L 117 170 L 113 174 L 109 170 Z" opacity="1" class="highcharts-point highcharts-color-1"></path><path fill="#434348" d="M 123 176 L 127 180 L 123 184 L 119 180 Z" opacity="1" class="highcharts-point highcharts-color-1"></path><path fill="#434348" d="M 132 179 L 136 183 L 132 187 L 128 183 Z" opacity="1" class="highcharts-point highcharts-color-1"></path><path fill="#434348" d="M 141 181 L 145 185 L 141 189 L 137 185 Z" opacity="1" class="highcharts-point highcharts-color-1"></path><path fill="#434348" d="M 150 179 L 154 183 L 150 187 L 146 183 Z" opacity="1" class="highcharts-point highcharts-color-1"></path><path fill="#434348" d="M 159 178 L 163 182 L 159 186 L 155 182 Z" opacity="1" class="highcharts-point highcharts-color-1"></path><path fill="#434348" d="M 168 184 L 172 188 L 168 192 L 164 188 Z" opacity="1" class="highcharts-point highcharts-color-1"></path><path fill="#434348" d="M 177 186 L 181 190 L 177 194 L 173 190 Z" opacity="1" class="highcharts-point highcharts-color-1"></path><path fill="#434348" d="M 187 190 L 191 194 L 187 198 L 183 194 Z" opacity="1" class="highcharts-point highcharts-color-1"></path><path fill="#434348" d="M 196 192 L 200 196 L 196 200 L 192 196 Z" opacity="1" class="highcharts-point highcharts-color-1"></path><path fill="#434348" d="M 205 194 L 209 198 L 205 202 L 201 198 Z" opacity="1" class="highcharts-point highcharts-color-1"></path><path fill="#434348" d="M 214 195 L 218 199 L 214 203 L 210 199 Z" opacity="1" class="highcharts-point highcharts-color-1"></path><path fill="#434348" d="M 223 196 L 227 200 L 223 204 L 219 200 Z" opacity="1" class="highcharts-point highcharts-color-1"></path><path fill="#434348" d="M 232 199 L 236 203 L 232 207 L 228 203 Z" opacity="1" class="highcharts-point highcharts-color-1"></path><path fill="#434348" d="M 242 203 L 246 207 L 242 211 L 238 207 Z" opacity="1" class="highcharts-point highcharts-color-1"></path><path fill="#434348" d="M 251 204 L 255 208 L 251 212 L 247 208 Z" opacity="1" class="highcharts-point highcharts-color-1"></path><path fill="#434348" d="M 260 205 L 264 209 L 260 213 L 256 209 Z" opacity="1" class="highcharts-point highcharts-color-1"></path><path fill="#434348" d="M 269 209 L 273 213 L 269 217 L 265 213 Z" opacity="1" class="highcharts-point highcharts-color-1"></path><path fill="#434348" d="M 278 213 L 282 217 L 278 221 L 274 217 Z" opacity="1" class="highcharts-point highcharts-color-1"></path><path fill="#434348" d="M 287 215 L 291 219 L 287 223 L 283 219 Z" opacity="1" class="highcharts-point highcharts-color-1"></path><path fill="#434348" d="M 296 215 L 300 219 L 296 223 L 292 219 Z" opacity="1" class="highcharts-point highcharts-color-1"></path><path fill="#434348" d="M 306 218 L 310 222 L 306 226 L 302 222 Z" opacity="1" class="highcharts-point highcharts-color-1"></path><path fill="#434348" d="M 315 220 L 319 224 L 315 228 L 311 224 Z" opacity="1" class="highcharts-point highcharts-color-1"></path><path fill="#434348" d="M 324 223 L 328 227 L 324 231 L 320 227 Z" opacity="1" class="highcharts-point highcharts-color-1"></path><path fill="#434348" d="M 333 225 L 337 229 L 333 233 L 329 229 Z" opacity="1" class="highcharts-point highcharts-color-1"></path><path fill="#434348" d="M 342 228 L 346 232 L 342 236 L 338 232 Z" opacity="1" class="highcharts-point highcharts-color-1"></path><path fill="#434348" d="M 351 231 L 355 235 L 351 239 L 347 235 Z" opacity="1" class="highcharts-point highcharts-color-1"></path><path fill="#434348" d="M 360 233 L 364 237 L 360 241 L 356 237 Z" opacity="1" class="highcharts-point highcharts-color-1"></path><path fill="#434348" d="M 370 236 L 374 240 L 370 244 L 366 240 Z" opacity="1" class="highcharts-point highcharts-color-1"></path><path fill="#434348" d="M 379 240 L 383 244 L 379 248 L 375 244 Z" opacity="1" class="highcharts-point highcharts-color-1"></path><path fill="#434348" d="M 388 242 L 392 246 L 388 250 L 384 246 Z" opacity="1" class="highcharts-point highcharts-color-1"></path><path fill="#434348" d="M 397 245 L 401 249 L 397 253 L 393 249 Z" opacity="1" class="highcharts-point highcharts-color-1"></path><path fill="#434348" d="M 406 249 L 410 253 L 406 257 L 402 253 Z" opacity="1" class="highcharts-point highcharts-color-1"></path><path fill="#434348" d="M 415 253 L 419 257 L 415 261 L 411 257 Z" opacity="1" class="highcharts-point highcharts-color-1"></path></g></g><text x="250" text-anchor="middle" class="highcharts-title" data-z-index="4" style="color:#333333;font-size:18px;fill:#333333;" y="24"></text><text x="250" text-anchor="middle" class="highcharts-subtitle" data-z-index="4" style="color:#666666;fill:#666666;" y="24"></text><text x="10" text-anchor="start" class="highcharts-caption" data-z-index="4" style="color:#666666;fill:#666666;" y="397"></text><g class="highcharts-legend highcharts-no-tooltip" data-z-index="7" transform="translate(299,10)"><rect fill="none" class="highcharts-legend-box" rx="0" ry="0" x="0" y="0" width="191" height="28" visibility="visible"></rect><g data-z-index="1"><g><g class="highcharts-legend-item highcharts-line-series highcharts-color-0 highcharts-series-0" data-z-index="1" transform="translate(8,3)"><path fill="none" d="M 0 13 L 16 13" class="highcharts-graph" stroke="#7cb5ec" stroke-width="2"></path><path fill="#7cb5ec" d="M 8 17 A 4 4 0 1 1 8.003999999333336 16.99999800000017 Z" class="highcharts-point" opacity="1"></path><text x="21" style="color:#333333;cursor:pointer;font-size:14px;font-weight:bold;font-family:Aa般若楷书;fill:#333333;" text-anchor="start" data-z-index="2" y="17">有残差块</text></g><g class="highcharts-legend-item highcharts-line-series highcharts-color-1 highcharts-series-1" data-z-index="1" transform="translate(105.5,3)"><path fill="none" d="M 0 13 L 16 13" class="highcharts-graph" stroke="#434348" stroke-width="2"></path><path fill="#434348" d="M 8 9 L 12 13 L 8 17 L 4 13 Z" class="highcharts-point" opacity="1"></path><text x="21" y="17" style="color:#333333;cursor:pointer;font-size:14px;font-weight:bold;font-family:Aa般若楷书;fill:#333333;" text-anchor="start" data-z-index="2">无残差块</text></g></g></g></g><g class="highcharts-axis-labels highcharts-xaxis-labels" data-z-index="7"><text x="74.117647058824" style="color:#666666;cursor:default;font-size:11px;fill:#666666;" text-anchor="middle" transform="translate(0,0)" y="363" opacity="1">0</text><text x="165.62091503268" style="color:#666666;cursor:default;font-size:11px;fill:#666666;" text-anchor="middle" transform="translate(0,0)" y="363" opacity="1">10</text><text x="257.12418300654" style="color:#666666;cursor:default;font-size:11px;fill:#666666;" text-anchor="middle" transform="translate(0,0)" y="363" opacity="1">20</text><text x="348.62745098039" style="color:#666666;cursor:default;font-size:11px;fill:#666666;" text-anchor="middle" transform="translate(0,0)" y="363" opacity="1">30</text><text x="440.13071895425" style="color:#666666;cursor:default;font-size:11px;fill:#666666;" text-anchor="middle" transform="translate(0,0)" y="363" opacity="1">40</text></g><g class="highcharts-axis-labels highcharts-yaxis-labels" data-z-index="7"><text x="55" style="color:#666666;cursor:default;font-size:11px;fill:#666666;" text-anchor="end" transform="translate(0,0)" y="348" opacity="1">0</text><text x="55" style="color:#666666;cursor:default;font-size:11px;fill:#666666;" text-anchor="end" transform="translate(0,0)" y="289" opacity="1">0.2</text><text x="55" style="color:#666666;cursor:default;font-size:11px;fill:#666666;" text-anchor="end" transform="translate(0,0)" y="230" opacity="1">0.4</text><text x="55" style="color:#666666;cursor:default;font-size:11px;fill:#666666;" text-anchor="end" transform="translate(0,0)" y="172" opacity="1">0.6</text><text x="55" style="color:#666666;cursor:default;font-size:11px;fill:#666666;" text-anchor="end" transform="translate(0,0)" y="113" opacity="1">0.8</text><text x="55" style="color:#666666;cursor:default;font-size:11px;fill:#666666;" text-anchor="end" transform="translate(0,0)" y="54" opacity="1">1</text></g></svg>