<svg xmlns:xlink="http://www.w3.org/1999/xlink" version="1.1" class="highcharts-root" style="font-family:&quot;Lucida Grande&quot;, &quot;Lucida Sans Unicode&quot;, Arial, Helvetica, sans-serif;font-size:12px;" xmlns="http://www.w3.org/2000/svg" width="500" height="400" viewBox="0 0 500 400"><desc>Created with Highcharts 9.3.3</desc><defs><clipPath id="highcharts-qw9xy7q-611-"><rect x="0" y="0" width="416" height="290" fill="none"></rect></clipPath><clipPath id="highcharts-qw9xy7q-813-"><rect x="0" y="0" width="416" height="290" fill="none"></rect></clipPath></defs><rect fill="#ffffff" class="highcharts-background" x="0" y="0" width="500" height="400" rx="0" ry="0"></rect><rect fill="none" class="highcharts-plot-background" x="74" y="50" width="416" height="290"></rect><g class="highcharts-grid highcharts-xaxis-grid" data-z-index="1"><path fill="none" stroke-dasharray="none" data-z-index="1" class="highcharts-grid-line" d="M 77.5 50 L 77.5 340" opacity="1"></path><path fill="none" stroke-dasharray="none" data-z-index="1" class="highcharts-grid-line" d="M 179.5 50 L 179.5 340" opacity="1"></path><path fill="none" stroke-dasharray="none" data-z-index="1" class="highcharts-grid-line" d="M 281.5 50 L 281.5 340" opacity="1"></path><path fill="none" stroke-dasharray="none" data-z-index="1" class="highcharts-grid-line" d="M 383.5 50 L 383.5 340" opacity="1"></path><path fill="none" stroke-dasharray="none" data-z-index="1" class="highcharts-grid-line" d="M 485.5 50 L 485.5 340" opacity="1"></path></g><g class="highcharts-grid highcharts-yaxis-grid" data-z-index="1"><path fill="none" stroke="#e6e6e6" stroke-width="1" stroke-dasharray="none" data-z-index="1" class="highcharts-grid-line" d="M 74 340.5 L 490 340.5" opacity="1"></path><path fill="none" stroke="#e6e6e6" stroke-width="1" stroke-dasharray="none" data-z-index="1" class="highcharts-grid-line" d="M 74 299.5 L 490 299.5" opacity="1"></path><path fill="none" stroke="#e6e6e6" stroke-width="1" stroke-dasharray="none" data-z-index="1" class="highcharts-grid-line" d="M 74 257.5 L 490 257.5" opacity="1"></path><path fill="none" stroke="#e6e6e6" stroke-width="1" stroke-dasharray="none" data-z-index="1" class="highcharts-grid-line" d="M 74 216.5 L 490 216.5" opacity="1"></path><path fill="none" stroke="#e6e6e6" stroke-width="1" stroke-dasharray="none" data-z-index="1" class="highcharts-grid-line" d="M 74 174.5 L 490 174.5" opacity="1"></path><path fill="none" stroke="#e6e6e6" stroke-width="1" stroke-dasharray="none" data-z-index="1" class="highcharts-grid-line" d="M 74 133.5 L 490 133.5" opacity="1"></path><path fill="none" stroke="#e6e6e6" stroke-width="1" stroke-dasharray="none" data-z-index="1" class="highcharts-grid-line" d="M 74 91.5 L 490 91.5" opacity="1"></path><path fill="none" stroke="#e6e6e6" stroke-width="1" stroke-dasharray="none" data-z-index="1" class="highcharts-grid-line" d="M 74 49.5 L 490 49.5" opacity="1"></path></g><rect fill="none" class="highcharts-plot-border" data-z-index="1" x="74" y="50" width="416" height="290"></rect><g class="highcharts-axis highcharts-xaxis" data-z-index="2"><path fill="none" class="highcharts-tick" stroke="#ccd6eb" stroke-width="1" d="M 77.5 340 L 77.5 350" opacity="1"></path><path fill="none" class="highcharts-tick" stroke="#ccd6eb" stroke-width="1" d="M 179.5 340 L 179.5 350" opacity="1"></path><path fill="none" class="highcharts-tick" stroke="#ccd6eb" stroke-width="1" d="M 281.5 340 L 281.5 350" opacity="1"></path><path fill="none" class="highcharts-tick" stroke="#ccd6eb" stroke-width="1" d="M 383.5 340 L 383.5 350" opacity="1"></path><path fill="none" class="highcharts-tick" stroke="#ccd6eb" stroke-width="1" d="M 485.5 340 L 485.5 350" opacity="1"></path><text x="282" data-z-index="7" text-anchor="middle" transform="translate(0,0)" class="highcharts-axis-title" style="color:#666666;fill:#666666;" y="379">epoch</text><path fill="none" class="highcharts-axis-line" stroke="#ccd6eb" stroke-width="1" data-z-index="7" d="M 74 340.5 L 490 340.5"></path></g><g class="highcharts-axis highcharts-yaxis" data-z-index="2"><text x="26.21875" data-z-index="7" text-anchor="middle" transform="translate(0,0) rotate(270 26.21875 195)" class="highcharts-axis-title" style="color:#666666;fill:#666666;" y="195">losses</text><path fill="none" class="highcharts-axis-line" data-z-index="7" d="M 74 50 L 74 340"></path></g><g class="highcharts-series-group" data-z-index="3"><g class="highcharts-series highcharts-series-0 highcharts-line-series highcharts-color-0" data-z-index="0.1" opacity="1" transform="translate(74,50) scale(1 1)" clip-path="url(#highcharts-qw9xy7q-813-)"><path fill="none" d="M 4.078431372549 158.84866 L 6.1176470588235 160.13319428571427 L 8.156862745098 161.64301714285713 L 10.196078431373 164.9910257142857 L 12.235294117647 166.17360428571425 L 14.274509803922 167.37859571428572 L 16.313725490196 168.56030428571427 L 18.352941176471 173.8441457142857 L 20.392156862745 174.61811428571428 L 22.43137254902 176.99039714285715 L 24.470588235294 177.15793428571428 L 26.509803921569 179.77704857142857 L 28.549019607843 182.87052 L 30.588235294118 186.06089285714285 L 32.627450980392 190.18547999999998 L 34.666666666667 185.71579285714284 L 36.705882352941 191.31105285714284 L 38.745098039216 192.0845657142857 L 40.78431372549 191.86263285714284 L 42.823529411765 196.05777285714285 L 44.862745098039 190.62855857142858 L 46.901960784314 197.70352285714284 L 48.941176470588 199.61429142857145 L 50.980392156863 202.34617428571426 L 53.019607843137 205.68863142857143 L 55.058823529412 206.39005857142854 L 57.098039215686 206.70876857142858 L 59.137254901961 208.53891714285714 L 61.176470588235 210.25343857142855 L 63.21568627451 214.64801571428572 L 65.254901960784 215.10078857142855 L 67.294117647059 215.2638514285714 L 69.333333333333 217.1655057142857 L 71.372549019608 219.15329 L 73.411764705882 222.21287285714286 L 75.450980392157 223.89677857142857 L 77.490196078431 221.57561857142855 L 79.529411764706 226.8612 L 81.56862745098 227.36157428571428 L 83.607843137255 229.01527857142855 L 85.647058823529 228.72121857142855 L 87.686274509804 232.8854942857143 L 89.725490196078 237.06079 L 91.764705882353 245.72441571428573 L 93.803921568627 240.54671428571427 L 95.843137254902 235.55237571428572 L 97.882352941176 234.09620285714286 L 99.921568627451 258.25738714285717 L 101.96078431373 255.13081428571428 L 104 254.62198857142857 L 106.03921568627 256.0632885714286 L 108.07843137255 257.6364142857143 L 110.11764705882 262.01094 L 112.1568627451 267.80373142857144 L 114.19607843137 261.7847814285714 L 116.23529411765 261.89465 L 118.27450980392 230.3244214285714 L 120.3137254902 189.51769285714283 L 122.35294117647 198.67460857142856 L 124.39215686275 194.07674142857144 L 126.43137254902 174.20378714285712 L 128.47058823529 164.35356428571427 L 130.50980392157 166.57243714285713 L 132.54901960784 165.36815 L 134.58823529412 164.8570457142857 L 136.62745098039 165.07566428571425 L 138.66666666667 162.31453285714284 L 140.70588235294 164.8761857142857 L 142.74509803922 165.67509428571427 L 144.78431372549 169.1812357142857 L 146.82352941176 167.14025714285714 L 148.86274509804 164.71063714285714 L 150.90196078431 160.64334571428572 L 152.94117647059 166.30021 L 154.98039215686 165.6770414285714 L 157.01960784314 163.7286142857143 L 159.05882352941 162.09160571428572 L 161.09803921569 160.98894285714286 L 163.13725490196 161.50642714285712 L 165.17647058824 166.80862142857143 L 167.21568627451 170.21761285714285 L 169.25490196078 166.08573428571427 L 171.29411764706 172.54685142857141 L 173.33333333333 172.02153714285714 L 175.37254901961 170.25506428571427 L 177.41176470588 162.85757857142858 L 179.45098039216 166.50544714285712 L 181.49019607843 169.53201142857142 L 183.52941176471 172.31319428571427 L 185.56862745098 170.4108357142857 L 187.60784313725 160.24500999999998 L 189.64705882353 164.24009142857142 L 191.6862745098 163.99151999999998 L 193.72549019608 164.2384757142857 L 195.76470588235 164.57143714285712 L 197.80392156863 163.32663285714284 L 199.8431372549 164.0515914285714 L 201.88235294118 164.55855285714284 L 203.92156862745 160.66716714285712 L 205.96078431373 160.92361 L 208 161.53725 L 210.03921568627 167.81657857142855 L 212.07843137255 160.59959714285714 L 214.11764705882 161.65034999999997 L 216.1568627451 167.13607285714284 L 218.19607843137 164.56033428571428 L 220.23529411765 163.7241814285714 L 222.27450980392 162.7298957142857 L 224.3137254902 159.4195457142857 L 226.35294117647 161.33491285714285 L 228.39215686275 161.26411142857143 L 230.43137254902 164.95659857142857 L 232.47058823529 169.32196857142856 L 234.50980392157 164.07458428571425 L 236.54901960784 168.19602285714285 L 238.58823529412 160.96574285714286 L 240.62745098039 162.74427142857144 L 242.66666666667 163.19874285714286 L 244.70588235294 162.66758714285714 L 246.74509803922 162.4534842857143 L 248.78431372549 162.46926857142856 L 250.82352941176 161.06968714285713 L 252.86274509804 164.63266857142855 L 254.90196078431 164.6768314285714 L 256.94117647059 163.98000285714284 L 258.98039215686 165.45055142857143 L 261.01960784314 162.2724 L 263.05882352941 165.09327142857143 L 265.09803921569 162.8930414285714 L 267.13725490196 164.0321614285714 L 269.17647058824 165.42639857142856 L 271.21568627451 163.35302285714283 L 273.25490196078 164.9040257142857 L 275.29411764706 168.61246285714284 L 277.33333333333 167.63926428571426 L 279.37254901961 163.87837857142858 L 281.41176470588 168.31637285714285 L 283.45098039216 167.13739857142855 L 285.49019607843 166.51344285714285 L 287.52941176471 166.38298428571426 L 289.56862745098 165.7753514285714 L 291.60784313725 165.15417142857143 L 293.64705882353 161.64852714285712 L 295.6862745098 163.57143428571428 L 297.72549019608 164.01587999999998 L 299.76470588235 164.59045285714285 L 301.80392156863 168.1004057142857 L 303.8431372549 162.44051714285712 L 305.88235294118 166.4658 L 307.92156862745 164.61166428571426 L 309.96078431373 164.40443857142856 L 312 165.75380857142858 L 314.03921568627 165.65491857142854 L 316.07843137255 165.5952614285714 L 318.11764705882 161.23188 L 320.1568627451 164.29854714285713 L 322.19607843137 166.41712142857142 L 324.23529411765 164.42129999999997 L 326.27450980392 165.56211857142858 L 328.3137254902 164.30061857142857 L 330.35294117647 169.31136285714285 L 332.39215686275 164.39490999999998 L 334.43137254902 161.96674 L 336.47058823529 167.85050857142858 L 338.50980392157 163.28773142857142 L 340.54901960784 166.55056285714284 L 342.58823529412 169.09502285714285 L 344.62745098039 164.14049714285713 L 346.66666666667 166.79258857142855 L 348.70588235294 166.23728 L 350.74509803922 164.76756 L 352.78431372549 160.43823285714285 L 354.82352941176 164.94789857142857 L 356.86274509804 162.25570428571427 L 358.90196078431 161.32260857142856 L 360.94117647059 165.37506857142856 L 362.98039215686 166.41061714285712 L 365.01960784314 169.01112999999998 L 367.05882352941 167.73496428571428 L 369.09803921569 163.86081285714283 L 371.13725490196 165.17977428571427 L 373.17647058824 168.91306857142857 L 375.21568627451 165.40585 L 377.25490196078 165.40974428571428 L 379.29411764706 165.69468999999998 L 381.33333333333 166.93278285714285 L 383.37254901961 164.7986314285714 L 385.41176470588 167.67655 L 387.45098039216 169.70327714285713 L 389.49019607843 167.48974857142855 L 391.52941176471 168.14121285714285 L 393.56862745098 166.1953957142857 L 395.60784313725 166.02881142857143 L 397.64705882353 164.88716428571428 L 399.6862745098 164.23507857142857 L 401.72549019608 166.98800714285713 L 403.76470588235 164.44835285714285 L 405.80392156863 168.83717142857142 L 407.8431372549 169.18069714285713 L 409.88235294118 165.80692 L 411.92156862745 167.36202428571426" class="highcharts-graph" data-z-index="1" stroke="#7cb5ec" stroke-width="2" stroke-linejoin="round" stroke-linecap="round"></path></g><g class="highcharts-markers highcharts-series-0 highcharts-line-series highcharts-color-0" data-z-index="0.1" opacity="1" transform="translate(74,50) scale(1 1)" clip-path="none"></g><g class="highcharts-series highcharts-series-1 highcharts-line-series highcharts-color-1" data-z-index="0.1" opacity="1" transform="translate(74,50) scale(1 1)" clip-path="url(#highcharts-qw9xy7q-813-)"><path fill="none" d="M 4.078431372549 154.1728657142857 L 6.1176470588235 149.44060428571427 L 8.156862745098 152.0342814285714 L 10.196078431373 154.80945714285713 L 12.235294117647 154.73931857142856 L 14.274509803922 155.02148857142856 L 16.313725490196 153.04915714285713 L 18.352941176471 153.2268442857143 L 20.392156862745 152.06551857142856 L 22.43137254902 151.8563457142857 L 24.470588235294 153.09940999999998 L 26.509803921569 152.74917285714287 L 28.549019607843 146.9405557142857 L 30.588235294118 143.9683457142857 L 32.627450980392 141.8739657142857 L 34.666666666667 145.18551714285715 L 36.705882352941 145.8873171428571 L 38.745098039216 145.06976571428572 L 40.78431372549 145.52432 L 42.823529411765 143.12531571428568 L 44.862745098039 143.58649857142856 L 46.901960784314 143.03988999999999 L 48.941176470588 140.08628142857143 L 50.980392156863 138.86960714285712 L 53.019607843137 138.98394999999996 L 55.058823529412 138.7596557142857 L 57.098039215686 138.19075857142855 L 59.137254901961 138.0865657142857 L 61.176470588235 138.0955557142857 L 63.21568627451 135.16709428571426 L 65.254901960784 133.2154771428571 L 67.294117647059 133.53600999999998 L 69.333333333333 132.63133428571427 L 71.372549019608 131.8829271428571 L 73.411764705882 131.9952814285714 L 75.450980392157 129.58881999999997 L 77.490196078431 130.67093428571428 L 79.529411764706 128.76128428571425 L 81.56862745098 129.23502 L 83.607843137255 128.73994857142856 L 85.647058823529 128.0229857142857 L 87.686274509804 126.96949857142855 L 89.725490196078 126.07169999999999 L 91.764705882353 118.03696 L 93.803921568627 119.72873714285714 L 95.843137254902 120.87958142857141 L 97.882352941176 122.03539714285714 L 99.921568627451 108.85870857142856 L 101.96078431373 112.17378142857143 L 104 114.19835428571426 L 106.03921568627 116.38657 L 108.07843137255 106.5687857142857 L 110.11764705882 101.8660214285714 L 112.1568627451 105.68084714285712 L 114.19607843137 108.54546714285715 L 116.23529411765 98.2269357142857 L 118.27450980392 138.72866714285712 L 120.3137254902 122.05946714285716 L 122.35294117647 145.65258285714285 L 124.39215686275 137.31383999999997 L 126.43137254902 161.14003285714284 L 128.47058823529 171.15886999999998 L 130.50980392157 165.07367571428568 L 132.54901960784 176.68320428571428 L 134.58823529412 166.69473428571428 L 136.62745098039 163.07350428571428 L 138.66666666667 160.47112714285714 L 140.70588235294 150.23354714285713 L 142.74509803922 146.58683857142856 L 144.78431372549 159.42932285714284 L 146.82352941176 156.58782 L 148.86274509804 142.88142571428568 L 150.90196078431 155.59833999999998 L 152.94117647059 153.07165285714285 L 154.98039215686 149.54546 L 157.01960784314 150.51157428571426 L 159.05882352941 155.83348857142857 L 161.09803921569 150.36640857142856 L 163.13725490196 164.77249 L 165.17647058824 163.86810428571425 L 167.21568627451 162.2548757142857 L 169.25490196078 141.28170285714285 L 171.29411764706 142.16396571428572 L 173.33333333333 161.09355 L 175.37254901961 171.95632857142857 L 177.41176470588 169.04713142857142 L 179.45098039216 168.23289428571428 L 181.49019607843 147.48911142857142 L 183.52941176471 171.0183857142857 L 185.56862745098 155.59013714285715 L 187.60784313725 176.90778857142857 L 189.64705882353 182.6408814285714 L 191.6862745098 181.54903142857142 L 193.72549019608 173.8131157142857 L 195.76470588235 166.14990714285713 L 197.80392156863 165.18706571428572 L 199.8431372549 176.57200999999998 L 201.88235294118 174.87211285714284 L 203.92156862745 182.1732357142857 L 205.96078431373 187.3159714285714 L 208 178.56472428571428 L 210.03921568627 182.03610714285713 L 212.07843137255 180.80928285714285 L 214.11764705882 188.61869285714283 L 216.1568627451 175.42145571428568 L 218.19607843137 178.83015714285713 L 220.23529411765 176.41462285714283 L 222.27450980392 180.46070285714285 L 224.3137254902 182.5137785714286 L 226.35294117647 181.54103571428573 L 228.39215686275 180.46584 L 230.43137254902 173.56868714285713 L 232.47058823529 177.67728285714284 L 234.50980392157 179.86554 L 236.54901960784 182.51295 L 238.58823529412 182.12795428571428 L 240.62745098039 170.89670999999998 L 242.66666666667 176.42754857142856 L 244.70588235294 181.98017857142855 L 246.74509803922 181.43841714285713 L 248.78431372549 170.82466571428571 L 250.82352941176 186.0287857142857 L 252.86274509804 179.7499542857143 L 254.90196078431 178.88040999999998 L 256.94117647059 173.1626457142857 L 258.98039215686 171.61843714285715 L 261.01960784314 185.91982857142858 L 263.05882352941 172.59834714285714 L 265.09803921569 178.98025285714283 L 267.13725490196 175.06372 L 269.17647058824 181.64212142857144 L 271.21568627451 178.96422 L 273.25490196078 177.68904857142857 L 275.29411764706 171.5408 L 277.33333333333 167.64692857142856 L 279.37254901961 178.86922428571427 L 281.41176470588 178.34341285714285 L 283.45098039216 181.92052142857142 L 285.49019607843 177.74166285714284 L 287.52941176471 169.61130571428572 L 289.56862745098 181.05126714285714 L 291.60784313725 174.50439285714285 L 293.64705882353 179.68081 L 295.6862745098 179.18416428571427 L 297.72549019608 172.38329142857143 L 299.76470588235 180.10276 L 301.80392156863 178.39080714285714 L 303.8431372549 184.98955 L 305.88235294118 173.97800142857142 L 307.92156862745 172.47720999999999 L 309.96078431373 183.50756714285714 L 312 177.95472999999998 L 314.03921568627 171.66860714285713 L 316.07843137255 185.7179057142857 L 318.11764705882 182.42102 L 320.1568627451 186.13119714285713 L 322.19607843137 184.64552714285713 L 324.23529411765 183.64018 L 326.27450980392 181.15454857142856 L 328.3137254902 184.67618428571427 L 330.35294117647 189.33851428571427 L 332.39215686275 183.98586 L 334.43137254902 182.3173657142857 L 336.47058823529 186.97547 L 338.50980392157 182.94393142857143 L 340.54901960784 187.61620428571428 L 342.58823529412 184.91145714285713 L 344.62745098039 181.77141999999998 L 346.66666666667 185.47422285714285 L 348.70588235294 183.7586657142857 L 350.74509803922 181.69394857142856 L 352.78431372549 185.0033457142857 L 354.82352941176 191.01152428571427 L 356.86274509804 174.39676142857144 L 358.90196078431 179.41148285714286 L 360.94117647059 186.42488428571428 L 362.98039215686 176.6233814285714 L 365.01960784314 176.63813 L 367.05882352941 185.76807571428571 L 369.09803921569 183.32217428571428 L 371.13725490196 180.9410257142857 L 373.17647058824 182.32449142857143 L 375.21568627451 179.73466714285712 L 377.25490196078 177.2293985714286 L 379.29411764706 182.25161857142854 L 381.33333333333 183.27610571428573 L 383.37254901961 181.37975428571428 L 385.41176470588 176.71937142857143 L 387.45098039216 185.8156357142857 L 389.49019607843 189.48040714285713 L 391.52941176471 178.93157428571428 L 393.56862745098 183.08727428571427 L 395.60784313725 182.25692142857142 L 397.64705882353 187.6872542857143 L 399.6862745098 188.76957571428568 L 401.72549019608 184.53313142857144 L 403.76470588235 174.65229285714287 L 405.80392156863 184.3656357142857 L 407.8431372549 183.65455571428572 L 409.88235294118 187.68054285714283 L 411.92156862745 186.16289" class="highcharts-graph" data-z-index="1" stroke="#434348" stroke-width="2" stroke-linejoin="round" stroke-linecap="round"></path></g><g class="highcharts-markers highcharts-series-1 highcharts-line-series highcharts-color-1" data-z-index="0.1" opacity="1" transform="translate(74,50) scale(1 1)" clip-path="none"></g><g class="highcharts-series highcharts-series-2 highcharts-line-series highcharts-color-2" data-z-index="0.1" opacity="1" transform="translate(74,50) scale(1 1)" clip-path="url(#highcharts-qw9xy7q-813-)"><path fill="none" d="M 4.078431372549 151.72663285714285 L 6.1176470588235 149.70375857142855 L 8.156862745098 148.9577957142857 L 10.196078431373 147.35330857142856 L 12.235294117647 145.83105714285713 L 14.274509803922 144.26120428571426 L 16.313725490196 142.84790999999998 L 18.352941176471 140.04344428571426 L 20.392156862745 138.17439428571427 L 22.43137254902 135.67678999999998 L 24.470588235294 136.15508285714284 L 26.509803921569 134.00630714285714 L 28.549019607843 130.55290428571428 L 30.588235294118 126.5013557142857 L 32.627450980392 122.69253714285713 L 34.666666666667 125.22924999999998 L 36.705882352941 121.45937428571426 L 38.745098039216 120.77045857142858 L 40.78431372549 119.70814714285714 L 42.823529411765 116.44494285714285 L 44.862745098039 120.4399 L 46.901960784314 114.75490571428571 L 48.941176470588 112.54373857142855 L 50.980392156863 109.0848257142857 L 53.019607843137 106.36139428571425 L 55.058823529412 104.60022428571426 L 57.098039215686 104.62715285714285 L 59.137254901961 103.31531714285714 L 61.176470588235 100.97518285714284 L 63.21568627451 96.63699 L 65.254901960784 95.9988657142857 L 67.294117647059 96.52583714285714 L 69.333333333333 94.52280714285712 L 71.372549019608 92.57127285714284 L 73.411764705882 89.26498285714285 L 75.450980392157 88.24828428571428 L 77.490196078431 87.65316285714283 L 79.529411764706 83.24905714285711 L 81.56862745098 83.38564714285712 L 83.607843137255 81.02405285714283 L 85.647058823529 80.61718285714286 L 87.686274509804 77.79423999999997 L 89.725490196078 74.85774142857139 L 91.764705882353 65.95026714285711 L 93.803921568627 70.78920714285715 L 95.843137254902 72.90662142857141 L 97.882352941176 77.8007857142857 L 99.921568627451 52.12418571428569 L 101.96078431373 54.14788857142855 L 104 55.995395714285706 L 106.03921568627 53.16694285714283 L 108.07843137255 52.228585714285686 L 110.11764705882 44.33055999999996 L 112.1568627451 41.28526999999997 L 114.19607843137 43.40885714285713 L 116.23529411765 41.38730857142855 L 118.27450980392 78.50026571428569 L 120.3137254902 93.66332999999997 L 122.35294117647 109.94952285714285 L 124.39215686275 107.51894999999996 L 126.43137254902 134.45572428571427 L 128.47058823529 148.53340142857144 L 130.50980392157 147.52453285714284 L 132.54901960784 147.5242842857143 L 134.58823529412 149.04558285714285 L 136.62745098039 147.33093714285712 L 138.66666666667 149.57648999999998 L 140.70588235294 147.63953857142855 L 142.74509803922 147.0959957142857 L 144.78431372549 145.48181428571428 L 146.82352941176 147.18821571428572 L 148.86274509804 149.08050714285713 L 150.90196078431 152.57620857142854 L 152.94117647059 145.0703042857143 L 154.98039215686 147.14351428571428 L 157.01960784314 148.79319999999998 L 159.05882352941 151.1306414285714 L 161.09803921569 153.3324457142857 L 163.13725490196 152.18089714285713 L 165.17647058824 143.6925557142857 L 167.21568627451 143.18083 L 169.25490196078 147.43508857142857 L 171.29411764706 141.1332642857143 L 173.33333333333 140.24930285714282 L 175.37254901961 143.52104142857144 L 177.41176470588 150.7470957142857 L 179.45098039216 148.08862428571427 L 181.49019607843 141.7976957142857 L 183.52941176471 141.74590999999998 L 185.56862745098 141.90081142857142 L 187.60784313725 152.76860285714284 L 189.64705882353 151.1523914285714 L 191.6862745098 148.5604542857143 L 193.72549019608 148.93956714285713 L 195.76470588235 149.67231428571426 L 197.80392156863 150.85659142857142 L 199.8431372549 150.8060071428571 L 201.88235294118 150.68420714285713 L 203.92156862745 154.38767285714286 L 205.96078431373 154.00499714285712 L 208 153.19088428571428 L 210.03921568627 148.87551857142856 L 212.07843137255 153.51605714285714 L 214.11764705882 154.16196999999997 L 216.1568627451 149.39263 L 218.19607843137 151.39880857142856 L 220.23529411765 150.84880285714286 L 222.27450980392 152.4958371428571 L 224.3137254902 156.88751428571427 L 226.35294117647 153.47711428571426 L 228.39215686275 155.07998571428573 L 230.43137254902 148.4929257142857 L 232.47058823529 146.6482357142857 L 234.50980392157 152.08759999999998 L 236.54901960784 145.51508142857142 L 238.58823529412 154.6721214285714 L 240.62745098039 152.74991857142854 L 242.66666666667 151.56957714285713 L 244.70588235294 152.11084142857143 L 246.74509803922 151.47955285714286 L 248.78431372549 152.51216 L 250.82352941176 152.81036285714285 L 252.86274509804 149.06062142857144 L 254.90196078431 151.2739014285714 L 256.94117647059 149.39561285714285 L 258.98039215686 149.10644142857143 L 261.01960784314 152.07430142857143 L 263.05882352941 149.33848285714285 L 265.09803921569 151.78227142857142 L 267.13725490196 150.20521 L 269.17647058824 149.97631714285714 L 271.21568627451 151.4416457142857 L 273.25490196078 150.46836428571427 L 275.29411764706 147.34924857142855 L 277.33333333333 146.81597999999997 L 279.37254901961 151.62562999999997 L 281.41176470588 146.18357285714285 L 283.45098039216 148.52822285714285 L 285.49019607843 149.0190271428571 L 287.52941176471 148.39888285714284 L 289.56862745098 149.91810999999998 L 291.60784313725 149.77066571428568 L 293.64705882353 149.2505714285714 L 295.6862745098 153.70919714285714 L 297.72549019608 151.37751428571428 L 299.76470588235 151.04795 L 301.80392156863 151.42022714285713 L 303.8431372549 147.42899857142854 L 305.88235294118 151.24282999999997 L 307.92156862745 147.2670542857143 L 309.96078431373 150.2036357142857 L 312 152.64377857142856 L 314.03921568627 149.0902842857143 L 316.07843137255 150.88488714285714 L 318.11764705882 147.37286285714285 L 320.1568627451 153.87540857142855 L 322.19607843137 151.67314857142856 L 324.23529411765 149.19464285714287 L 326.27450980392 150.32941285714287 L 328.3137254902 151.16560714285714 L 330.35294117647 151.08167285714285 L 332.39215686275 146.65958714285713 L 334.43137254902 150.37411428571428 L 336.47058823529 152.9998571428571 L 338.50980392157 146.87837142857143 L 340.54901960784 151.74486142857143 L 342.58823529412 149.61166285714285 L 344.62745098039 146.84212142857143 L 346.66666666667 151.30049857142853 L 348.70588235294 149.73404285714284 L 350.74509803922 148.3673557142857 L 352.78431372549 151.31222285714284 L 354.82352941176 154.30166714285713 L 356.86274509804 149.59707999999998 L 358.90196078431 153.53262857142857 L 360.94117647059 153.32917285714282 L 362.98039215686 149.77687999999998 L 365.01960784314 148.8142457142857 L 367.05882352941 147.0400671428571 L 369.09803921569 149.03949285714285 L 371.13725490196 151.0320414285714 L 373.17647058824 151.0039942857143 L 375.21568627451 148.05436285714285 L 377.25490196078 151.12397142857142 L 379.29411764706 149.82762999999997 L 381.33333333333 150.39839142857141 L 383.37254901961 149.72662714285713 L 385.41176470588 151.93630285714286 L 387.45098039216 149.81151428571428 L 389.49019607843 145.97340571428572 L 391.52941176471 148.4495914285714 L 393.56862745098 148.51446857142855 L 395.60784313725 149.65880857142858 L 397.64705882353 148.85766285714283 L 399.6862745098 150.07214142857143 L 401.72549019608 151.1072757142857 L 403.76470588235 149.42009714285714 L 405.80392156863 150.70541857142857 L 407.8431372549 147.5394057142857 L 409.88235294118 146.13646857142857 L 411.92156862745 149.79838142857142" class="highcharts-graph" data-z-index="1" stroke="#90ed7d" stroke-width="2" stroke-linejoin="round" stroke-linecap="round"></path></g><g class="highcharts-markers highcharts-series-2 highcharts-line-series highcharts-color-2" data-z-index="0.1" opacity="1" transform="translate(74,50) scale(1 1)" clip-path="none"></g></g><text x="250" text-anchor="middle" class="highcharts-title" data-z-index="4" style="color:#333333;font-size:18px;font-family:Merriweather Sans;fill:#333333;" y="24"></text><text x="250" text-anchor="middle" class="highcharts-subtitle" data-z-index="4" style="color:#666666;fill:#666666;" y="24"></text><text x="10" text-anchor="start" class="highcharts-caption" data-z-index="4" style="color:#666666;fill:#666666;" y="397"></text><g class="highcharts-legend highcharts-no-tooltip" data-z-index="7" transform="translate(123,10)"><rect fill="none" class="highcharts-legend-box" rx="0" ry="0" x="0" y="0" width="367" height="28" visibility="visible"></rect><g data-z-index="1"><g><g class="highcharts-legend-item highcharts-line-series highcharts-color-0 highcharts-series-0" data-z-index="1" transform="translate(8,3)"><path fill="none" d="M 0 13 L 16 13" class="highcharts-graph" stroke="#7cb5ec" stroke-width="2"></path><path fill="#7cb5ec" d="M 8 17 A 4 4 0 1 1 8.003999999333336 16.99999800000017 Z" class="highcharts-point" opacity="1"></path><text x="21" style="color:#333333;cursor:pointer;font-size:14px;font-weight:bold;font-family:Aa般若楷书;fill:#333333;" text-anchor="start" data-z-index="2" y="17">判别器损失</text></g><g class="highcharts-legend-item highcharts-line-series highcharts-color-1 highcharts-series-1" data-z-index="1" transform="translate(120,3)"><path fill="none" d="M 0 13 L 16 13" class="highcharts-graph" stroke="#434348" stroke-width="2"></path><path fill="#434348" d="M 8 9 L 12 13 L 8 17 L 4 13 Z" class="highcharts-point" opacity="1"></path><text x="21" y="17" style="color:#333333;cursor:pointer;font-size:14px;font-weight:bold;font-family:Aa般若楷书;fill:#333333;" text-anchor="start" data-z-index="2">生成器损失</text></g><g class="highcharts-legend-item highcharts-line-series highcharts-color-2 highcharts-series-2" data-z-index="1" transform="translate(231.5,3)"><path fill="none" d="M 0 13 L 16 13" class="highcharts-graph" stroke="#90ed7d" stroke-width="2"></path><path fill="#90ed7d" d="M 4 9 L 12 9 L 12 17 L 4 17 Z" class="highcharts-point" opacity="1"></path><text x="21" y="17" style="color:#333333;cursor:pointer;font-size:14px;font-weight:bold;font-family:Aa般若楷书;fill:#333333;" text-anchor="start" data-z-index="2">Wasserstein 距离</text></g></g></g></g><g class="highcharts-axis-labels highcharts-xaxis-labels" data-z-index="7"><text x="78.078431372549" style="color:#666666;cursor:default;font-size:11px;fill:#666666;" text-anchor="middle" transform="translate(0,0)" y="359" opacity="1">0</text><text x="180.03921568627" style="color:#666666;cursor:default;font-size:11px;fill:#666666;" text-anchor="middle" transform="translate(0,0)" y="359" opacity="1">50</text><text x="282" style="color:#666666;cursor:default;font-size:11px;fill:#666666;" text-anchor="middle" transform="translate(0,0)" y="359" opacity="1">100</text><text x="383.96078431373" style="color:#666666;cursor:default;font-size:11px;fill:#666666;" text-anchor="middle" transform="translate(0,0)" y="359" opacity="1">150</text><text x="479.56640625" style="color:#666666;cursor:default;font-size:11px;fill:#666666;" text-anchor="middle" transform="translate(0,0)" y="359" opacity="1">200</text></g><g class="highcharts-axis-labels highcharts-yaxis-labels" data-z-index="7"><text x="59" style="color:#666666;cursor:default;font-size:11px;fill:#666666;" text-anchor="end" transform="translate(0,0)" y="344" opacity="1">-30</text><text x="59" style="color:#666666;cursor:default;font-size:11px;fill:#666666;" text-anchor="end" transform="translate(0,0)" y="303" opacity="1">-20</text><text x="59" style="color:#666666;cursor:default;font-size:11px;fill:#666666;" text-anchor="end" transform="translate(0,0)" y="261" opacity="1">-10</text><text x="59" style="color:#666666;cursor:default;font-size:11px;fill:#666666;" text-anchor="end" transform="translate(0,0)" y="220" opacity="1">0</text><text x="59" style="color:#666666;cursor:default;font-size:11px;fill:#666666;" text-anchor="end" transform="translate(0,0)" y="178" opacity="1">10</text><text x="59" style="color:#666666;cursor:default;font-size:11px;fill:#666666;" text-anchor="end" transform="translate(0,0)" y="137" opacity="1">20</text><text x="59" style="color:#666666;cursor:default;font-size:11px;fill:#666666;" text-anchor="end" transform="translate(0,0)" y="95" opacity="1">30</text><text x="59" style="color:#666666;cursor:default;font-size:11px;fill:#666666;" text-anchor="end" transform="translate(0,0)" y="54" opacity="1">40</text></g></svg>