<svg xmlns:xlink="http://www.w3.org/1999/xlink" version="1.1" class="highcharts-root" style="font-family:&quot;Lucida Grande&quot;, &quot;Lucida Sans Unicode&quot;, Arial, Helvetica, sans-serif;font-size:12px;" xmlns="http://www.w3.org/2000/svg" width="500" height="400" viewBox="0 0 500 400"><desc>Created with Highcharts 9.3.3</desc><defs><clipPath id="highcharts-7my1reh-417-"><rect x="0" y="0" width="426" height="292" fill="none"></rect></clipPath><clipPath id="highcharts-7my1reh-519-"><rect x="0" y="0" width="426" height="292" fill="none"></rect></clipPath></defs><rect fill="#ffffff" class="highcharts-background" x="0" y="0" width="500" height="400" rx="0" ry="0"></rect><rect fill="none" class="highcharts-plot-background" x="64" y="48" width="426" height="292"></rect><g class="highcharts-grid highcharts-xaxis-grid" data-z-index="1"><path fill="none" stroke-dasharray="none" data-z-index="1" class="highcharts-grid-line" d="M 67.5 48 L 67.5 340" opacity="1"></path><path fill="none" stroke-dasharray="none" data-z-index="1" class="highcharts-grid-line" d="M 172.5 48 L 172.5 340" opacity="1"></path><path fill="none" stroke-dasharray="none" data-z-index="1" class="highcharts-grid-line" d="M 276.5 48 L 276.5 340" opacity="1"></path><path fill="none" stroke-dasharray="none" data-z-index="1" class="highcharts-grid-line" d="M 380.5 48 L 380.5 340" opacity="1"></path><path fill="none" stroke-dasharray="none" data-z-index="1" class="highcharts-grid-line" d="M 485.5 48 L 485.5 340" opacity="1"></path></g><g class="highcharts-grid highcharts-yaxis-grid" data-z-index="1"><path fill="none" stroke="#e6e6e6" stroke-width="1" stroke-dasharray="none" data-z-index="1" class="highcharts-grid-line" d="M 64 340.5 L 490 340.5" opacity="1"></path><path fill="none" stroke="#e6e6e6" stroke-width="1" stroke-dasharray="none" data-z-index="1" class="highcharts-grid-line" d="M 64 291.5 L 490 291.5" opacity="1"></path><path fill="none" stroke="#e6e6e6" stroke-width="1" stroke-dasharray="none" data-z-index="1" class="highcharts-grid-line" d="M 64 243.5 L 490 243.5" opacity="1"></path><path fill="none" stroke="#e6e6e6" stroke-width="1" stroke-dasharray="none" data-z-index="1" class="highcharts-grid-line" d="M 64 194.5 L 490 194.5" opacity="1"></path><path fill="none" stroke="#e6e6e6" stroke-width="1" stroke-dasharray="none" data-z-index="1" class="highcharts-grid-line" d="M 64 145.5 L 490 145.5" opacity="1"></path><path fill="none" stroke="#e6e6e6" stroke-width="1" stroke-dasharray="none" data-z-index="1" class="highcharts-grid-line" d="M 64 97.5 L 490 97.5" opacity="1"></path><path fill="none" stroke="#e6e6e6" stroke-width="1" stroke-dasharray="none" data-z-index="1" class="highcharts-grid-line" d="M 64 47.5 L 490 47.5" opacity="1"></path></g><rect fill="none" class="highcharts-plot-border" data-z-index="1" x="64" y="48" width="426" height="292"></rect><g class="highcharts-axis highcharts-xaxis" data-z-index="2"><path fill="none" class="highcharts-tick" stroke="#ccd6eb" stroke-width="1" d="M 67.5 340 L 67.5 350" opacity="1"></path><path fill="none" class="highcharts-tick" stroke="#ccd6eb" stroke-width="1" d="M 172.5 340 L 172.5 350" opacity="1"></path><path fill="none" class="highcharts-tick" stroke="#ccd6eb" stroke-width="1" d="M 276.5 340 L 276.5 350" opacity="1"></path><path fill="none" class="highcharts-tick" stroke="#ccd6eb" stroke-width="1" d="M 380.5 340 L 380.5 350" opacity="1"></path><path fill="none" class="highcharts-tick" stroke="#ccd6eb" stroke-width="1" d="M 485.5 340 L 485.5 350" opacity="1"></path><text x="277" data-z-index="7" text-anchor="middle" transform="translate(0,0)" class="highcharts-axis-title" style="color:#666666;fill:#666666;" y="379">epoch</text><path fill="none" class="highcharts-axis-line" stroke="#ccd6eb" stroke-width="1" data-z-index="7" d="M 64 340.5 L 490 340.5"></path></g><g class="highcharts-axis highcharts-yaxis" data-z-index="2"><text x="25.04443359375" data-z-index="7" text-anchor="middle" transform="translate(0,0) rotate(270 25.04443359375 194)" class="highcharts-axis-title" style="color:black;font-family:Aa般若楷书;font-size:12px;fill:black;" y="194">训练损失</text><path fill="none" class="highcharts-axis-line" data-z-index="7" d="M 64 48 L 64 340"></path></g><g class="highcharts-series-group" data-z-index="3"><g class="highcharts-series highcharts-series-0 highcharts-line-series highcharts-color-0" data-z-index="0.1" opacity="1" transform="translate(64,48) scale(1 1)" clip-path="url(#highcharts-7my1reh-519-)"><path fill="none" d="M 4.1764705882353 288.18039666666664 L 8.3529411764706 290.6426866666667 L 12.529411764706 291.34397333333334 L 16.705882352941 291.6179666666667 L 20.882352941176 290.86947333333336 L 25.058823529412 291.4975166666667 L 29.235294117647 291.7143266666667 L 33.411764705882 291.72089666666665 L 37.588235294118 291.93478666666664 L 41.764705882353 291.83502 L 45.941176470588 291.34859666666665 L 50.117647058824 291.97980333333334 L 54.294117647059 291.96179666666666 L 58.470588235294 291.51941666666664 L 62.647058823529 291.85813666666667 L 66.823529411765 291.3914233333333 L 71 289.3014333333333 L 75.176470588235 291.66566 L 79.352941176471 291.9133733333333 L 83.529411764706 291.88831 L 87.705882352941 291.81823 L 91.882352941176 291.92262 L 96.058823529412 291.93138 L 100.23529411765 291.8394 L 104.41176470588 291.93819333333334 L 108.58823529412 291.69680666666665 L 112.76470588235 291.96033666666665 L 116.94117647059 291.5790333333333 L 121.11764705882 291.75861333333336 L 125.29411764706 291.89877333333334 L 129.47058823529 290.0535766666667 L 133.64705882353 286.9960933333333 L 137.82352941176 291.9681233333333 L 142 291.95912 L 146.17647058824 291.97055666666665 L 150.35294117647 291.96374333333335 L 154.52941176471 291.95936333333333 L 158.70588235294 291.9179966666667 L 162.88235294118 291.9508466666667 L 167.05882352941 291.93868 L 171.23529411765 291.95936333333333 L 175.41176470588 291.94038333333333 L 179.58823529412 291.9416 L 183.76470588235 291.93138 L 187.94117647059 291.9318666666667 L 192.11764705882 291.88904 L 196.29411764706 291.9389233333333 L 200.47058823529 291.9097233333333 L 204.64705882353 291.91410333333334 L 208.82352941176 291.96228333333335 L 213 291.95887666666664 L 217.17647058824 291.93040666666667 L 221.35294117647 291.95863333333335 L 225.52941176471 291.89488 L 229.70588235294 291.9564433333333 L 233.88235294118 291.93284 L 238.05882352941 291.96788 L 242.23529411765 291.75253 L 246.41176470588 291.9596066666667 L 250.58823529412 291.9562 L 254.76470588235 291.9717733333333 L 258.94117647059 291.87930666666665 L 263.11764705882 291.95912 L 267.29411764706 291.95936333333333 L 271.47058823529 291.96496 L 275.64705882353 291.97153 L 279.82352941176 291.94841333333335 L 284 291.97153 L 288.17647058824 291.85181 L 292.35294117647 291.9652033333333 L 296.52941176471 291.7498533333333 L 300.70588235294 291.96423 L 304.88235294118 291.98296666666664 L 309.05882352941 291.98272333333335 L 313.23529411765 291.8282066666667 L 317.41176470588 291.97518 L 321.58823529412 291.86495 L 325.76470588235 291.95401 L 329.94117647059 291.96228333333335 L 334.11764705882 291.90364 L 338.29411764706 291.98783333333336 L 342.47058823529 291.98759 L 346.64705882353 291.9800466666667 L 350.82352941176 291.97226 L 355 291.9763966666667 L 359.17647058824 291.97396333333336 L 363.35294117647 291.98759 L 367.52941176471 291.9749366666667 L 371.70588235294 291.97737 L 375.88235294118 291.97153 L 380.05882352941 291.96739333333335 L 384.23529411765 291.98686 L 388.41176470588 291.98223666666667 L 392.58823529412 291.96009333333336 L 396.76470588235 291.94817 L 400.94117647059 291.96861 L 405.11764705882 291.9513333333333 L 409.29411764706 291.97469333333333 L 413.47058823529 291.91094 L 417.64705882353 291.98832 L 421.82352941176 291.9785866666667" class="highcharts-graph" data-z-index="1" stroke="#7cb5ec" stroke-width="2" stroke-linejoin="round" stroke-linecap="round"></path></g><g class="highcharts-markers highcharts-series-0 highcharts-line-series highcharts-color-0" data-z-index="0.1" opacity="1" transform="translate(64,48) scale(1 1)" clip-path="none"></g><g class="highcharts-series highcharts-series-1 highcharts-line-series highcharts-color-1" data-z-index="0.1" opacity="1" transform="translate(64,48) scale(1 1)" clip-path="url(#highcharts-7my1reh-519-)"><path fill="none" d="M 4.1764705882353 201.40578333333332 L 8.3529411764706 202.33556 L 12.529411764706 173.47574 L 16.705882352941 178.00806666666668 L 20.882352941176 178.60666666666668 L 25.058823529412 133.82627666666667 L 29.235294117647 122.82128333333335 L 33.411764705882 91.4198466666667 L 37.588235294118 129.84850666666668 L 41.764705882353 103.13342666666668 L 45.941176470588 171.13974000000002 L 50.117647058824 94.73623666666666 L 54.294117647059 119.22603333333333 L 58.470588235294 137.69114000000002 L 62.647058823529 69.47629 L 66.823529411765 159.90333666666666 L 71 49.094203333333326 L 75.176470588235 112.65676333333334 L 79.352941176471 150.41747333333333 L 83.529411764706 129.03723333333335 L 87.705882352941 123.64375000000001 L 91.882352941176 147.33638666666667 L 96.058823529412 124.0051 L 100.23529411765 152.56343 L 104.41176470588 132.56264666666667 L 108.58823529412 161.08666666666667 L 112.76470588235 127.4288 L 116.94117647059 148.98375333333334 L 121.11764705882 142.21178666666665 L 125.29411764706 130.64907333333335 L 129.47058823529 122.25675000000001 L 133.64705882353 157.43058333333335 L 137.82352941176 119.86527000000001 L 142 136.10947333333334 L 146.17647058824 123.75057333333334 L 150.35294117647 128.60604666666669 L 154.52941176471 135.50406 L 158.70588235294 146.74119333333334 L 162.88235294118 128.4206266666667 L 167.05882352941 141.09148000000002 L 171.23529411765 138.89515333333335 L 175.41176470588 145.73452333333333 L 179.58823529412 131.28904 L 183.76470588235 145.10112666666666 L 187.94117647059 133.96522000000002 L 192.11764705882 131.99957333333333 L 196.29411764706 140.88099666666668 L 200.47058823529 130.07821333333334 L 204.64705882353 132.10688333333334 L 208.82352941176 137.45072666666667 L 213 146.02433333333335 L 217.17647058824 126.85137 L 221.35294117647 118.23079999999999 L 225.52941176471 123.21013000000002 L 229.70588235294 133.55131 L 233.88235294118 123.64521000000002 L 238.05882352941 121.09580666666668 L 242.23529411765 137.86926000000003 L 246.41176470588 121.97010333333336 L 250.58823529412 137.70087333333336 L 254.76470588235 119.81952333333334 L 258.94117647059 117.18203333333332 L 263.11764705882 125.30158 L 267.29411764706 135.08139 L 271.47058823529 116.47587999999999 L 275.64705882353 128.87517333333335 L 279.82352941176 124.30878000000001 L 284 119.84556 L 288.17647058824 113.54882333333333 L 292.35294117647 123.74984333333333 L 296.52941176471 126.63967 L 300.70588235294 110.70012 L 304.88235294118 121.52821 L 309.05882352941 115.54367000000002 L 313.23529411765 123.42183 L 317.41176470588 117.07277666666667 L 321.58823529412 132.2906 L 325.76470588235 117.03141000000002 L 329.94117647059 120.52762333333334 L 334.11764705882 154.19084333333333 L 338.29411764706 105.15601333333333 L 342.47058823529 111.69219000000001 L 346.64705882353 111.68343000000002 L 350.82352941176 119.42143000000002 L 355 113.57194000000001 L 359.17647058824 124.63533333333334 L 363.35294117647 101.57025333333334 L 367.52941176471 122.30079333333336 L 371.70588235294 118.22203999999999 L 375.88235294118 108.69335000000001 L 380.05882352941 117.49861000000001 L 384.23529411765 108.41327333333334 L 388.41176470588 125.97342333333333 L 392.58823529412 107.99230666666668 L 396.76470588235 116.37149000000002 L 400.94117647059 111.65861000000001 L 405.11764705882 113.45562666666669 L 409.29411764706 123.46441333333334 L 413.47058823529 109.04253333333335 L 417.64705882353 107.24989666666667 L 421.82352941176 115.12392" class="highcharts-graph" data-z-index="1" stroke="#434348" stroke-width="2" stroke-linejoin="round" stroke-linecap="round"></path></g><g class="highcharts-markers highcharts-series-1 highcharts-line-series highcharts-color-1" data-z-index="0.1" opacity="1" transform="translate(64,48) scale(1 1)" clip-path="none"></g></g><text x="250" text-anchor="middle" class="highcharts-title" data-z-index="4" style="color:#333333;font-size:18px;fill:#333333;" y="24"></text><text x="250" text-anchor="middle" class="highcharts-subtitle" data-z-index="4" style="color:#666666;fill:#666666;" y="24"></text><text x="10" text-anchor="start" class="highcharts-caption" data-z-index="4" style="color:#666666;fill:#666666;" y="397"></text><g class="highcharts-legend highcharts-no-tooltip" data-z-index="7" transform="translate(342,10)"><rect fill="none" class="highcharts-legend-box" rx="0" ry="0" x="0" y="0" width="147" height="26" visibility="visible"></rect><g data-z-index="1"><g><g class="highcharts-legend-item highcharts-line-series highcharts-color-0 highcharts-series-0" data-z-index="1" transform="translate(8,3)"><path fill="none" d="M 0 11 L 16 11" class="highcharts-graph" stroke="#7cb5ec" stroke-width="2"></path><path fill="#7cb5ec" d="M 8 15 A 4 4 0 1 1 8.003999999333336 14.999998000000167 Z" class="highcharts-point" opacity="1"></path><text x="21" style="color:#333333;cursor:pointer;font-size:12px;font-weight:bold;font-family:Aa般若楷书;fill:#333333;" text-anchor="start" data-z-index="2" y="15">D Loss</text></g><g class="highcharts-legend-item highcharts-line-series highcharts-color-1 highcharts-series-1" data-z-index="1" transform="translate(85.93995666503906,3)"><path fill="none" d="M 0 11 L 16 11" class="highcharts-graph" stroke="#434348" stroke-width="2"></path><path fill="#434348" d="M 8 7 L 12 11 L 8 15 L 4 11 Z" class="highcharts-point" opacity="1"></path><text x="21" y="15" style="color:#333333;cursor:pointer;font-size:12px;font-weight:bold;font-family:Aa般若楷书;fill:#333333;" text-anchor="start" data-z-index="2">G loss</text></g></g></g></g><g class="highcharts-axis-labels highcharts-xaxis-labels" data-z-index="7"><text x="68.176470588235" style="color:#666666;cursor:default;font-size:11px;fill:#666666;" text-anchor="middle" transform="translate(0,0)" y="359" opacity="1">0</text><text x="479.54443359375" style="color:#666666;cursor:default;font-size:11px;fill:#666666;" text-anchor="middle" transform="translate(0,0)" y="359" opacity="1">100</text><text x="172.58823529412" style="color:#666666;cursor:default;font-size:11px;fill:#666666;" text-anchor="middle" transform="translate(0,0)" y="359" opacity="1">25</text><text x="277" style="color:#666666;cursor:default;font-size:11px;fill:#666666;" text-anchor="middle" transform="translate(0,0)" y="359" opacity="1">50</text><text x="381.41176470588" style="color:#666666;cursor:default;font-size:11px;fill:#666666;" text-anchor="middle" transform="translate(0,0)" y="359" opacity="1">75</text></g><g class="highcharts-axis-labels highcharts-yaxis-labels" data-z-index="7"><text x="49" style="color:#666666;cursor:default;font-size:11px;fill:#666666;" text-anchor="end" transform="translate(0,0)" y="344" opacity="1">0</text><text x="49" style="color:#666666;cursor:default;font-size:11px;fill:#666666;" text-anchor="end" transform="translate(0,0)" y="295" opacity="1">2</text><text x="49" style="color:#666666;cursor:default;font-size:11px;fill:#666666;" text-anchor="end" transform="translate(0,0)" y="247" opacity="1">4</text><text x="49" style="color:#666666;cursor:default;font-size:11px;fill:#666666;" text-anchor="end" transform="translate(0,0)" y="198" opacity="1">6</text><text x="49" style="color:#666666;cursor:default;font-size:11px;fill:#666666;" text-anchor="end" transform="translate(0,0)" y="149" opacity="1">8</text><text x="49" style="color:#666666;cursor:default;font-size:11px;fill:#666666;" text-anchor="end" transform="translate(0,0)" y="101" opacity="1">10</text><text x="49" style="color:#666666;cursor:default;font-size:11px;fill:#666666;" text-anchor="end" transform="translate(0,0)" y="52" opacity="1">12</text></g></svg>