<svg xmlns:xlink="http://www.w3.org/1999/xlink" version="1.1" class="highcharts-root" style="font-family:&quot;Lucida Grande&quot;, &quot;Lucida Sans Unicode&quot;, Arial, Helvetica, sans-serif;font-size:12px;" xmlns="http://www.w3.org/2000/svg" width="500" height="400" viewBox="0 0 500 400"><desc>Created with Highcharts 9.3.3</desc><defs><clipPath id="highcharts-7my1reh-624-"><rect x="0" y="0" width="416" height="292" fill="none"></rect></clipPath><clipPath id="highcharts-7my1reh-726-"><rect x="0" y="0" width="416" height="292" fill="none"></rect></clipPath></defs><rect fill="#ffffff" class="highcharts-background" x="0" y="0" width="500" height="400" rx="0" ry="0"></rect><rect fill="none" class="highcharts-plot-background" x="74" y="48" width="416" height="292"></rect><g class="highcharts-grid highcharts-xaxis-grid" data-z-index="1"><path fill="none" stroke-dasharray="none" data-z-index="1" class="highcharts-grid-line" d="M 77.5 48 L 77.5 340" opacity="1"></path><path fill="none" stroke-dasharray="none" data-z-index="1" class="highcharts-grid-line" d="M 179.5 48 L 179.5 340" opacity="1"></path><path fill="none" stroke-dasharray="none" data-z-index="1" class="highcharts-grid-line" d="M 281.5 48 L 281.5 340" opacity="1"></path><path fill="none" stroke-dasharray="none" data-z-index="1" class="highcharts-grid-line" d="M 383.5 48 L 383.5 340" opacity="1"></path><path fill="none" stroke-dasharray="none" data-z-index="1" class="highcharts-grid-line" d="M 485.5 48 L 485.5 340" opacity="1"></path></g><g class="highcharts-grid highcharts-yaxis-grid" data-z-index="1"><path fill="none" stroke="#e6e6e6" stroke-width="1" stroke-dasharray="none" data-z-index="1" class="highcharts-grid-line" d="M 74 340.5 L 490 340.5" opacity="1"></path><path fill="none" stroke="#e6e6e6" stroke-width="1" stroke-dasharray="none" data-z-index="1" class="highcharts-grid-line" d="M 74 282.5 L 490 282.5" opacity="1"></path><path fill="none" stroke="#e6e6e6" stroke-width="1" stroke-dasharray="none" data-z-index="1" class="highcharts-grid-line" d="M 74 223.5 L 490 223.5" opacity="1"></path><path fill="none" stroke="#e6e6e6" stroke-width="1" stroke-dasharray="none" data-z-index="1" class="highcharts-grid-line" d="M 74 165.5 L 490 165.5" opacity="1"></path><path fill="none" stroke="#e6e6e6" stroke-width="1" stroke-dasharray="none" data-z-index="1" class="highcharts-grid-line" d="M 74 106.5 L 490 106.5" opacity="1"></path><path fill="none" stroke="#e6e6e6" stroke-width="1" stroke-dasharray="none" data-z-index="1" class="highcharts-grid-line" d="M 74 47.5 L 490 47.5" opacity="1"></path></g><rect fill="none" class="highcharts-plot-border" data-z-index="1" x="74" y="48" width="416" height="292"></rect><g class="highcharts-axis highcharts-xaxis" data-z-index="2"><path fill="none" class="highcharts-tick" stroke="#ccd6eb" stroke-width="1" d="M 77.5 340 L 77.5 350" opacity="1"></path><path fill="none" class="highcharts-tick" stroke="#ccd6eb" stroke-width="1" d="M 179.5 340 L 179.5 350" opacity="1"></path><path fill="none" class="highcharts-tick" stroke="#ccd6eb" stroke-width="1" d="M 281.5 340 L 281.5 350" opacity="1"></path><path fill="none" class="highcharts-tick" stroke="#ccd6eb" stroke-width="1" d="M 383.5 340 L 383.5 350" opacity="1"></path><path fill="none" class="highcharts-tick" stroke="#ccd6eb" stroke-width="1" d="M 485.5 340 L 485.5 350" opacity="1"></path><text x="282" data-z-index="7" text-anchor="middle" transform="translate(0,0)" class="highcharts-axis-title" style="color:#666666;fill:#666666;" y="379">epoch</text><path fill="none" class="highcharts-axis-line" stroke="#ccd6eb" stroke-width="1" data-z-index="7" d="M 74 340.5 L 490 340.5"></path></g><g class="highcharts-axis highcharts-yaxis" data-z-index="2"><text x="24.640625" data-z-index="7" text-anchor="middle" transform="translate(0,0) rotate(270 24.640625 194)" class="highcharts-axis-title" style="color:black;font-family:Aa般若楷书;font-size:12px;fill:black;" y="194">判别器的输出</text><path fill="none" class="highcharts-axis-line" data-z-index="7" d="M 74 48 L 74 340"></path></g><g class="highcharts-series-group" data-z-index="3"><g class="highcharts-series highcharts-series-0 highcharts-line-series highcharts-color-0" data-z-index="0.1" opacity="1" transform="translate(74,48) scale(1 1)" clip-path="url(#highcharts-7my1reh-726-)"><path fill="none" d="M 4.078431372549 103.97536000000002 L 8.156862745098 76.127904 L 12.235294117647 64.27971200000002 L 16.313725490196 62.81036800000001 L 20.392156862745 74.104928 L 24.470588235294 66.51292800000002 L 28.549019607843 62.583776 L 32.627450980392 63.45743999999999 L 36.705882352941 59.063424 L 40.78431372549 61.362048000000016 L 44.862745098039 65.43136000000001 L 48.941176470588 58.752736 L 53.019607843137 58.88822400000001 L 57.098039215686 64.57638400000002 L 61.176470588235 61.00230400000001 L 65.254901960784 67.23007999999999 L 69.333333333333 85.53497600000003 L 73.411764705882 64.118528 L 77.490196078431 58.62659200000002 L 81.56862745098 59.163872 L 85.647058823529 61.49520000000001 L 89.725490196078 58.76441600000001 L 93.803921568627 59.360096 L 97.882352941176 60.427648000000005 L 101.96078431373 59.18489600000001 L 106.03921568627 62.97855999999999 L 110.11764705882 58.902240000000006 L 114.19607843137 64.716544 L 118.27450980392 62.214687999999995 L 122.35294117647 59.680128000000025 L 126.43137254902 79.557152 L 130.50980392157 88.735296 L 134.58823529412 58.68265600000001 L 138.66666666667 58.530816000000016 L 142.74509803922 58.523808 L 146.82352941176 58.64294400000003 L 150.90196078431 58.48876800000002 L 154.98039215686 58.61724799999999 L 159.05882352941 58.78076800000002 L 163.13725490196 58.976991999999996 L 167.21568627451 58.47708800000001 L 171.29411764706 58.76441600000001 L 175.37254901961 58.79712000000001 L 179.45098039216 59.049408 L 183.52941176471 59.20124800000002 L 187.60784313725 60.091264000000024 L 191.6862745098 59.121824000000004 L 195.76470588235 59.56332800000001 L 199.8431372549 59.38579200000001 L 203.92156862745 58.523808 L 208 58.605568000000005 L 212.07843137255 59.08211200000002 L 216.1568627451 58.60323200000002 L 220.23529411765 60.10761600000001 L 224.3137254902 58.741056000000015 L 228.39215686275 59.283007999999995 L 232.47058823529 58.495776000000006 L 236.54901960784 62.364192 L 240.62745098039 58.561184 L 244.70588235294 58.76441600000001 L 248.78431372549 58.500448000000006 L 252.86274509804 60.37392 L 256.94117647059 58.85084800000001 L 261.01960784314 58.911584000000005 L 265.09803921569 58.750399999999985 L 269.17647058824 58.61724799999999 L 273.25490196078 59.11481599999999 L 277.33333333333 58.66864000000001 L 281.41176470588 60.925216000000006 L 285.49019607843 58.647616 L 289.56862745098 62.36185599999999 L 293.64705882353 58.829824 L 297.72549019608 58.453727999999984 L 301.80392156863 58.49110400000001 L 305.88235294118 61.376063999999985 L 309.96078431373 58.51679999999999 L 314.03921568627 60.728992000000005 L 318.11764705882 59.02371199999999 L 322.19607843137 58.939616 L 326.27450980392 59.08912000000001 L 330.35294117647 58.48643200000001 L 334.43137254902 58.428032 L 338.50980392157 58.48176000000001 L 342.58823529412 58.69900799999999 L 346.66666666667 58.530816000000016 L 350.74509803922 58.69200000000001 L 354.82352941176 58.48643200000001 L 358.90196078431 58.60323200000002 L 362.98039215686 58.661632 L 367.05882352941 58.72236800000002 L 371.13725490196 58.76908800000001 L 375.21568627451 58.46774400000001 L 379.29411764706 58.49110400000001 L 383.37254901961 58.981663999999995 L 387.45098039216 59.163872 L 391.52941176471 58.79945599999999 L 395.60784313725 59.15686400000001 L 399.6862745098 58.610240000000005 L 403.76470588235 59.89270400000001 L 407.8431372549 58.435040000000015 L 411.92156862745 58.561184" class="highcharts-graph" data-z-index="1" stroke="#7cb5ec" stroke-width="2" stroke-linejoin="round" stroke-linecap="round"></path></g><g class="highcharts-markers highcharts-series-0 highcharts-line-series highcharts-color-0" data-z-index="0.1" opacity="1" transform="translate(74,48) scale(1 1)" clip-path="none"></g><g class="highcharts-series highcharts-series-1 highcharts-line-series highcharts-color-1" data-z-index="0.1" opacity="1" transform="translate(74,48) scale(1 1)" clip-path="url(#highcharts-7my1reh-726-)"><path fill="none" d="M 4.078431372549 274.232384 L 8.156862745098 285.405472 L 12.235294117647 285.597024 L 16.313725490196 289.168768 L 20.392156862745 290.764256 L 24.470588235294 290.824992 L 28.549019607843 290.916096 L 32.627450980392 291.808448 L 36.705882352941 291.416 L 40.78431372549 291.84816 L 44.862745098039 287.124768 L 48.941176470588 291.96496 L 53.019607843137 291.75472 L 57.098039215686 289.252864 L 61.176470588235 291.927584 L 65.254901960784 289.948992 L 69.333333333333 291.750048 L 73.411764705882 291.5328 L 77.490196078431 290.570368 L 81.56862745098 290.635776 L 85.647058823529 291.75472 L 89.725490196078 290.888064 L 93.803921568627 291.6496 L 97.882352941176 290.990848 L 101.96078431373 291.60288 L 106.03921568627 290.85536 L 110.11764705882 291.740704 L 114.19607843137 290.836672 L 118.27450980392 291.42768 L 122.35294117647 291.350592 L 126.43137254902 291.715008 L 130.50980392157 291.2992 L 134.58823529412 291.67296 L 138.66666666667 291.34592 L 142.74509803922 291.55616 L 146.82352941176 291.546816 L 150.90196078431 291.308544 L 154.98039215686 290.649792 L 159.05882352941 291.43936 L 163.13725490196 291.406656 L 167.21568627451 291.2992 L 171.29411764706 291.224448 L 175.37254901961 291.282848 L 179.45098039216 291.336576 L 183.52941176471 291.495424 L 187.60784313725 291.60288 L 191.6862745098 291.551488 L 195.76470588235 291.444032 L 199.8431372549 291.352928 L 203.92156862745 291.401984 L 208 291.418336 L 212.07843137255 291.348256 L 216.1568627451 291.408992 L 220.23529411765 291.703328 L 224.3137254902 291.507104 L 228.39215686275 291.60288 L 232.47058823529 291.481408 L 236.54901960784 291.490752 L 240.62745098039 291.387968 L 244.70588235294 291.523456 L 248.78431372549 291.560832 L 252.86274509804 291.708 L 256.94117647059 291.665952 L 261.01960784314 291.73136 L 265.09803921569 291.679968 L 269.17647058824 291.668288 L 273.25490196078 291.733696 L 277.33333333333 291.722016 L 281.41176470588 291.785088 L 285.49019607843 291.57952 L 289.56862745098 291.413664 L 293.64705882353 291.74304 L 297.72549019608 291.729024 L 301.80392156863 291.759392 L 305.88235294118 291.803776 L 309.96078431373 291.640256 L 314.03921568627 291.794432 L 318.11764705882 291.74304 L 322.19607843137 291.817792 L 326.27450980392 290.846016 L 330.35294117647 291.855168 L 334.43137254902 291.787424 L 338.50980392157 291.700992 L 342.58823529412 291.768736 L 346.66666666667 291.677632 L 350.74509803922 291.792096 L 354.82352941176 291.850496 L 358.90196078431 291.724352 L 362.98039215686 291.829472 L 367.05882352941 291.77808 L 371.13725490196 291.74304 L 375.21568627451 291.815456 L 379.29411764706 291.750048 L 383.37254901961 291.822464 L 387.45098039216 291.775744 L 391.52941176471 291.796768 L 395.60784313725 291.827136 L 399.6862745098 291.726688 L 403.76470588235 291.817792 L 407.8431372549 291.810784 L 411.92156862745 291.750048" class="highcharts-graph" data-z-index="1" stroke="#434348" stroke-width="2" stroke-linejoin="round" stroke-linecap="round"></path></g><g class="highcharts-markers highcharts-series-1 highcharts-line-series highcharts-color-1" data-z-index="0.1" opacity="1" transform="translate(74,48) scale(1 1)" clip-path="none"></g></g><text x="250" text-anchor="middle" class="highcharts-title" data-z-index="4" style="color:#333333;font-size:18px;fill:#333333;" y="24"></text><text x="250" text-anchor="middle" class="highcharts-subtitle" data-z-index="4" style="color:#666666;fill:#666666;" y="24"></text><text x="10" text-anchor="start" class="highcharts-caption" data-z-index="4" style="color:#666666;fill:#666666;" y="397"></text><g class="highcharts-legend highcharts-no-tooltip" data-z-index="7" transform="translate(315,10)"><rect fill="none" class="highcharts-legend-box" rx="0" ry="0" x="0" y="0" width="175" height="26" visibility="visible"></rect><g data-z-index="1"><g><g class="highcharts-legend-item highcharts-line-series highcharts-color-0 highcharts-series-0" data-z-index="1" transform="translate(8,3)"><path fill="none" d="M 0 11 L 16 11" class="highcharts-graph" stroke="#7cb5ec" stroke-width="2"></path><path fill="#7cb5ec" d="M 8 15 A 4 4 0 1 1 8.003999999333336 14.999998000000167 Z" class="highcharts-point" opacity="1"></path><text x="21" style="color:#333333;cursor:pointer;font-size:12px;font-weight:bold;font-family:Aa般若楷书;fill:#333333;" text-anchor="start" data-z-index="2" y="15">真实图片</text></g><g class="highcharts-legend-item highcharts-line-series highcharts-color-1 highcharts-series-1" data-z-index="1" transform="translate(97,3)"><path fill="none" d="M 0 11 L 16 11" class="highcharts-graph" stroke="#434348" stroke-width="2"></path><path fill="#434348" d="M 8 7 L 12 11 L 8 15 L 4 11 Z" class="highcharts-point" opacity="1"></path><text x="21" y="15" style="color:#333333;cursor:pointer;font-size:12px;font-weight:bold;font-family:Aa般若楷书;fill:#333333;" text-anchor="start" data-z-index="2">生成图片</text></g></g></g></g><g class="highcharts-axis-labels highcharts-xaxis-labels" data-z-index="7"><text x="78.078431372549" style="color:#666666;cursor:default;font-size:11px;fill:#666666;" text-anchor="middle" transform="translate(0,0)" y="359" opacity="1">0</text><text x="479.54443359375" style="color:#666666;cursor:default;font-size:11px;fill:#666666;" text-anchor="middle" transform="translate(0,0)" y="359" opacity="1">100</text><text x="180.03921568627" style="color:#666666;cursor:default;font-size:11px;fill:#666666;" text-anchor="middle" transform="translate(0,0)" y="359" opacity="1">25</text><text x="282" style="color:#666666;cursor:default;font-size:11px;fill:#666666;" text-anchor="middle" transform="translate(0,0)" y="359" opacity="1">50</text><text x="383.96078431373" style="color:#666666;cursor:default;font-size:11px;fill:#666666;" text-anchor="middle" transform="translate(0,0)" y="359" opacity="1">75</text></g><g class="highcharts-axis-labels highcharts-yaxis-labels" data-z-index="7"><text x="59" style="color:#666666;cursor:default;font-size:11px;fill:#666666;" text-anchor="end" transform="translate(0,0)" y="344" opacity="1">0</text><text x="59" style="color:#666666;cursor:default;font-size:11px;fill:#666666;" text-anchor="end" transform="translate(0,0)" y="286" opacity="1">0.25</text><text x="59" style="color:#666666;cursor:default;font-size:11px;fill:#666666;" text-anchor="end" transform="translate(0,0)" y="227" opacity="1">0.5</text><text x="59" style="color:#666666;cursor:default;font-size:11px;fill:#666666;" text-anchor="end" transform="translate(0,0)" y="169" opacity="1">0.75</text><text x="59" style="color:#666666;cursor:default;font-size:11px;fill:#666666;" text-anchor="end" transform="translate(0,0)" y="110" opacity="1">1</text><text x="59" style="color:#666666;cursor:default;font-size:11px;fill:#666666;" text-anchor="end" transform="translate(0,0)" y="52" opacity="1">1.25</text></g></svg>