<svg xmlns:xlink="http://www.w3.org/1999/xlink" version="1.1" class="highcharts-root" style="font-family:&quot;Lucida Grande&quot;, &quot;Lucida Sans Unicode&quot;, Arial, Helvetica, sans-serif;font-size:12px;" xmlns="http://www.w3.org/2000/svg" width="500" height="400" viewBox="0 0 500 400"><desc>Created with Highcharts 9.3.3</desc><defs><clipPath id="highcharts-w0mjulv-1215-"><rect x="0" y="0" width="426" height="292" fill="none"></rect></clipPath><clipPath id="highcharts-w0mjulv-1716-"><rect x="0" y="0" width="426" height="292" fill="none"></rect></clipPath></defs><rect fill="#ffffff" class="highcharts-background" x="0" y="0" width="500" height="400" rx="0" ry="0"></rect><rect fill="none" class="highcharts-plot-background" x="64" y="48" width="426" height="292"></rect><g class="highcharts-grid highcharts-xaxis-grid" data-z-index="1"><path fill="none" stroke-dasharray="none" data-z-index="1" class="highcharts-grid-line" d="M 67.5 48 L 67.5 340" opacity="1"></path><path fill="none" stroke-dasharray="none" data-z-index="1" class="highcharts-grid-line" d="M 151.5 48 L 151.5 340" opacity="1"></path><path fill="none" stroke-dasharray="none" data-z-index="1" class="highcharts-grid-line" d="M 235.5 48 L 235.5 340" opacity="1"></path><path fill="none" stroke-dasharray="none" data-z-index="1" class="highcharts-grid-line" d="M 318.5 48 L 318.5 340" opacity="1"></path><path fill="none" stroke-dasharray="none" data-z-index="1" class="highcharts-grid-line" d="M 402.5 48 L 402.5 340" opacity="1"></path><path fill="none" stroke-dasharray="none" data-z-index="1" class="highcharts-grid-line" d="M 486.5 48 L 486.5 340" opacity="1"></path></g><g class="highcharts-grid highcharts-yaxis-grid" data-z-index="1"><path fill="none" stroke="#e6e6e6" stroke-width="1" stroke-dasharray="none" data-z-index="1" class="highcharts-grid-line" d="M 64 340.5 L 490 340.5" opacity="1"></path><path fill="none" stroke="#e6e6e6" stroke-width="1" stroke-dasharray="none" data-z-index="1" class="highcharts-grid-line" d="M 64 267.5 L 490 267.5" opacity="1"></path><path fill="none" stroke="#e6e6e6" stroke-width="1" stroke-dasharray="none" data-z-index="1" class="highcharts-grid-line" d="M 64 194.5 L 490 194.5" opacity="1"></path><path fill="none" stroke="#e6e6e6" stroke-width="1" stroke-dasharray="none" data-z-index="1" class="highcharts-grid-line" d="M 64 121.5 L 490 121.5" opacity="1"></path><path fill="none" stroke="#e6e6e6" stroke-width="1" stroke-dasharray="none" data-z-index="1" class="highcharts-grid-line" d="M 64 47.5 L 490 47.5" opacity="1"></path></g><rect fill="none" class="highcharts-plot-border" data-z-index="1" x="64" y="48" width="426" height="292"></rect><g class="highcharts-axis highcharts-xaxis" data-z-index="2"><path fill="none" class="highcharts-tick" stroke="#ccd6eb" stroke-width="1" d="M 67.5 340 L 67.5 350" opacity="1"></path><path fill="none" class="highcharts-tick" stroke="#ccd6eb" stroke-width="1" d="M 151.5 340 L 151.5 350" opacity="1"></path><path fill="none" class="highcharts-tick" stroke="#ccd6eb" stroke-width="1" d="M 235.5 340 L 235.5 350" opacity="1"></path><path fill="none" class="highcharts-tick" stroke="#ccd6eb" stroke-width="1" d="M 318.5 340 L 318.5 350" opacity="1"></path><path fill="none" class="highcharts-tick" stroke="#ccd6eb" stroke-width="1" d="M 402.5 340 L 402.5 350" opacity="1"></path><path fill="none" class="highcharts-tick" stroke="#ccd6eb" stroke-width="1" d="M 486.5 340 L 486.5 350" opacity="1"></path><text x="277" data-z-index="7" text-anchor="middle" transform="translate(0,0)" class="highcharts-axis-title" style="color:#666666;fill:#666666;" y="379">epoch</text><path fill="none" class="highcharts-axis-line" stroke="#ccd6eb" stroke-width="1" data-z-index="7" d="M 64 340.5 L 490 340.5"></path></g><g class="highcharts-axis highcharts-yaxis" data-z-index="2"><text x="25.04443359375" data-z-index="7" text-anchor="middle" transform="translate(0,0) rotate(270 25.04443359375 194)" class="highcharts-axis-title" style="color:black;font-family:Aa般若楷书;font-size:12px;fill:black;" y="194">训练损失</text><path fill="none" class="highcharts-axis-line" data-z-index="7" d="M 64 48 L 64 340"></path></g><g class="highcharts-series-group" data-z-index="3"><g class="highcharts-series highcharts-series-0 highcharts-line-series highcharts-color-0" data-z-index="0.1" opacity="1" transform="translate(64,48) scale(1 1)" clip-path="url(#highcharts-w0mjulv-1716-)"><path fill="none" d="M 4.1764705882353 280.130054 L 5.0134386419899 258.610384 L 5.8504066957444 264.404978 L 6.687374749499 263.093752 L 7.5243428032536 264.091808 L 8.3613108570081 260.78958 L 9.1982789107627 261.556664 L 10.035246964517 262.120516 L 10.872215018272 265.239514 L 11.709183072026 265.804972 L 12.546151125781 262.442154 L 13.383119179536 266.329988 L 14.22008723329 265.744528 L 15.057055287045 264.91919 L 15.894023340799 265.57108 L 16.730991394554 265.339232 L 17.567959448308 268.164186 L 18.404927502063 270.953954 L 19.241895555818 264.293726 L 20.078863609572 268.154112 L 20.915831663327 271.69651 L 21.752799717081 269.26707 L 22.589767770836 266.188076 L 23.42673582459 269.363868 L 24.263703878345 273.100592 L 25.100671932099 269.540382 L 25.937639985854 281.042846 L 26.774608039609 270.412732 L 27.611576093363 272.799102 L 28.448544147118 278.056124 L 29.285512200872 278.831384 L 30.122480254627 269.757338 L 30.959448308381 273.374196 L 31.796416362136 281.861176 L 32.633384415891 272.523454 L 33.470352469645 275.72757 L 34.3073205234 277.44307 L 35.144288577154 282.71221 L 35.981256630909 279.941714 L 36.818224684663 280.948676 L 37.655192738418 283.775674 L 38.492160792173 276.55758 L 39.329128845927 285.22998 L 40.166096899682 281.625386 L 41.003064953436 282.637312 L 41.840033007191 278.221834 L 42.677001060945 277.883406 L 43.5139691147 287.305224 L 44.350937168455 283.1086 L 45.187905222209 279.047318 L 46.024873275964 286.821818 L 46.861841329718 287.200104 L 47.698809383473 275.483166 L 48.535777437227 289.18293 L 49.372745490982 271.851854 L 50.209713544737 281.772554 L 51.046681598491 287.001252 L 51.883649652246 284.91827 L 52.720617706 288.106472 L 53.557585759755 288.448258 L 54.394553813509 287.650368 L 55.231521867264 286.970008 L 56.068489921019 283.38746 L 56.905457974773 286.58705 L 57.742426028528 287.238502 L 58.579394082282 287.313692 L 59.416362136037 289.97206 L 60.253330189791 289.405726 L 61.090298243546 288.008944 L 61.9272662973 287.62146 L 62.764234351055 287.586128 L 63.60120240481 289.869714 L 64.438170458564 288.22517 L 65.275138512319 289.337836 L 66.112106566073 290.701768 L 66.949074619828 290.602196 L 67.786042673582 288.586228 L 68.623010727337 286.292276 L 69.459978781092 288.208526 L 70.296946834846 290.81229 L 71.133914888601 289.38514 L 71.970882942355 290.630958 L 72.80785099611 286.121894 L 73.644819049864 290.722208 L 74.481787103619 290.716806 L 75.318755157374 289.70926 L 76.155723211128 289.25739 L 76.992691264883 288.173924 L 77.829659318637 290.008122 L 78.666627372392 290.495032 L 79.503595426146 290.542044 L 80.340563479901 290.54146 L 81.177531533656 286.87905 L 82.01449958741 291.79925 L 82.851467641165 291.412934 L 83.688435694919 291.033188 L 84.525403748674 289.881686 L 85.362371802428 289.945926 L 86.199339856183 290.369618 L 87.036307909938 285.16866 L 87.873275963692 288.003688 L 88.710244017447 287.871266 L 89.547212071201 288.669886 L 90.384180124956 289.684294 L 91.22114817871 288.483882 L 92.058116232465 291.518784 L 92.895084286219 291.5255 L 93.732052339974 287.419834 L 94.569020393729 291.536742 L 95.405988447483 288.79238 L 96.242956501238 283.541344 L 97.079924554992 290.771118 L 97.916892608747 290.434734 L 98.753860662501 291.396582 L 99.590828716256 280.939478 L 100.42779677001 290.366114 L 101.26476482377 287.69008 L 102.10173287752 284.227398 L 102.93870093127 290.630082 L 103.77566898503 290.24435 L 104.61263703878 289.656992 L 105.44960509254 290.68819 L 106.28657314629 290.640594 L 107.12354120005 291.395852 L 107.9605092538 291.580688 L 108.79747730756 291.72917 L 109.63444536131 291.595726 L 110.47141341507 291.279344 L 111.30838146882 290.44291 L 112.14534952257 290.55679 L 112.98231757633 291.768152 L 113.81928563008 290.969094 L 114.65625368384 291.832246 L 115.49322173759 291.746836 L 116.33018979135 291.02472 L 117.1671578451 289.751162 L 118.00412589886 288.601558 L 118.84109395261 288.020916 L 119.67806200637 291.31599 L 120.51503006012 290.288442 L 121.35199811387 291.89123 L 122.18896616763 290.58672 L 123.02593422138 285.613376 L 123.86290227514 291.57806 L 124.69987032889 289.997756 L 125.53683838265 281.433834 L 126.3738064364 283.766768 L 127.21077449016 284.770518 L 128.04774254391 289.232132 L 128.88471059767 290.868938 L 129.72167865142 291.456588 L 130.55864670518 289.661226 L 131.39561475893 287.305808 L 132.23258281268 291.80801 L 133.06955086644 291.441404 L 133.90651892019 291.526084 L 134.74348697395 291.735594 L 135.5804550277 290.098788 L 136.41742308146 289.779778 L 137.25439113521 291.776036 L 138.09135918897 291.989926 L 138.92832724272 282.890914 L 139.76529529648 291.95401 L 140.60226335023 291.230726 L 141.43923140398 287.834474 L 142.27619945774 290.78455 L 143.11316751149 290.537518 L 143.95013556525 258.360724 L 144.787103619 290.759438 L 145.62407167276 291.951966 L 146.46103972651 288.439644 L 147.29800778027 290.111782 L 148.13497583402 291.870206 L 148.97194388778 290.622052 L 149.80891194153 291.882908 L 150.64587999528 291.856336 L 151.48284804904 291.97007 L 152.31981610279 291.390888 L 153.15678415655 291.974596 L 153.9937522103 291.914444 L 154.83072026406 291.829034 L 155.66768831781 288.6493 L 156.50465637157 291.367966 L 157.34162442532 291.700408 L 158.17859247908 291.269708 L 159.01556053283 285.107048 L 159.85252858658 291.473816 L 160.68949664034 289.614798 L 161.52646469409 291.84378 L 162.36343274785 291.81823 L 163.2004008016 290.543358 L 164.03736885536 291.624342 L 164.87433690911 290.769512 L 165.71130496287 291.175684 L 166.54827301662 291.594412 L 167.38524107038 290.254278 L 168.22220912413 291.472356 L 169.05917717789 291.539662 L 169.89614523164 291.85473 L 170.73311328539 291.941746 L 171.57008133915 291.59704 L 172.4070493929 282.367212 L 173.24401744666 289.14278 L 174.08098550041 290.270922 L 174.91795355417 288.944074 L 175.75492160792 291.772386 L 176.59188966168 291.942476 L 177.42885771543 291.804506 L 178.26582576919 291.955616 L 179.10279382294 291.85546 L 179.93976187669 291.919116 L 180.77672993045 290.245956 L 181.6136979842 290.47649 L 182.45066603796 290.974934 L 183.28763409171 290.376918 L 184.12460214547 290.08229 L 184.96157019922 291.987298 L 185.79853825298 291.974596 L 186.63550630673 291.771948 L 187.47247436049 291.814872 L 188.30944241424 291.851226 L 189.14641046799 289.872926 L 189.98337852175 290.689796 L 190.8203465755 291.871082 L 191.65731462926 291.89926 L 192.49428268301 291.798374 L 193.33125073677 291.632956 L 194.16821879052 291.746544 L 195.00518684428 291.869476 L 195.84215489803 291.940724 L 196.67912295179 291.691502 L 197.51609100554 291.653542 L 198.3530590593 291.90948 L 199.19002711305 290.736954 L 200.0269951668 289.377256 L 200.86396322056 285.823324 L 201.70093127431 288.821288 L 202.53789932807 291.358038 L 203.37486738182 291.800418 L 204.21183543558 291.988028 L 205.04880348933 291.342124 L 205.88577154309 291.931088 L 206.72273959684 291.97445 L 207.5597076506 290.247708 L 208.39667570435 291.966858 L 209.2336437581 291.449142 L 210.07061181186 291.781438 L 210.90757986561 291.557328 L 211.74454791937 291.998686 L 212.58151597312 291.968756 L 213.41848402688 291.87955 L 214.25545208063 291.960872 L 215.09242013439 291.945834 L 215.92938818814 291.792242 L 216.7663562419 291.903494 L 217.60332429565 291.710044 L 218.4402923494 291.983794 L 219.27726040316 291.844218 L 220.11422845691 291.993868 L 220.95119651067 291.756034 L 221.78816456442 291.71749 L 222.62513261818 291.91605 L 223.46210067193 291.913568 L 224.29906872569 290.309174 L 225.13603677944 291.736616 L 225.9730048332 290.639572 L 226.80997288695 288.049824 L 227.6469409407 291.940724 L 228.48390899446 283.562076 L 229.32087704821 291.50944 L 230.15784510197 291.8978 L 230.99481315572 282.09974 L 231.83178120948 286.943582 L 232.66874926323 291.979706 L 233.50571731699 291.850934 L 234.34268537074 291.7883 L 235.1796534245 291.341102 L 236.01662147825 291.983794 L 236.85358953201 291.808156 L 237.69055758576 291.929628 L 238.52752563951 291.79487 L 239.36449369327 290.79477 L 240.20146174702 285.218008 L 241.03842980078 291.921744 L 241.87539785453 291.025888 L 242.71236590829 291.92919 L 243.54933396204 291.041948 L 244.3863020158 291.963792 L 245.22327006955 291.993138 L 246.06023812331 291.949046 L 246.89720617706 291.924226 L 247.73417423081 291.806988 L 248.57114228457 291.065746 L 249.40811033832 291.90364 L 250.24507839208 291.650184 L 251.08204644583 291.968902 L 251.91901449959 291.887142 L 252.75598255334 291.478196 L 253.5929506071 289.248776 L 254.42991866085 291.875316 L 255.26688671461 289.421494 L 256.10385476836 291.885974 L 256.94082282211 291.942622 L 257.77779087587 291.98394 L 258.61475892962 291.987298 L 259.45172698338 291.405342 L 260.28869503713 291.969048 L 261.12566309089 290.531824 L 261.96263114464 291.987882 L 262.7995991984 291.252918 L 263.63656725215 289.004372 L 264.47353530591 291.771364 L 265.31050335966 291.724498 L 266.14747141342 291.950068 L 266.98443946717 291.76348 L 267.82140752092 291.95474 L 268.65837557468 291.744062 L 269.49534362843 291.906852 L 270.33231168219 291.916342 L 271.16927973594 288.898814 L 272.0062477897 289.603702 L 272.84321584345 291.997664 L 273.68018389721 291.781438 L 274.51715195096 291.18313 L 275.35412000472 289.1092 L 276.19108805847 291.975764 L 277.02805611222 290.769804 L 277.86502416598 291.322122 L 278.70199221973 291.92189 L 279.53896027349 291.855314 L 280.37592832724 291.946856 L 281.212896381 291.981312 L 282.04986443475 291.978246 L 282.88683248851 291.931964 L 283.72380054226 291.908312 L 284.56076859602 291.88904 L 285.39773664977 291.967588 L 286.23470470352 291.83867 L 287.07167275728 291.745814 L 287.90864081103 291.423154 L 288.74560886479 275.440388 L 289.58257691854 291.726834 L 290.4195449723 291.895756 L 291.25651302605 290.43853 L 292.09348107981 291.942184 L 292.93044913356 290.425244 L 293.76741718732 291.717344 L 294.60438524107 291.624196 L 295.44135329482 291.899844 L 296.27832134858 291.714424 L 297.11528940233 291.924956 L 297.95225745609 291.979852 L 298.78922550984 291.899844 L 299.6261935636 291.972406 L 300.46316161735 291.882616 L 301.30012967111 291.485496 L 302.13709772486 291.727126 L 302.97406577862 291.175392 L 303.81103383237 291.542874 L 304.64800188613 291.843196 L 305.48496993988 291.975034 L 306.32193799363 291.801002 L 307.15890604739 291.711066 L 307.99587410114 291.98029 L 308.8328421549 291.9854 L 309.66981020865 291.986422 L 310.50677826241 291.39483 L 311.34374631616 291.974012 L 312.18071436992 291.99635 L 313.01768242367 291.594996 L 313.85465047743 291.755742 L 314.69161853118 291.965982 L 315.52858658493 291.98905 L 316.36555463869 291.940286 L 317.20252269244 291.799396 L 318.0394907462 291.967734 L 318.87645879995 291.86933 L 319.71342685371 289.519606 L 320.55039490746 291.812974 L 321.38736296122 291.979706 L 322.22433101497 291.983356 L 323.06129906873 291.97153 L 323.89826712248 291.90802 L 324.73523517623 291.879404 L 325.57220322999 291.60142 L 326.40917128374 291.969048 L 327.2461393375 291.814726 L 328.08310739125 288.95371 L 328.92007544501 287.564958 L 329.75704349876 291.978976 L 330.59401155252 291.13057 L 331.43097960627 291.358038 L 332.26794766003 291.917656 L 333.10491571378 291.9635 L 333.94188376754 291.95693 L 334.77885182129 291.952112 L 335.61581987504 291.930212 L 336.4527879288 291.899552 L 337.28975598255 291.968318 L 338.12672403631 291.693984 L 338.96369209006 290.092218 L 339.80066014382 289.478872 L 340.63762819757 291.993138 L 341.47459625133 291.909042 L 342.31156430508 291.840568 L 343.14853235884 291.936928 L 343.98550041259 290.07791 L 344.82246846634 291.970362 L 345.6594365201 291.968172 L 346.49640457385 291.85692 L 347.33337262761 291.411474 L 348.17034068136 291.97591 L 349.00730873512 291.999854 L 349.84427678887 291.991386 L 350.68124484263 291.992554 L 351.51821289638 288.518192 L 352.35518095014 291.998832 L 353.19214900389 291.983356 L 354.02911705764 291.983356 L 354.8660851114 291.929628 L 355.70305316515 290.704104 L 356.54002121891 291.997956 L 357.37698927266 291.999416 L 358.21395732642 291.99416 L 359.05092538017 291.987882 L 359.88789343393 276.37566400000003 L 360.72486148768 291.995912 L 361.56182954144 291.5985 L 362.39879759519 289.766054 L 363.23576564894 291.676902 L 364.0727337027 289.797298 L 364.90970175645 291.957514 L 365.74666981021 291.988028 L 366.58363786396 291.993722 L 367.42060591772 291.984378 L 368.25757397147 291.997664 L 369.09454202523 291.984086 L 369.93151007898 291.946418 L 370.76847813274 291.902618 L 371.60544618649 291.889332 L 372.44241424025 291.945104 L 373.279382294 291.998394 L 374.11635034775 291.990802 L 374.95331840151 291.934592 L 375.79028645526 291.962478 L 376.62725450902 291.704934 L 377.46422256277 291.654272 L 378.30119061653 291.796476 L 379.13815867028 291.987152 L 379.97512672404 291.992116 L 380.81209477779 291.976786 L 381.64906283155 291.969486 L 382.4860308853 291.954594 L 383.32299893905 291.885828 L 384.15996699281 291.953572 L 384.99693504656 291.982334 L 385.83390310032 291.807718 L 386.67087115407 291.987006 L 387.50783920783 291.92043 L 388.34480726158 291.87736 L 389.18177531534 291.796038 L 390.01874336909 291.88466 L 390.85571142285 291.99927 L 391.6926794766 291.986422 L 392.52964753035 291.93138 L 393.36661558411 291.995036 L 394.20358363786 291.980874 L 395.04055169162 291.953718 L 395.87751974537 291.812974 L 396.71448779913 291.997226 L 397.55145585288 291.985838 L 398.38842390664 291.704058 L 399.22539196039 291.903056 L 400.06236001415 291.913276 L 400.8993280679 291.92846 L 401.73629612166 291.861008 L 402.57326417541 291.909042 L 403.41023222916 291.981312 L 404.24720028292 291.94525 L 405.08416833667 291.95036 L 405.92113639043 291.800856 L 406.75810444418 291.988758 L 407.59507249794 291.972406 L 408.43204055169 291.955616 L 409.26900860545 291.84451 L 410.1059766592 291.994306 L 410.94294471296 291.547692 L 411.77991276671 291.949046 L 412.61688082046 291.938096 L 413.45384887422 291.792388 L 414.29081692797 291.889332 L 415.12778498173 291.948462 L 415.96475303548 291.866118 L 416.80172108924 291.97445 L 417.63868914299 290.602196 L 418.47565719675 291.983502 L 419.3126252505 291.884806 L 420.14959330426 291.784796 L 420.98656135801 291.950214 L 421.82352941176 291.861592" class="highcharts-graph" data-z-index="1" stroke="#7cb5ec" stroke-width="2" stroke-linejoin="round" stroke-linecap="round"></path></g><g class="highcharts-markers highcharts-series-0 highcharts-line-series highcharts-color-0" data-z-index="0.1" opacity="1" transform="translate(64,48) scale(1 1)" clip-path="none"></g><g class="highcharts-series highcharts-series-1 highcharts-line-series highcharts-color-1" data-z-index="0.1" opacity="1" transform="translate(64,48) scale(1 1)" clip-path="url(#highcharts-w0mjulv-1716-)"><path fill="none" d="M 4.1764705882353 291.461844 L 5.0134386419899 291.44228 L 5.8504066957444 291.580688 L 6.687374749499 291.392932 L 7.5243428032536 291.504768 L 8.3613108570081 291.347088 L 9.1982789107627 291.406948 L 10.035246964517 291.394684 L 10.872215018272 291.184298 L 11.709183072026 291.469874 L 12.546151125781 290.805136 L 13.383119179536 291.369426 L 14.22008723329 291.500242 L 15.057055287045 291.125022 L 15.894023340799 290.829226 L 16.730991394554 289.800802 L 17.567959448308 289.91804 L 18.404927502063 291.317742 L 19.241895555818 290.034548 L 20.078863609572 290.531824 L 20.915831663327 290.487294 L 21.752799717081 290.494156 L 22.589767770836 290.701184 L 23.42673582459 289.77642 L 24.263703878345 289.426896 L 25.100671932099 283.037936 L 25.937639985854 288.772524 L 26.774608039609 288.474538 L 27.611576093363 282.818206 L 28.448544147118 285.57673 L 29.285512200872 288.614698 L 30.122480254627 285.254654 L 30.959448308381 281.142126 L 31.796416362136 288.552648 L 32.633384415891 284.154106 L 33.470352469645 282.537448 L 34.3073205234 279.978798 L 35.144288577154 281.659988 L 35.981256630909 280.10611 L 36.818224684663 277.543664 L 37.655192738418 287.60394 L 38.492160792173 269.141656 L 39.329128845927 281.70043 L 40.166096899682 283.862544 L 41.003064953436 277.047848 L 41.840033007191 280.086984 L 42.677001060945 260.42896 L 43.5139691147 269.56564000000003 L 44.350937168455 273.53246 L 45.187905222209 252.493568 L 46.024873275964 268.78016 L 46.861841329718 281.519682 L 47.698809383473 257.84184 L 48.535777437227 263.137698 L 49.372745490982 267.317386 L 50.209713544737 268.01366 L 51.046681598491 262.542748 L 51.883649652246 246.332952 L 52.720617706 263.2161 L 53.557585759755 251.732908 L 54.394553813509 261.260868 L 55.231521867264 280.31854 L 56.068489921019 241.72855 L 56.905457974773 265.292512 L 57.742426028528 276.01154 L 58.579394082282 254.260168 L 59.416362136037 248.50441 L 60.253330189791 233.9869 L 61.090298243546 263.990922 L 61.9272662973 258.558408 L 62.764234351055 229.85466200000002 L 63.60120240481 242.05427600000002 L 64.438170458564 236.257492 L 65.275138512319 261.50425 L 66.112106566073 237.716178 L 66.949074619828 246.261558 L 67.786042673582 258.91494 L 68.623010727337 238.017084 L 69.459978781092 240.627418 L 70.296946834846 259.063276 L 71.133914888601 247.321956 L 71.970882942355 254.178554 L 72.80785099611 252.605258 L 73.644819049864 243.855916 L 74.481787103619 247.41598 L 75.318755157374 255.162594 L 76.155723211128 267.284974 L 76.992691264883 247.075946 L 77.829659318637 230.605978 L 78.666627372392 246.653276 L 79.503595426146 248.85408 L 80.340563479901 268.182874 L 81.177531533656 236.946028 L 82.01449958741 227.46610199999998 L 82.851467641165 256.91766 L 83.688435694919 257.064098 L 84.525403748674 253.933128 L 85.362371802428 227.12781999999999 L 86.199339856183 236.64994000000002 L 87.036307909938 249.800014 L 87.873275963692 239.539864 L 88.710244017447 218.107502 L 89.547212071201 254.687656 L 90.384180124956 266.667978 L 91.22114817871 231.49687 L 92.058116232465 212.52197999999999 L 92.895084286219 249.381724 L 93.732052339974 229.779618 L 94.569020393729 215.71675199999999 L 95.405988447483 209.32151399999998 L 96.242956501238 239.865152 L 97.079924554992 195.19426199999998 L 97.916892608747 245.330516 L 98.753860662501 216.939502 L 99.590828716256 204.08493199999998 L 100.42779677001 245.080564 L 101.26476482377 208.31426 L 102.10173287752 237.264162 L 102.93870093127 231.014924 L 103.77566898503 225.55102 L 104.61263703878 243.908184 L 105.44960509254 256.110134 L 106.28657314629 222.630436 L 107.12354120005 232.33564 L 107.9605092538 230.42362400000002 L 108.79747730756 223.088438 L 109.63444536131 218.220652 L 110.47141341507 232.20599199999998 L 111.30838146882 196.40985799999999 L 112.14534952257 214.634016 L 112.98231757633 232.712466 L 113.81928563008 226.325404 L 114.65625368384 224.89037000000002 L 115.49322173759 239.780326 L 116.33018979135 216.449672 L 117.1671578451 228.374514 L 118.00412589886 212.09770400000002 L 118.84109395261 226.939772 L 119.67806200637 200.92928799999999 L 120.51503006012 176.737088 L 121.35199811387 201.786308 L 122.18896616763 217.922812 L 123.02593422138 236.814482 L 123.86290227514 212.788284 L 124.69987032889 230.124616 L 125.53683838265 250.325614 L 126.3738064364 224.124892 L 127.21077449016 227.412374 L 128.04774254391 236.694616 L 128.88471059767 212.603156 L 129.72167865142 180.300948 L 130.55864670518 259.51689799999997 L 131.39561475893 186.04342 L 132.23258281268 188.359418 L 133.06955086644 179.252522 L 133.90651892019 239.871576 L 134.74348697395 185.967938 L 135.5804550277 208.15804 L 136.41742308146 166.489056 L 137.25439113521 152.751332 L 138.09135918897 170.155408 L 138.92832724272 188.75478600000002 L 139.76529529648 228.876316 L 140.60226335023 230.43807800000002 L 141.43923140398 213.058092 L 142.27619945774 237.908898 L 143.11316751149 217.28669000000002 L 143.95013556525 193.920266 L 144.787103619 194.376078 L 145.62407167276 249.03439 L 146.46103972651 198.52861000000001 L 147.29800778027 200.62444 L 148.13497583402 217.19354199999998 L 148.97194388778 225.016952 L 149.80891194153 191.884004 L 150.64587999528 202.865102 L 151.48284804904 227.115994 L 152.31981610279 139.62169799999998 L 153.15678415655 218.316428 L 153.9937522103 197.354478 L 154.83072026406 228.86668 L 155.66768831781 227.47369400000002 L 156.50465637157 217.363778 L 157.34162442532 186.52828599999998 L 158.17859247908 146.394784 L 159.01556053283 202.63354600000002 L 159.85252858658 189.94395600000001 L 160.68949664034 231.059016 L 161.52646469409 242.54615 L 162.36343274785 240.40885600000001 L 163.2004008016 198.868206 L 164.03736885536 185.64703 L 164.87433690911 215.43365799999998 L 165.71130496287 238.000148 L 166.54827301662 218.831516 L 167.38524107038 213.64983 L 168.22220912413 195.587586 L 169.05917717789 159.195042 L 169.89614523164 198.474006 L 170.73311328539 187.545176 L 171.57008133915 174.54562800000002 L 172.4070493929 184.620942 L 173.24401744666 262.831098 L 174.08098550041 245.53842 L 174.91795355417 180.937216 L 175.75492160792 186.86905000000002 L 176.59188966168 143.585598 L 177.42885771543 144.53415999999999 L 178.26582576919 218.86714 L 179.10279382294 207.74924 L 179.93976187669 193.5741 L 180.77672993045 222.71278 L 181.6136979842 212.38182 L 182.45066603796 121.83145200000001 L 183.28763409171 189.528732 L 184.12460214547 160.679132 L 184.96157019922 161.535568 L 185.79853825298 182.00214 L 186.63550630673 219.50399199999998 L 187.47247436049 206.522256 L 188.30944241424 223.998164 L 189.14641046799 145.632372 L 189.98337852175 198.448018 L 190.8203465755 164.63748400000003 L 191.65731462926 211.41237999999998 L 192.49428268301 215.00091400000002 L 193.33125073677 224.44974200000001 L 194.16821879052 204.841358 L 195.00518684428 199.500678 L 195.84215489803 177.264148 L 196.67912295179 182.084776 L 197.51609100554 187.757168 L 198.3530590593 170.739262 L 199.19002711305 208.154536 L 200.0269951668 257.852498 L 200.86396322056 137.109622 L 201.70093127431 126.41906399999999 L 202.53789932807 203.986382 L 203.37486738182 179.24639000000002 L 204.21183543558 183.259346 L 205.04880348933 209.81703800000003 L 205.88577154309 170.43675000000002 L 206.72273959684 152.55394 L 207.5597076506 150.33094400000002 L 208.39667570435 208.9187 L 209.2336437581 167.72509200000002 L 210.07061181186 135.444784 L 210.90757986561 179.16025000000002 L 211.74454791937 183.193792 L 212.58151597312 162.821682 L 213.41848402688 152.122364 L 214.25545208063 216.41507000000001 L 215.09242013439 178.851752 L 215.92938818814 187.77614799999998 L 216.7663562419 172.965762 L 217.60332429565 204.14917200000002 L 218.4402923494 162.20308 L 219.27726040316 190.329396 L 220.11422845691 174.028642 L 220.95119651067 162.137234 L 221.78816456442 192.177464 L 222.62513261818 138.909656 L 223.46210067193 162.780072 L 224.29906872569 161.70332200000001 L 225.13603677944 200.81219600000003 L 225.9730048332 164.432208 L 226.80997288695 134.914658 L 227.6469409407 171.185438 L 228.48390899446 118.93992200000002 L 229.32087704821 179.483932 L 230.15784510197 221.41557 L 230.99481315572 257.647076 L 231.83178120948 176.313104 L 232.66874926323 147.163036 L 233.50571731699 152.484298 L 234.34268537074 220.38057600000002 L 235.1796534245 181.873806 L 236.01662147825 166.606586 L 236.85358953201 203.826512 L 237.69055758576 209.63877200000002 L 238.52752563951 166.26553 L 239.36449369327 225.95617 L 240.20146174702 120.55015599999999 L 241.03842980078 108.716272 L 241.87539785453 174.93165199999999 L 242.71236590829 219.281634 L 243.54933396204 132.110582 L 244.3863020158 146.956884 L 245.22327006955 179.443782 L 246.06023812331 160.66497 L 246.89720617706 177.84756399999998 L 247.73417423081 197.72999 L 248.57114228457 140.95672199999998 L 249.40811033832 166.43416 L 250.24507839208 203.63496 L 251.08204644583 212.007476 L 251.91901449959 208.83767 L 252.75598255334 206.576568 L 253.5929506071 175.075024 L 254.42991866085 160.769652 L 255.26688671461 166.15281800000002 L 256.10385476836 151.32870799999998 L 256.94082282211 161.883194 L 257.77779087587 166.738132 L 258.61475892962 177.891656 L 259.45172698338 162.934978 L 260.28869503713 167.539964 L 261.12566309089 188.650542 L 261.96263114464 158.425184 L 262.7995991984 209.803314 L 263.63656725215 217.64439 L 264.47353530591 183.45980400000002 L 265.31050335966 192.63838600000003 L 266.14747141342 197.594794 L 266.98443946717 191.515792 L 267.82140752092 195.333254 L 268.65837557468 198.038634 L 269.49534362843 197.558294 L 270.33231168219 143.86431199999998 L 271.16927973594 190.171132 L 272.0062477897 174.511756 L 272.84321584345 230.691826 L 273.68018389721 214.482906 L 274.51715195096 158.539502 L 275.35412000472 176.04753 L 276.19108805847 171.009216 L 277.02805611222 181.302508 L 277.86502416598 191.921964 L 278.70199221973 231.11581 L 279.53896027349 170.285494 L 280.37592832724 185.841502 L 281.212896381 196.901294 L 282.04986443475 200.556988 L 282.88683248851 181.22644200000002 L 283.72380054226 202.657198 L 284.56076859602 185.933628 L 285.39773664977 207.058076 L 286.23470470352 146.70123800000002 L 287.07167275728 235.135628 L 287.90864081103 160.19266 L 288.74560886479 146.18688 L 289.58257691854 181.648236 L 290.4195449723 184.20163000000002 L 291.25651302605 200.815408 L 292.09348107981 228.912962 L 292.93044913356 193.98465199999998 L 293.76741718732 230.96323999999998 L 294.60438524107 191.589522 L 295.44135329482 139.90479200000001 L 296.27832134858 157.024022 L 297.11528940233 184.25433600000002 L 297.95225745609 140.604716 L 298.78922550984 173.59414600000002 L 299.6261935636 144.222012 L 300.46316161735 157.874618 L 301.30012967111 176.936086 L 302.13709772486 158.046606 L 302.97406577862 223.58892600000001 L 303.81103383237 181.427484 L 304.64800188613 190.71366799999998 L 305.48496993988 176.346976 L 306.32193799363 172.373586 L 307.15890604739 190.653078 L 307.99587410114 191.295478 L 308.8328421549 153.18174 L 309.66981020865 171.88988799999998 L 310.50677826241 165.6224 L 311.34374631616 156.684718 L 312.18071436992 181.428944 L 313.01768242367 124.25198600000002 L 313.85465047743 185.26626199999998 L 314.69161853118 153.193566 L 315.52858658493 196.422998 L 316.36555463869 188.360878 L 317.20252269244 161.44899 L 318.0394907462 134.2981 L 318.87645879995 149.37157800000003 L 319.71342685371 161.456874 L 320.55039490746 159.205116 L 321.38736296122 128.26085400000002 L 322.22433101497 148.68859 L 323.06129906873 171.47524800000002 L 323.89826712248 160.55240400000002 L 324.73523517623 186.238184 L 325.57220322999 177.381678 L 326.40917128374 124.177526 L 327.2461393375 196.668132 L 328.08310739125 164.834292 L 328.92007544501 159.03926 L 329.75704349876 241.651608 L 330.59401155252 183.44476600000002 L 331.43097960627 195.576928 L 332.26794766003 150.92414200000002 L 333.10491571378 164.244014 L 333.94188376754 187.857762 L 334.77885182129 133.464294 L 335.61581987504 157.512684 L 336.4527879288 209.797328 L 337.28975598255 174.01375 L 338.12672403631 174.29188 L 338.96369209006 228.81339 L 339.80066014382 129.35454 L 340.63762819757 93.95348200000001 L 341.47459625133 108.78956400000001 L 342.31156430508 176.379096 L 343.14853235884 118.56499399999998 L 343.98550041259 165.653206 L 344.82246846634 141.729938 L 345.6594365201 201.44131 L 346.49640457385 134.46308 L 347.33337262761 114.861412 L 348.17034068136 118.06698799999998 L 349.00730873512 167.158904 L 349.84427678887 195.15790800000002 L 350.68124484263 152.067906 L 351.51821289638 152.080024 L 352.35518095014 186.70261 L 353.19214900389 192.670798 L 354.02911705764 195.767312 L 354.8660851114 208.841028 L 355.70305316515 176.15644600000002 L 356.54002121891 121.747356 L 357.37698927266 125.001258 L 358.21395732642 75.55149599999999 L 359.05092538017 130.17579 L 359.88789343393 117.271872 L 360.72486148768 198.04023999999998 L 361.56182954144 152.112582 L 362.39879759519 188.49213200000003 L 363.23576564894 217.520436 L 364.0727337027 176.265508 L 364.90970175645 157.406396 L 365.74666981021 151.57428000000002 L 366.58363786396 135.39003399999999 L 367.42060591772 123.24677600000001 L 368.25757397147 149.588826 L 369.09454202523 177.42445600000002 L 369.93151007898 203.83220599999999 L 370.76847813274 172.287738 L 371.60544618649 150.35007000000002 L 372.44241424025 125.14550600000001 L 373.279382294 190.63439 L 374.11635034775 191.65171800000002 L 374.95331840151 177.406352 L 375.79028645526 193.588846 L 376.62725450902 162.48266999999998 L 377.46422256277 149.97485 L 378.30119061653 167.29424600000002 L 379.13815867028 163.06725400000002 L 379.97512672404 82.838648 L 380.81209477779 165.116656 L 381.64906283155 144.150034 L 382.4860308853 136.43554 L 383.32299893905 144.77739599999998 L 384.15996699281 181.878916 L 384.99693504656 150.755074 L 385.83390310032 114.65336199999999 L 386.67087115407 187.541088 L 387.50783920783 141.07293800000002 L 388.34480726158 125.622342 L 389.18177531534 164.519224 L 390.01874336909 184.472168 L 390.85571142285 182.814922 L 391.6926794766 93.53358599999999 L 392.52964753035 127.00306400000002 L 393.36661558411 159.247748 L 394.20358363786 176.426546 L 395.04055169162 130.284122 L 395.87751974537 172.362344 L 396.71448779913 81.93374 L 397.55145585288 139.127634 L 398.38842390664 126.43381000000002 L 399.22539196039 120.685644 L 400.06236001415 149.87980399999998 L 400.8993280679 134.014422 L 401.73629612166 188.35021999999998 L 402.57326417541 127.12103200000001 L 403.41023222916 153.31985600000002 L 404.24720028292 172.670988 L 405.08416833667 172.666024 L 405.92113639043 174.62038 L 406.75810444418 158.40328399999999 L 407.59507249794 114.004538 L 408.43204055169 177.521838 L 409.26900860545 163.26304 L 410.1059766592 149.467938 L 410.94294471296 185.393428 L 411.77991276671 205.713124 L 412.61688082046 175.13809600000002 L 413.45384887422 184.654376 L 414.29081692797 145.7007 L 415.12778498173 168.603574 L 415.96475303548 137.78823 L 416.80172108924 181.243086 L 417.63868914299 188.02464 L 418.47565719675 125.18434200000002 L 419.3126252505 165.064972 L 420.14959330426 155.579498 L 420.98656135801 122.713584 L 421.82352941176 140.239132" class="highcharts-graph" data-z-index="1" stroke="#434348" stroke-width="2" stroke-linejoin="round" stroke-linecap="round"></path></g><g class="highcharts-markers highcharts-series-1 highcharts-line-series highcharts-color-1" data-z-index="0.1" opacity="1" transform="translate(64,48) scale(1 1)" clip-path="none"></g></g><text x="250" text-anchor="middle" class="highcharts-title" data-z-index="4" style="color:#333333;font-size:18px;fill:#333333;" y="24"></text><text x="250" text-anchor="middle" class="highcharts-subtitle" data-z-index="4" style="color:#666666;fill:#666666;" y="24"></text><text x="10" text-anchor="start" class="highcharts-caption" data-z-index="4" style="color:#666666;fill:#666666;" y="397"></text><g class="highcharts-legend highcharts-no-tooltip" data-z-index="7" transform="translate(342,10)"><rect fill="none" class="highcharts-legend-box" rx="0" ry="0" x="0" y="0" width="147" height="26" visibility="visible"></rect><g data-z-index="1"><g><g class="highcharts-legend-item highcharts-line-series highcharts-color-0 highcharts-series-0" data-z-index="1" transform="translate(8,3)"><path fill="none" d="M 0 11 L 16 11" class="highcharts-graph" stroke="#7cb5ec" stroke-width="2"></path><path fill="#7cb5ec" d="M 8 15 A 4 4 0 1 1 8.003999999333336 14.999998000000167 Z" class="highcharts-point" opacity="1"></path><text x="21" style="color:#333333;cursor:pointer;font-size:12px;font-weight:bold;font-family:Aa般若楷书;fill:#333333;" text-anchor="start" data-z-index="2" y="15">D Loss</text></g><g class="highcharts-legend-item highcharts-line-series highcharts-color-1 highcharts-series-1" data-z-index="1" transform="translate(85.93995666503906,3)"><path fill="none" d="M 0 11 L 16 11" class="highcharts-graph" stroke="#434348" stroke-width="2"></path><path fill="#434348" d="M 8 7 L 12 11 L 8 15 L 4 11 Z" class="highcharts-point" opacity="1"></path><text x="21" y="15" style="color:#333333;cursor:pointer;font-size:12px;font-weight:bold;font-family:Aa般若楷书;fill:#333333;" text-anchor="start" data-z-index="2">G loss</text></g></g></g></g><g class="highcharts-axis-labels highcharts-xaxis-labels" data-z-index="7"><text x="68.176470588235" style="color:#666666;cursor:default;font-size:11px;fill:#666666;" text-anchor="middle" transform="translate(0,0)" y="359" opacity="1">0</text><text x="151.87327596369" style="color:#666666;cursor:default;font-size:11px;fill:#666666;" text-anchor="middle" transform="translate(0,0)" y="359" opacity="1">100</text><text x="235.57008133915" style="color:#666666;cursor:default;font-size:11px;fill:#666666;" text-anchor="middle" transform="translate(0,0)" y="359" opacity="1">200</text><text x="319.26688671461" style="color:#666666;cursor:default;font-size:11px;fill:#666666;" text-anchor="middle" transform="translate(0,0)" y="359" opacity="1">300</text><text x="402.96369209006" style="color:#666666;cursor:default;font-size:11px;fill:#666666;" text-anchor="middle" transform="translate(0,0)" y="359" opacity="1">400</text><text x="479.54443359375" style="color:#666666;cursor:default;font-size:11px;fill:#666666;" text-anchor="middle" transform="translate(0,0)" y="359" opacity="1">500</text></g><g class="highcharts-axis-labels highcharts-yaxis-labels" data-z-index="7"><text x="49" style="color:#666666;cursor:default;font-size:11px;fill:#666666;" text-anchor="end" transform="translate(0,0)" y="344" opacity="1">0</text><text x="49" style="color:#666666;cursor:default;font-size:11px;fill:#666666;" text-anchor="end" transform="translate(0,0)" y="271" opacity="1">5</text><text x="49" style="color:#666666;cursor:default;font-size:11px;fill:#666666;" text-anchor="end" transform="translate(0,0)" y="198" opacity="1">10</text><text x="49" style="color:#666666;cursor:default;font-size:11px;fill:#666666;" text-anchor="end" transform="translate(0,0)" y="125" opacity="1">15</text><text x="49" style="color:#666666;cursor:default;font-size:11px;fill:#666666;" text-anchor="end" transform="translate(0,0)" y="52" opacity="1">20</text></g></svg>