<svg xmlns:xlink="http://www.w3.org/1999/xlink" version="1.1" class="highcharts-root" style="font-family:&quot;Lucida Grande&quot;, &quot;Lucida Sans Unicode&quot;, Arial, Helvetica, sans-serif;font-size:12px;" xmlns="http://www.w3.org/2000/svg" width="500" height="400" viewBox="0 0 500 400"><desc>Created with Highcharts 9.3.3</desc><defs><clipPath id="highcharts-b2iphj3-2013-"><rect x="0" y="0" width="416" height="292" fill="none"></rect></clipPath><clipPath id="highcharts-b2iphj3-2514-"><rect x="0" y="0" width="416" height="292" fill="none"></rect></clipPath></defs><rect fill="#ffffff" class="highcharts-background" x="0" y="0" width="500" height="400" rx="0" ry="0"></rect><rect fill="none" class="highcharts-plot-background" x="74" y="48" width="416" height="292"></rect><g class="highcharts-grid highcharts-xaxis-grid" data-z-index="1"><path fill="none" stroke-dasharray="none" data-z-index="1" class="highcharts-grid-line" d="M 77.5 48 L 77.5 340" opacity="1"></path><path fill="none" stroke-dasharray="none" data-z-index="1" class="highcharts-grid-line" d="M 159.5 48 L 159.5 340" opacity="1"></path><path fill="none" stroke-dasharray="none" data-z-index="1" class="highcharts-grid-line" d="M 241.5 48 L 241.5 340" opacity="1"></path><path fill="none" stroke-dasharray="none" data-z-index="1" class="highcharts-grid-line" d="M 322.5 48 L 322.5 340" opacity="1"></path><path fill="none" stroke-dasharray="none" data-z-index="1" class="highcharts-grid-line" d="M 404.5 48 L 404.5 340" opacity="1"></path><path fill="none" stroke-dasharray="none" data-z-index="1" class="highcharts-grid-line" d="M 486.5 48 L 486.5 340" opacity="1"></path></g><g class="highcharts-grid highcharts-yaxis-grid" data-z-index="1"><path fill="none" stroke="#e6e6e6" stroke-width="1" stroke-dasharray="none" data-z-index="1" class="highcharts-grid-line" d="M 74 340.5 L 490 340.5" opacity="1"></path><path fill="none" stroke="#e6e6e6" stroke-width="1" stroke-dasharray="none" data-z-index="1" class="highcharts-grid-line" d="M 74 282.5 L 490 282.5" opacity="1"></path><path fill="none" stroke="#e6e6e6" stroke-width="1" stroke-dasharray="none" data-z-index="1" class="highcharts-grid-line" d="M 74 223.5 L 490 223.5" opacity="1"></path><path fill="none" stroke="#e6e6e6" stroke-width="1" stroke-dasharray="none" data-z-index="1" class="highcharts-grid-line" d="M 74 165.5 L 490 165.5" opacity="1"></path><path fill="none" stroke="#e6e6e6" stroke-width="1" stroke-dasharray="none" data-z-index="1" class="highcharts-grid-line" d="M 74 106.5 L 490 106.5" opacity="1"></path><path fill="none" stroke="#e6e6e6" stroke-width="1" stroke-dasharray="none" data-z-index="1" class="highcharts-grid-line" d="M 74 47.5 L 490 47.5" opacity="1"></path></g><rect fill="none" class="highcharts-plot-border" data-z-index="1" x="74" y="48" width="416" height="292"></rect><g class="highcharts-axis highcharts-xaxis" data-z-index="2"><path fill="none" class="highcharts-tick" stroke="#ccd6eb" stroke-width="1" d="M 77.5 340 L 77.5 350" opacity="1"></path><path fill="none" class="highcharts-tick" stroke="#ccd6eb" stroke-width="1" d="M 159.5 340 L 159.5 350" opacity="1"></path><path fill="none" class="highcharts-tick" stroke="#ccd6eb" stroke-width="1" d="M 241.5 340 L 241.5 350" opacity="1"></path><path fill="none" class="highcharts-tick" stroke="#ccd6eb" stroke-width="1" d="M 322.5 340 L 322.5 350" opacity="1"></path><path fill="none" class="highcharts-tick" stroke="#ccd6eb" stroke-width="1" d="M 404.5 340 L 404.5 350" opacity="1"></path><path fill="none" class="highcharts-tick" stroke="#ccd6eb" stroke-width="1" d="M 486.5 340 L 486.5 350" opacity="1"></path><text x="282" data-z-index="7" text-anchor="middle" transform="translate(0,0)" class="highcharts-axis-title" style="color:#666666;fill:#666666;" y="379">epoch</text><path fill="none" class="highcharts-axis-line" stroke="#ccd6eb" stroke-width="1" data-z-index="7" d="M 74 340.5 L 490 340.5"></path></g><g class="highcharts-axis highcharts-yaxis" data-z-index="2"><text x="24.640625" data-z-index="7" text-anchor="middle" transform="translate(0,0) rotate(270 24.640625 194)" class="highcharts-axis-title" style="color:black;font-family:Aa般若楷书;font-size:12px;fill:black;" y="194">判别器的输出</text><path fill="none" class="highcharts-axis-line" data-z-index="7" d="M 74 48 L 74 340"></path></g><g class="highcharts-series-group" data-z-index="3"><g class="highcharts-series highcharts-series-0 highcharts-line-series highcharts-color-0" data-z-index="0.1" opacity="1" transform="translate(74,48) scale(1 1)" clip-path="url(#highcharts-b2iphj3-2514-)"><path fill="none" d="M 4.078431372549 171.172736 L 4.8957522888915 139.96143999999998 L 5.713073205234 134.126112 L 6.5303941215765 137.419872 L 7.347715037919 127.67408 L 8.1650359542615 124.459744 L 8.982356870604 134.609664 L 9.7996777869464 137.933792 L 10.616998703289 123.37350400000003 L 11.434319619631 150.81449600000002 L 12.251640535974 141.190176 L 13.068961452316 123.61177599999999 L 13.886282368659 120.231584 L 14.703603285001 127.58531200000002 L 15.520924201344 126.305184 L 16.338245117686 164.178752 L 17.155566034029 150.90326399999998 L 17.972886950371 137.377824 L 18.790207866714 134.99743999999998 L 19.607528783056 142.269408 L 20.424849699399 119.834464 L 21.242170615741 156.030784 L 22.059491532084 157.705696 L 22.876812448426 149.14192 L 23.694133364769 135.79168 L 24.511454281111 157.83884799999998 L 25.328775197454 136.076672 L 26.146096113796 174.795872 L 26.963417030139 141.90032000000002 L 27.780737946481 177.18560000000002 L 28.598058862824 162.940672 L 29.415379779166 175.506016 L 30.232700695509 137.144224 L 31.050021611851 137.957152 L 31.867342528194 153.082752 L 32.684663444536 165.31871999999998 L 33.501984360879 164.10166399999997 L 34.319305277221 149.090528 L 35.136626193564 154.680576 L 35.953947109906 126.802752 L 36.771268026249 152.064256 L 37.588588942591 152.63657600000002 L 38.405909858934 103.34230399999998 L 39.223230775276 120.916032 L 40.040551691619 117.19712000000001 L 40.857872607961 134.852608 L 41.675193524304 142.514688 L 42.492514440646 108.289952 L 43.309835356988 143.680352 L 44.127156273331 104.708864 L 44.944477189673 142.533376 L 45.761798106016 112.64192 L 46.579119022358 114.91718400000002 L 47.396439938701 99.864 L 48.213760855043 112.56016 L 49.031081771386 122.26857600000002 L 49.848402687728 109.390208 L 50.665723604071 95.056512 L 51.483044520413 104.14588799999999 L 52.300365436756 74.43196800000001 L 53.117686353098 102.13459200000003 L 53.935007269441 107.58915200000001 L 54.752328185783 91.76508800000002 L 55.569649102126 126.91488000000001 L 56.386970018468 77.97100799999998 L 57.204290934811 81.02182400000001 L 58.021611851153 74.516064 L 58.838932767496 67.91452800000002 L 59.656253683838 109.55139199999999 L 60.473574600181 83.56105600000001 L 61.290895516523 79.46838400000001 L 62.108216432866 72.43702400000001 L 62.925537349208 89.12540800000002 L 63.742858265551 107.74332800000002 L 64.560179181893 67.84211200000001 L 65.377500098236 79.02688 L 66.194821014578 97.28272000000001 L 67.012141930921 77.70470400000002 L 67.829462847263 104.900416 L 68.646783763606 69.32547199999999 L 69.464104679948 80.10844799999998 L 70.281425596291 67.807072 L 71.098746512633 98.39232000000001 L 71.916067428976 60.925216000000006 L 72.733388345318 73.31068800000003 L 73.550709261661 93.10361600000002 L 74.368030178003 88.041504 L 75.185351094346 61.71945599999998 L 76.002672010688 85.92508800000002 L 76.819992927031 78.84700800000002 L 77.637313843373 66.50825600000002 L 78.454634759716 77.48278400000001 L 79.271955676058 81.84176000000002 L 80.0892765924 61.82691199999999 L 80.906597508743 62.93417600000001 L 81.723918425085 63.44108800000001 L 82.541239341428 59.509600000000006 L 83.35856025777 66.96377600000002 L 84.175881174113 90.33779200000001 L 84.993202090455 121.303808 L 85.810523006798 85.864352 L 86.62784392314 58.68732800000001 L 87.445164839483 107.12896 L 88.262485755825 81.096576 L 89.079806672168 58.57753600000001 L 89.89712758851 59.619392000000005 L 90.714448504853 64.52732800000001 L 91.531769421195 89.65100800000002 L 92.349090337538 59.47689600000001 L 93.16641125388 58.535488000000015 L 93.983732170223 122.63065599999999 L 94.801053086565 59.715168000000006 L 95.618374002908 77.94998400000003 L 96.43569491925 59.446528 L 97.253015835593 87.64671999999999 L 98.070336751935 79.68096 L 98.887657668278 82.14076800000001 L 99.70497858462 101.106752 L 100.52229950096 61.64003200000002 L 101.33962041731 87.67475200000001 L 102.15694133365 58.51679999999999 L 102.97426224999 77.22816 L 103.79158316633 58.87420800000001 L 104.60890408268 58.414016000000004 L 105.42622499902 58.93727999999999 L 106.24354591536 58.724704 L 107.0608668317 68.036 L 107.87818774805 58.63593599999999 L 108.69550866439 59.26198400000001 L 109.51282958073 90.46860799999999 L 110.33015049707 58.684991999999994 L 111.14747141342 59.539968000000016 L 111.96479232976 62.59545600000001 L 112.7821132461 60.33887999999999 L 113.59943416244 65.844832 L 114.41675507879 87.84528 L 115.23407599513 100.98060800000002 L 116.05139691147 58.435040000000015 L 116.86871782781 58.52147199999999 L 117.68603874415 90.548032 L 118.5033596605 58.720032 L 119.32068057684 85.52329600000002 L 120.13800149318 87.47385600000001 L 120.95532240952 63.99939200000003 L 121.77264332587 83.15459200000001 L 122.58996424221 89.63699199999999 L 123.40728515855 121.83641600000001 L 124.22460607489 87.95740800000002 L 125.04192699124 85.51395200000002 L 125.85924790758 66.14851200000001 L 126.67656882392 59.112480000000005 L 127.49388974026 102.07151999999999 L 128.31121065661 58.409344000000004 L 129.12853157295 62.32214400000001 L 129.94585248929 68.05235200000001 L 130.76317340563 60.021184000000005 L 131.58049432198 59.10079999999999 L 132.39781523832 84.859872 L 133.21513615466 58.435040000000015 L 134.032457071 63.396704 L 134.84977798735 58.514464000000004 L 135.66709890369 87.74716800000002 L 136.48441982003 59.16153600000001 L 137.30174073637 62.41324800000001 L 138.11906165272 114.875136 L 138.93638256906 58.49110400000001 L 139.7537034854 60.45334399999999 L 140.57102440174 116.81401599999998 L 141.38834531809 83.80166399999999 L 142.20566623443 58.95596800000001 L 143.02298715077 67.01984000000002 L 143.84030806711 87.58364800000001 L 144.65762898346 60.663583999999986 L 145.4749498998 58.404672000000005 L 146.29227081614 58.56352000000001 L 147.10959173248 59.63574400000002 L 147.92691264883 58.43737600000003 L 148.74423356517 59.881024 L 149.56155448151 58.670976000000024 L 150.37887539785 58.61724799999999 L 151.1961963142 58.640607999999986 L 152.01351723054 95.01679999999999 L 152.83083814688 58.41635200000002 L 153.64815906322 58.453727999999984 L 154.46547997957 74.54643199999998 L 155.28280089591 89.08102400000001 L 156.10012181225 70.61494399999998 L 156.91744272859 85.511616 L 157.73476364494 58.92793600000002 L 158.55208456128 58.535488000000015 L 159.36940547762 58.741056000000015 L 160.18672639396 66.04572800000003 L 161.00404731031 80.19488000000001 L 161.82136822665 65.03657600000003 L 162.63868914299 58.435040000000015 L 163.45601005933 81.15264000000002 L 164.27333097568 58.460736000000026 L 165.09065189202 58.920928 L 165.90797280836 60.10527999999999 L 166.7252937247 59.226944 L 167.54261464105 68.498528 L 168.35993555739 89.49216000000001 L 169.17725647373 115.473152 L 169.99457739007 58.47241600000001 L 170.81189830642 58.584543999999994 L 171.62921922276 64.28905599999999 L 172.4465401391 58.661632 L 173.26386105544 59.29001600000001 L 174.08118197179 58.495776000000006 L 174.89850288813 59.51193599999999 L 175.71582380447 58.710688000000005 L 176.53314472081 83.34848 L 177.35046563716 63.98304000000002 L 178.1677865535 59.313376000000005 L 178.98510746984 83.369504 L 179.80242838618 87.00665600000002 L 180.61974930253 58.540160000000014 L 181.43707021887 58.41635200000002 L 182.25439113521 59.01436800000002 L 183.07171205155 60.45568 L 183.8890329679 60.70096000000001 L 184.70635388424 59.479231999999996 L 185.52367480058 83.23635200000001 L 186.34099571692 58.414016000000004 L 187.15831663327 58.76441600000001 L 187.97563754961 59.047072000000014 L 188.79295846595 58.48409600000002 L 189.61027938229 59.70582400000001 L 190.42760029864 58.631264000000016 L 191.24492121498 59.350752 L 192.06224213132 58.67331200000001 L 192.87956304766 63.36633599999999 L 193.69688396401 58.523808 L 194.51420488035 81.589472 L 195.33152579669 94.76217600000001 L 196.14884671303 58.67331200000001 L 196.96616762938 90.23267200000001 L 197.78348854572 76.922144 L 198.60080946206 59.51193599999999 L 199.4181303784 58.51679999999999 L 200.23545129475 58.762080000000026 L 201.05277221109 58.42102400000002 L 201.87009312743 58.88822400000001 L 202.68741404377 93.28582400000002 L 203.50473496012 58.61724799999999 L 204.32205587646 58.409344000000004 L 205.1393767928 58.404672000000005 L 205.95669770914 58.40233599999999 L 206.77401862549 58.404672000000005 L 207.59133954183 58.453727999999984 L 208.40866045817 58.409344000000004 L 209.22598137451 58.42102400000002 L 210.04330229086 58.414016000000004 L 210.8606232072 58.465408 L 211.67794412354 58.435040000000015 L 212.49526503988 58.960639999999984 L 213.31258595623 58.43036799999999 L 214.12990687257 58.523808 L 214.94722778891 58.514464000000004 L 215.76454870525 61.446144000000004 L 216.5818696216 58.79945599999999 L 217.39919053794 60.28048000000001 L 218.21651145428 58.540160000000014 L 219.03383237062 86.261472 L 219.85115328697 58.98399999999998 L 220.66847420331 58.584543999999994 L 221.48579511965 87.936384 L 222.30311603599 59.916064000000006 L 223.12043695234 87.63504 L 223.93775786868 71.420864 L 224.75507878502 61.29664 L 225.57239970136 117.76243200000002 L 226.38972061771 58.40700799999999 L 227.20704153405 58.404672000000005 L 228.02436245039 62.68889600000003 L 228.84168336673 62.66787200000002 L 229.65900428308 61.07939200000001 L 230.47632519942 58.825152 L 231.29364611576 63.46211199999999 L 232.1109670321 60.20572800000002 L 232.92828794845 58.470079999999996 L 233.74560886479 79.42633600000002 L 234.56292978113 87.56963200000001 L 235.38025069747 60.570144 L 236.19757161382 84.18944000000002 L 237.01489253016 58.86486400000001 L 237.8322134465 58.404672000000005 L 238.64953436284 58.67331200000001 L 239.46685527919 58.42102400000002 L 240.28417619553 59.834304 L 241.10149711187 58.89990400000002 L 241.91881802821 58.41168000000002 L 242.73613894456 71.32742399999998 L 243.5534598609 58.71302400000002 L 244.37078077724 65.47107200000002 L 245.18810169358 58.6336 L 246.00542260993 59.222272000000004 L 246.82274352627 58.444384000000014 L 247.64006444261 86.23577600000002 L 248.45738535895 59.885696000000024 L 249.2747062753 81.99359999999999 L 250.09202719164 59.92774399999999 L 250.90934810798 58.40233599999999 L 251.72666902432 58.40233599999999 L 252.54398994067 58.40700799999999 L 253.36131085701 58.418688 L 254.17863177335 58.95596800000001 L 254.99595268969 81.68992 L 255.81327360604 58.409344000000004 L 256.63059452238 74.64220800000001 L 257.44791543872 90.115872 L 258.26523635506 58.409344000000004 L 259.08255727141 59.89270400000001 L 259.89987818775 58.404672000000005 L 260.71719910409 59.212928000000005 L 261.53452002043 58.58921599999999 L 262.35184093678 58.61257599999999 L 263.16916185312 59.19657600000002 L 263.98648276946 59.930080000000004 L 264.8038036858 86.586176 L 265.62112460215 83.55872000000002 L 266.43844551849 58.400000000000006 L 267.25576643483 58.638272 L 268.07308735117 58.41635200000002 L 268.89040826752 87.02768 L 269.70772918386 58.58921599999999 L 270.5250501002 79.73936 L 271.34237101654 58.400000000000006 L 272.15969193289 58.49110400000001 L 272.97701284923 58.40700799999999 L 273.79433376557 58.404672000000005 L 274.61165468191 58.42102400000002 L 275.42897559826 58.58688000000001 L 276.2462965146 58.720032 L 277.06361743094 61.035008000000005 L 277.88093834728 58.400000000000006 L 278.69825926363 58.876544000000024 L 279.51558017997 58.442048 L 280.33290109631 58.414016000000004 L 281.15022201265 58.404672000000005 L 281.967542929 89.945344 L 282.78486384534 65.146368 L 283.60218476168 61.369056 L 284.41950567802 85.214944 L 285.23682659437 58.439712000000014 L 286.05414751071 76.46195200000003 L 286.87146842705 58.40233599999999 L 287.68878934339 58.400000000000006 L 288.50611025974 58.46307200000001 L 289.32343117608 58.400000000000006 L 290.14075209242 58.400000000000006 L 290.95807300876 58.400000000000006 L 291.77539392511 58.418688 L 292.59271484145 58.400000000000006 L 293.41003575779 61.177504 L 294.22735667413 70.867232 L 295.04467759048 65.18374399999999 L 295.86199850682 75.31264000000002 L 296.67931942316 58.40233599999999 L 297.4966403395 58.41635200000002 L 298.31396125585 58.409344000000004 L 299.13128217219 58.418688 L 299.94860308853 58.75974400000001 L 300.76592400487 58.428032 L 301.58324492121 58.500448000000006 L 302.40056583756 58.710688000000005 L 303.2178867539 58.46307200000001 L 304.03520767024 58.836832000000015 L 304.85252858658 58.435040000000015 L 305.66984950293 67.08057600000001 L 306.48717041927 62.82905600000001 L 307.30449133561 58.414016000000004 L 308.12181225195 58.432704 L 308.9391331683 58.400000000000006 L 309.75645408464 58.40233599999999 L 310.57377500098 58.45840000000001 L 311.39109591732 58.40233599999999 L 312.20841683367 83.74560000000002 L 313.02573775001 63.775136 L 313.84305866635 58.47708800000001 L 314.66037958269 58.40700799999999 L 315.47770049904 58.49343999999999 L 316.29502141538 58.544831999999985 L 317.11234233172 59.08912000000001 L 317.92966324806 66.419488 L 318.74698416441 58.451392 L 319.56430508075 58.40233599999999 L 320.38162599709 86.46470400000001 L 321.19894691343 99.943424 L 322.01626782978 58.400000000000006 L 322.83358874612 59.236288 L 323.65090966246 58.404672000000005 L 324.4682305788 58.40233599999999 L 325.28555149515 58.400000000000006 L 326.10287241149 58.66396800000001 L 326.92019332783 59.07510399999998 L 327.73751424417 59.860000000000014 L 328.55483516052 58.701344000000006 L 329.37215607686 58.453727999999984 L 330.1894769932 58.414016000000004 L 331.00679790954 94.23190400000001 L 331.82411882589 58.400000000000006 L 332.64143974223 58.42336 L 333.45876065857 61.24291200000002 L 334.27608157491 63.20048 L 335.09340249126 58.40700799999999 L 335.9107234076 90.08550400000001 L 336.72804432394 58.400000000000006 L 337.54536524028 58.40233599999999 L 338.36268615663 58.400000000000006 L 339.18000707297 58.400000000000006 L 339.99732798931 58.400000000000006 L 340.81464890565 58.400000000000006 L 341.631969822 58.400000000000006 L 342.44929073834 58.400000000000006 L 343.26661165468 86.94358400000002 L 344.08393257102 58.414016000000004 L 344.90125348737 58.40233599999999 L 345.71857440371 58.400000000000006 L 346.53589532005 58.414016000000004 L 347.35321623639 61.26393600000003 L 348.17053715274 58.400000000000006 L 348.98785806908 58.400000000000006 L 349.80517898542 58.40700799999999 L 350.62249990176 58.40233599999999 L 351.43982081811 87.60467200000002 L 352.25714173445 58.48876800000002 L 353.07446265079 64.07414400000002 L 353.89178356713 98.56518399999999 L 354.70910448348 58.400000000000006 L 355.52642539982 58.400000000000006 L 356.34374631616 59.07977600000001 L 357.1610672325 58.444384000000014 L 357.97838814885 58.425696000000016 L 358.79570906519 58.400000000000006 L 359.61302998153 58.400000000000006 L 360.43035089787 58.400000000000006 L 361.24767181422 58.404672000000005 L 362.06499273056 58.400000000000006 L 362.8823136469 58.40233599999999 L 363.69963456324 58.442048 L 364.51695547959 58.404672000000005 L 365.33427639593 58.56352000000001 L 366.15159731227 59.441856 L 366.96891822861 58.48643200000001 L 367.78623914496 66.351744 L 368.6035600613 58.570527999999996 L 369.42088097764 61.030336000000005 L 370.23820189398 58.400000000000006 L 371.05552281033 58.414016000000004 L 371.87284372667 58.40233599999999 L 372.69016464301 59.339072000000016 L 373.50748555935 58.400000000000006 L 374.3248064757 60.69628800000001 L 375.14212739204 58.425696000000016 L 375.95944830838 58.500448000000006 L 376.77676922472 62.962208000000004 L 377.59409014107 58.40233599999999 L 378.41141105741 58.40233599999999 L 379.22873197375 58.40700799999999 L 380.04605289009 60.418304000000006 L 380.86337380644 61.76383999999999 L 381.68069472278 58.40233599999999 L 382.49801563912 58.50278399999999 L 383.31533655546 58.40700799999999 L 384.13265747181 58.544831999999985 L 384.94997838815 58.614912000000004 L 385.76729930449 58.400000000000006 L 386.58462022083 58.404672000000005 L 387.40194113718 58.40233599999999 L 388.21926205352 58.640607999999986 L 389.03658296986 65.66496000000001 L 389.8539038862 60.93689599999999 L 390.67122480255 58.40233599999999 L 391.48854571889 59.560992 L 392.30586663523 62.46464 L 393.12318755157 58.40700799999999 L 393.94050846792 58.404672000000005 L 394.75782938426 60.09827200000001 L 395.5751503006 58.439712000000014 L 396.39247121694 58.414016000000004 L 397.20979213329 58.460736000000026 L 398.02711304963 58.40233599999999 L 398.84443396597 58.40233599999999 L 399.66175488231 61.995104 L 400.47907579866 58.404672000000005 L 401.296396715 68.54524799999999 L 402.11371763134 58.40233599999999 L 402.93103854768 58.400000000000006 L 403.74835946403 58.40233599999999 L 404.56568038037 58.40233599999999 L 405.38300129671 59.68713600000001 L 406.20032221305 58.40233599999999 L 407.0176431294 58.94896 L 407.83496404574 81.29980799999998 L 408.65228496208 58.41168000000002 L 409.46960587842 58.400000000000006 L 410.28692679477 58.400000000000006 L 411.10424771111 58.409344000000004 L 411.92156862745 61.532576000000006" class="highcharts-graph" data-z-index="1" stroke="#7cb5ec" stroke-width="2" stroke-linejoin="round" stroke-linecap="round"></path></g><g class="highcharts-markers highcharts-series-0 highcharts-line-series highcharts-color-0" data-z-index="0.1" opacity="1" transform="translate(74,48) scale(1 1)" clip-path="none"></g><g class="highcharts-series highcharts-series-1 highcharts-line-series highcharts-color-1" data-z-index="0.1" opacity="1" transform="translate(74,48) scale(1 1)" clip-path="url(#highcharts-b2iphj3-2514-)"><path fill="none" d="M 4.078431372549 152.082944 L 4.8957522888915 62.586112000000014 L 5.713073205234 67.61785600000002 L 6.5303941215765 66.396128 L 7.347715037919 66.519936 L 8.1650359542615 63.856896000000006 L 8.982356870604 64.510976 L 9.7996777869464 65.008544 L 10.616998703289 67.49404800000002 L 11.434319619631 71.03776000000002 L 12.251640535974 65.13936000000001 L 13.068961452316 68.720448 L 13.886282368659 69.1456 L 14.703603285001 70.977024 L 15.520924201344 67.968256 L 16.338245117686 77.11135999999999 L 17.155566034029 77.279552 L 17.972886950371 81.804384 L 18.790207866714 69.84640000000002 L 19.607528783056 74.31750400000001 L 20.424849699399 82.766816 L 21.242170615741 79.58752000000001 L 22.059491532084 71.68249600000001 L 22.876812448426 76.730592 L 23.694133364769 88.75398400000003 L 24.511454281111 83.248032 L 25.328775197454 143.437408 L 26.146096113796 88.006464 L 26.963417030139 90.68352000000002 L 27.780737946481 144.86003200000002 L 28.598058862824 139.276992 L 29.415379779166 84.406688 L 30.232700695509 92.6808 L 31.050021611851 159.92256 L 31.867342528194 93.14099199999998 L 32.684663444536 127.223232 L 33.501984360879 131.90224 L 34.319305277221 171.52313600000002 L 35.136626193564 154.80671999999998 L 35.953947109906 138.457056 L 36.771268026249 192.131328 L 37.588588942591 126.555136 L 38.405909858934 185.882528 L 39.223230775276 150.44540800000001 L 40.040551691619 159.929568 L 40.857872607961 145.693984 L 41.675193524304 131.577536 L 42.492514440646 222.085856 L 43.309835356988 184.978496 L 44.127156273331 146.08409600000002 L 44.944477189673 246.32419199999998 L 45.761798106016 231.819968 L 46.579119022358 126.95926400000002 L 47.396439938701 254.467488 L 48.213760855043 210.16992 L 49.031081771386 152.666944 L 49.848402687728 225.566496 L 50.665723604071 179.1712 L 51.483044520413 250.813984 L 52.300365436756 217.31808 L 53.117686353098 231.780256 L 53.935007269441 280.50688 L 54.752328185783 161.602144 L 55.569649102126 287.727456 L 56.386970018468 214.93769600000002 L 57.204290934811 200.286304 L 58.021611851153 251.31388800000002 L 58.838932767496 237.066624 L 59.656253683838 277.129024 L 60.473574600181 219.48121600000002 L 61.290895516523 216.57289600000001 L 62.108216432866 247.478176 L 62.925537349208 233.233248 L 63.742858265551 284.118336 L 64.560179181893 266.138144 L 65.377500098236 272.052896 L 66.194821014578 249.807168 L 67.012141930921 188.78384 L 67.829462847263 259.256288 L 68.646783763606 268.352672 L 69.464104679948 252.435168 L 70.281425596291 263.750752 L 71.098746512633 214.13411200000002 L 71.916067428976 259.501568 L 72.733388345318 270.796128 L 73.550709261661 272.816768 L 74.368030178003 255.222016 L 75.185351094346 216.57289600000001 L 76.002672010688 263.421376 L 76.819992927031 270.160736 L 77.637313843373 260.013152 L 78.454634759716 275.388704 L 79.271955676058 220.02083199999998 L 80.0892765924 289.129056 L 80.906597508743 278.610048 L 81.723918425085 269.016096 L 82.541239341428 237.762752 L 83.35856025777 245.871008 L 84.175881174113 285.583008 L 84.993202090455 282.76112 L 85.810523006798 250.942464 L 86.62784392314 216.75744 L 87.445164839483 289.752768 L 88.262485755825 263.24384 L 89.079806672168 218.24780800000002 L 89.89712758851 278.663776 L 90.714448504853 283.704864 L 91.531769421195 248.183648 L 92.349090337538 278.981472 L 93.16641125388 223.907936 L 93.983732170223 285.230272 L 94.801053086565 264.566016 L 95.618374002908 275.047648 L 96.43569491925 275.115392 L 97.253015835593 281.174976 L 98.070336751935 275.732096 L 98.887657668278 232.801088 L 99.70497858462 288.872096 L 100.52229950096 262.05248 L 101.33962041731 280.819904 L 102.15694133365 239.9072 L 102.97426224999 281.18432 L 103.79158316633 258.113984 L 104.60890408268 274.59680000000003 L 105.42622499902 280.2032 L 106.24354591536 283.968832 L 107.0608668317 289.713056 L 107.87818774805 270.775104 L 108.69550866439 250.134208 L 109.51282958073 290.895072 L 110.33015049707 285.031712 L 111.14747141342 266.49088 L 111.96479232976 290.958144 L 112.7821132461 286.068896 L 113.59943416244 271.681472 L 114.41675507879 287.169152 L 115.23407599513 285.980128 L 116.05139691147 217.348448 L 116.86871782781 273.211552 L 117.68603874415 289.03328 L 118.5033596605 288.879104 L 119.32068057684 289.925632 L 120.13800149318 253.04486400000002 L 120.95532240952 284.858848 L 121.77264332587 282.63264 L 122.58996424221 288.617472 L 123.40728515855 228.675712 L 124.22460607489 265.656928 L 125.04192699124 272.368256 L 125.85924790758 269.941152 L 126.67656882392 277.00288 L 127.49388974026 285.503584 L 128.31121065661 195.47647999999998 L 129.12853157295 290.023744 L 129.94585248929 285.734848 L 130.76317340563 279.497728 L 131.58049432198 284.541152 L 132.39781523832 290.290048 L 133.21513615466 240.9 L 134.032457071 290.250336 L 134.84977798735 291.792096 L 135.66709890369 289.18512 L 136.48441982003 291.2992 L 137.30174073637 273.6624 L 138.11906165272 289.895264 L 138.93638256906 258.597536 L 139.7537034854 263.58256 L 140.57102440174 282.583584 L 141.38834531809 288.778656 L 142.20566623443 291.023552 L 143.02298715077 227.014816 L 143.84030806711 290.308736 L 144.65762898346 290.173248 L 145.4749498998 260.162656 L 146.29227081614 288.56140800000003 L 147.10959173248 288.71792 L 147.92691264883 291.081952 L 148.74423356517 276.038112 L 149.56155448151 291.46272 L 150.37887539785 289.530848 L 151.1961963142 287.050016 L 152.01351723054 255.07952 L 152.83083814688 275.255552 L 153.64815906322 283.296064 L 154.46547997957 291.850496 L 155.28280089591 291.27584 L 156.10012181225 290.0728 L 156.91744272859 291.000192 L 157.73476364494 287.62 L 158.55208456128 286.477696 L 159.36940547762 258.43168000000003 L 160.18672639396 288.771648 L 161.00404731031 284.704672 L 161.82136822665 274.930848 L 162.63868914299 280.2616 L 163.45601005933 281.910816 L 164.27333097568 276.965504 L 165.09065189202 278.955776 L 165.90797280836 289.15008 L 166.7252937247 290.97216 L 167.54261464105 291.315552 L 168.35993555739 282.66768 L 169.17725647373 289.764448 L 169.99457739007 264.970144 L 170.81189830642 243.14256 L 171.62921922276 291.145024 L 172.4465401391 290.444224 L 173.26386105544 286.928544 L 174.08118197179 290.687168 L 174.89850288813 288.603456 L 175.71582380447 289.748096 L 176.53314472081 287.612992 L 177.35046563716 258.3032 L 178.1677865535 270.11168 L 178.98510746984 291.257152 L 179.80242838618 282.499488 L 180.61974930253 291.733696 L 181.43707021887 291.208096 L 182.25439113521 285.853984 L 183.07171205155 288.292768 L 183.8890329679 289.635968 L 184.70635388424 244.352608 L 185.52367480058 289.626624 L 186.34099571692 287.977408 L 187.15831663327 289.20848 L 187.97563754961 286.372576 L 188.79295846595 281.14928 L 189.61027938229 285.828288 L 190.42760029864 288.166624 L 191.24492121498 291.070272 L 192.06224213132 282.894272 L 192.87956304766 286.342208 L 193.69688396401 289.29024 L 194.51420488035 290.962816 L 195.33152579669 290.033088 L 196.14884671303 199.253792 L 196.96616762938 291.85984 L 197.78348854572 291.558496 L 198.60080946206 286.984608 L 199.4181303784 291.733696 L 200.23545129475 276.474944 L 201.05277221109 289.860224 L 201.87009312743 291.670624 L 202.68741404377 288.734272 L 203.50473496012 291.15904 L 204.32205587646 276.386176 L 205.1393767928 285.524608 L 205.95669770914 279.161344 L 206.77401862549 291.962624 L 207.59133954183 291.067936 L 208.40866045817 288.267072 L 209.22598137451 290.775936 L 210.04330229086 290.297056 L 210.8606232072 285.725504 L 211.67794412354 288.991232 L 212.49526503988 283.849696 L 213.31258595623 291.514112 L 214.12990687257 287.33968 L 214.94722778891 291.920576 L 215.76454870525 287.65504 L 216.5818696216 284.204768 L 217.39919053794 291.2408 L 218.21651145428 289.421056 L 219.03383237062 291.327232 L 219.85115328697 284.480416 L 220.66847420331 262.989216 L 221.48579511965 290.974496 L 222.30311603599 291.654272 L 223.12043695234 288.082528 L 223.93775786868 291.91824 L 224.75507878502 291.745376 L 225.57239970136 282.847552 L 226.38972061771 197.270528 L 227.20704153405 291.3576 L 228.02436245039 291.831808 L 228.84168336673 289.764448 L 229.65900428308 276.052128 L 230.47632519942 291.913568 L 231.29364611576 291.387968 L 232.1109670321 291.57952 L 232.92828794845 285.788576 L 233.74560886479 290.568032 L 234.56292978113 276.67584 L 235.38025069747 291.69632 L 236.19757161382 291.981312 L 237.01489253016 290.23632 L 237.8322134465 265.79008 L 238.64953436284 291.126336 L 239.46685527919 291.803776 L 240.28417619553 291.831808 L 241.10149711187 290.126528 L 241.91881802821 286.061888 L 242.73613894456 280.053696 L 243.5534598609 289.271552 L 244.37078077724 288.949184 L 245.18810169358 291.247808 L 246.00542260993 289.27856 L 246.82274352627 276.703872 L 247.64006444261 289.998048 L 248.45738535895 289.55888 L 249.2747062753 265.540128 L 250.09202719164 289.972352 L 250.90934810798 290.194272 L 251.72666902432 291.490752 L 252.54398994067 291.60288 L 253.36131085701 275.526528 L 254.17863177335 291.572512 L 254.99595268969 291.654272 L 255.81327360604 291.623904 L 256.63059452238 291.78976 L 257.44791543872 287.86528 L 258.26523635506 285.146176 L 259.08255727141 285.006016 L 259.89987818775 290.425536 L 260.71719910409 285.877344 L 261.53452002043 290.75024 L 262.35184093678 284.447712 L 263.16916185312 289.85088 L 263.98648276946 290.895072 L 264.8038036858 290.638112 L 265.62112460215 276.199296 L 266.43844551849 291.925248 L 267.25576643483 285.468544 L 268.07308735117 270.347616 L 268.89040826752 287.29296 L 269.70772918386 291.418336 L 270.5250501002 289.386016 L 271.34237101654 273.751168 L 272.15969193289 289.626624 L 272.97701284923 287.676064 L 273.79433376557 290.334432 L 274.61165468191 291.425344 L 275.42897559826 291.490752 L 276.2462965146 290.170912 L 277.06361743094 291.829472 L 277.88093834728 288.540384 L 278.69825926363 291.441696 L 279.51558017997 287.054688 L 280.33290109631 284.393984 L 281.15022201265 277.666304 L 281.967542929 291.862176 L 282.78486384534 290.250336 L 283.60218476168 291.717344 L 284.41950567802 291.095968 L 285.23682659437 290.203616 L 286.05414751071 271.959456 L 286.87146842705 283.751584 L 287.68878934339 280.831584 L 288.50611025974 288.965536 L 289.32343117608 283.417536 L 290.14075209242 289.645312 L 290.95807300876 291.3576 L 291.77539392511 288.944512 L 292.59271484145 291.124 L 293.41003575779 291.079616 L 294.22735667413 291.787424 L 295.04467759048 290.99552 L 295.86199850682 290.899744 L 296.67931942316 278.77824 L 297.4966403395 287.3864 L 298.31396125585 291.212768 L 299.13128217219 286.094592 L 299.94860308853 283.866048 L 300.76592400487 291.399648 L 301.58324492121 291.635584 L 302.40056583756 291.876192 L 303.2178867539 274.522048 L 304.03520767024 291.609888 L 304.85252858658 291.915904 L 305.66984950293 289.397696 L 306.48717041927 289.101024 L 307.30449133561 290.939456 L 308.12181225195 291.68464 L 308.9391331683 290.105504 L 309.75645408464 285.795584 L 310.57377500098 291.035232 L 311.39109591732 287.921344 L 312.20841683367 274.190336 L 313.02573775001 291.936928 L 313.84305866635 291.430016 L 314.66037958269 291.476736 L 315.47770049904 291.187072 L 316.29502141538 289.304256 L 317.11234233172 288.883776 L 317.92966324806 288.668864 L 318.74698416441 291.0656 L 319.56430508075 286.587488 L 320.38162599709 288.946848 L 321.19894691343 285.758208 L 322.01626782978 291.329568 L 322.83358874612 269.997216 L 323.65090966246 273.63904 L 324.4682305788 289.416384 L 325.28555149515 290.839008 L 326.10287241149 290.899744 L 326.92019332783 291.152032 L 327.73751424417 291.266496 L 328.55483516052 289.159424 L 329.37215607686 291.051584 L 330.1894769932 283.338112 L 331.00679790954 290.156896 L 331.82411882589 235.022624 L 332.64143974223 291.803776 L 333.45876065857 291.995328 L 334.27608157491 291.95328 L 335.09340249126 290.0144 L 335.9107234076 289.379008 L 336.72804432394 291.063264 L 337.54536524028 290.993184 L 338.36268615663 287.669056 L 339.18000707297 275.183136 L 339.99732798931 291.22912 L 340.81464890565 291.995328 L 341.631969822 291.726688 L 342.44929073834 291.759392 L 343.26661165468 291.408992 L 344.08393257102 291.978976 L 344.90125348737 291.469728 L 345.71857440371 291.472064 L 346.53589532005 289.82752 L 347.35321623639 261.017632 L 348.17053715274 291.934592 L 348.98785806908 291.983648 L 349.80517898542 291.820128 L 350.62249990176 291.619232 L 351.43982081811 291.946272 L 352.25714173445 291.960288 L 353.07446265079 285.863328 L 353.89178356713 287.379392 L 354.70910448348 282.595264 L 355.52642539982 252.201568 L 356.34374631616 291.329568 L 357.1610672325 291.66128 L 357.97838814885 291.8248 L 358.79570906519 291.504768 L 359.61302998153 291.927584 L 360.43035089787 291.493088 L 361.24767181422 290.313408 L 362.06499273056 289.000576 L 362.8823136469 288.535712 L 363.69963456324 290.299392 L 364.51695547959 291.95328 L 365.33427639593 291.869184 L 366.15159731227 290.976832 L 366.96891822861 290.90208 L 367.78623914496 291.841152 L 368.6035600613 281.67488 L 369.42088097764 288.330144 L 370.23820189398 291.5912 L 371.05552281033 291.764064 L 371.87284372667 291.26416 L 372.69016464301 291.97664 L 373.50748555935 290.572704 L 374.3248064757 290.75024 L 375.14212739204 290.572704 L 375.95944830838 291.537472 L 376.77676922472 290.806304 L 377.59409014107 291.586528 L 378.41141105741 289.491136 L 379.22873197375 288.220352 L 380.04605289009 287.80688 L 380.86337380644 291.880864 L 381.68069472278 291.978976 L 382.49801563912 291.668288 L 383.31533655546 289.853216 L 384.13265747181 291.985984 L 384.94997838815 291.605216 L 385.76729930449 290.542336 L 386.58462022083 286.55712 L 387.40194113718 291.913568 L 388.21926205352 291.78976 L 389.03658296986 290.897408 L 389.8539038862 291.493088 L 390.67122480255 289.341632 L 391.48854571889 290.904416 L 392.30586663523 291.925248 L 393.12318755157 289.159424 L 393.94050846792 291.413664 L 394.75782938426 291.992992 L 395.5751503006 290.46992 L 396.39247121694 286.269792 L 397.20979213329 291.698656 L 398.02711304963 291.131008 L 398.84443396597 290.5984 L 399.66175488231 290.864704 L 400.47907579866 291.822464 L 401.296396715 290.023744 L 402.11371763134 290.397504 L 402.93103854768 290.077472 L 403.74835946403 285.653088 L 404.56568038037 288.580096 L 405.38300129671 291.668288 L 406.20032221305 287.869952 L 407.0176431294 291.736032 L 407.83496404574 291.981312 L 408.65228496208 291.483744 L 409.46960587842 288.42592 L 410.28692679477 285.718496 L 411.10424771111 290.430208 L 411.92156862745 290.897408" class="highcharts-graph" data-z-index="1" stroke="#434348" stroke-width="2" stroke-linejoin="round" stroke-linecap="round"></path></g><g class="highcharts-markers highcharts-series-1 highcharts-line-series highcharts-color-1" data-z-index="0.1" opacity="1" transform="translate(74,48) scale(1 1)" clip-path="none"></g></g><text x="250" text-anchor="middle" class="highcharts-title" data-z-index="4" style="color:#333333;font-size:18px;fill:#333333;" y="24"></text><text x="250" text-anchor="middle" class="highcharts-subtitle" data-z-index="4" style="color:#666666;fill:#666666;" y="24"></text><text x="10" text-anchor="start" class="highcharts-caption" data-z-index="4" style="color:#666666;fill:#666666;" y="397"></text><g class="highcharts-legend highcharts-no-tooltip" data-z-index="7" transform="translate(315,10)"><rect fill="none" class="highcharts-legend-box" rx="0" ry="0" x="0" y="0" width="175" height="26" visibility="visible"></rect><g data-z-index="1"><g><g class="highcharts-legend-item highcharts-line-series highcharts-color-0 highcharts-series-0" data-z-index="1" transform="translate(8,3)"><path fill="none" d="M 0 11 L 16 11" class="highcharts-graph" stroke="#7cb5ec" stroke-width="2"></path><path fill="#7cb5ec" d="M 8 15 A 4 4 0 1 1 8.003999999333336 14.999998000000167 Z" class="highcharts-point" opacity="1"></path><text x="21" style="color:#333333;cursor:pointer;font-size:12px;font-weight:bold;font-family:Aa般若楷书;fill:#333333;" text-anchor="start" data-z-index="2" y="15">真实图片</text></g><g class="highcharts-legend-item highcharts-line-series highcharts-color-1 highcharts-series-1" data-z-index="1" transform="translate(97,3)"><path fill="none" d="M 0 11 L 16 11" class="highcharts-graph" stroke="#434348" stroke-width="2"></path><path fill="#434348" d="M 8 7 L 12 11 L 8 15 L 4 11 Z" class="highcharts-point" opacity="1"></path><text x="21" y="15" style="color:#333333;cursor:pointer;font-size:12px;font-weight:bold;font-family:Aa般若楷书;fill:#333333;" text-anchor="start" data-z-index="2">生成图片</text></g></g></g></g><g class="highcharts-axis-labels highcharts-xaxis-labels" data-z-index="7"><text x="78.078431372549" style="color:#666666;cursor:default;font-size:11px;fill:#666666;" text-anchor="middle" transform="translate(0,0)" y="359" opacity="1">0</text><text x="159.8105230068" style="color:#666666;cursor:default;font-size:11px;fill:#666666;" text-anchor="middle" transform="translate(0,0)" y="359" opacity="1">100</text><text x="241.54261464105" style="color:#666666;cursor:default;font-size:11px;fill:#666666;" text-anchor="middle" transform="translate(0,0)" y="359" opacity="1">200</text><text x="323.2747062753" style="color:#666666;cursor:default;font-size:11px;fill:#666666;" text-anchor="middle" transform="translate(0,0)" y="359" opacity="1">300</text><text x="405.00679790954" style="color:#666666;cursor:default;font-size:11px;fill:#666666;" text-anchor="middle" transform="translate(0,0)" y="359" opacity="1">400</text><text x="479.54443359375" style="color:#666666;cursor:default;font-size:11px;fill:#666666;" text-anchor="middle" transform="translate(0,0)" y="359" opacity="1">500</text></g><g class="highcharts-axis-labels highcharts-yaxis-labels" data-z-index="7"><text x="59" style="color:#666666;cursor:default;font-size:11px;fill:#666666;" text-anchor="end" transform="translate(0,0)" y="344" opacity="1">0</text><text x="59" style="color:#666666;cursor:default;font-size:11px;fill:#666666;" text-anchor="end" transform="translate(0,0)" y="286" opacity="1">0.25</text><text x="59" style="color:#666666;cursor:default;font-size:11px;fill:#666666;" text-anchor="end" transform="translate(0,0)" y="227" opacity="1">0.5</text><text x="59" style="color:#666666;cursor:default;font-size:11px;fill:#666666;" text-anchor="end" transform="translate(0,0)" y="169" opacity="1">0.75</text><text x="59" style="color:#666666;cursor:default;font-size:11px;fill:#666666;" text-anchor="end" transform="translate(0,0)" y="110" opacity="1">1</text><text x="59" style="color:#666666;cursor:default;font-size:11px;fill:#666666;" text-anchor="end" transform="translate(0,0)" y="52" opacity="1">1.25</text></g></svg>