<svg xmlns:xlink="http://www.w3.org/1999/xlink" version="1.1" class="highcharts-root" style="font-family:&quot;Lucida Grande&quot;, &quot;Lucida Sans Unicode&quot;, Arial, Helvetica, sans-serif;font-size:12px;" xmlns="http://www.w3.org/2000/svg" width="500" height="400" viewBox="0 0 500 400"><desc>Created with Highcharts 9.3.3</desc><defs><clipPath id="highcharts-w0mjulv-2220-"><rect x="0" y="0" width="416" height="292" fill="none"></rect></clipPath><clipPath id="highcharts-w0mjulv-2322-"><rect x="0" y="0" width="416" height="292" fill="none"></rect></clipPath></defs><rect fill="#ffffff" class="highcharts-background" x="0" y="0" width="500" height="400" rx="0" ry="0"></rect><rect fill="none" class="highcharts-plot-background" x="74" y="48" width="416" height="292"></rect><g class="highcharts-grid highcharts-xaxis-grid" data-z-index="1"><path fill="none" stroke-dasharray="none" data-z-index="1" class="highcharts-grid-line" d="M 77.5 48 L 77.5 340" opacity="1"></path><path fill="none" stroke-dasharray="none" data-z-index="1" class="highcharts-grid-line" d="M 179.5 48 L 179.5 340" opacity="1"></path><path fill="none" stroke-dasharray="none" data-z-index="1" class="highcharts-grid-line" d="M 281.5 48 L 281.5 340" opacity="1"></path><path fill="none" stroke-dasharray="none" data-z-index="1" class="highcharts-grid-line" d="M 383.5 48 L 383.5 340" opacity="1"></path><path fill="none" stroke-dasharray="none" data-z-index="1" class="highcharts-grid-line" d="M 485.5 48 L 485.5 340" opacity="1"></path></g><g class="highcharts-grid highcharts-yaxis-grid" data-z-index="1"><path fill="none" stroke="#e6e6e6" stroke-width="1" stroke-dasharray="none" data-z-index="1" class="highcharts-grid-line" d="M 74 340.5 L 490 340.5" opacity="1"></path><path fill="none" stroke="#e6e6e6" stroke-width="1" stroke-dasharray="none" data-z-index="1" class="highcharts-grid-line" d="M 74 282.5 L 490 282.5" opacity="1"></path><path fill="none" stroke="#e6e6e6" stroke-width="1" stroke-dasharray="none" data-z-index="1" class="highcharts-grid-line" d="M 74 223.5 L 490 223.5" opacity="1"></path><path fill="none" stroke="#e6e6e6" stroke-width="1" stroke-dasharray="none" data-z-index="1" class="highcharts-grid-line" d="M 74 165.5 L 490 165.5" opacity="1"></path><path fill="none" stroke="#e6e6e6" stroke-width="1" stroke-dasharray="none" data-z-index="1" class="highcharts-grid-line" d="M 74 106.5 L 490 106.5" opacity="1"></path><path fill="none" stroke="#e6e6e6" stroke-width="1" stroke-dasharray="none" data-z-index="1" class="highcharts-grid-line" d="M 74 47.5 L 490 47.5" opacity="1"></path></g><rect fill="none" class="highcharts-plot-border" data-z-index="1" x="74" y="48" width="416" height="292"></rect><g class="highcharts-axis highcharts-xaxis" data-z-index="2"><path fill="none" class="highcharts-tick" stroke="#ccd6eb" stroke-width="1" d="M 77.5 340 L 77.5 350" opacity="1"></path><path fill="none" class="highcharts-tick" stroke="#ccd6eb" stroke-width="1" d="M 179.5 340 L 179.5 350" opacity="1"></path><path fill="none" class="highcharts-tick" stroke="#ccd6eb" stroke-width="1" d="M 281.5 340 L 281.5 350" opacity="1"></path><path fill="none" class="highcharts-tick" stroke="#ccd6eb" stroke-width="1" d="M 383.5 340 L 383.5 350" opacity="1"></path><path fill="none" class="highcharts-tick" stroke="#ccd6eb" stroke-width="1" d="M 485.5 340 L 485.5 350" opacity="1"></path><text x="282" data-z-index="7" text-anchor="middle" transform="translate(0,0)" class="highcharts-axis-title" style="color:#666666;fill:#666666;" y="379">epoch</text><path fill="none" class="highcharts-axis-line" stroke="#ccd6eb" stroke-width="1" data-z-index="7" d="M 74 340.5 L 490 340.5"></path></g><g class="highcharts-axis highcharts-yaxis" data-z-index="2"><text x="24.640625" data-z-index="7" text-anchor="middle" transform="translate(0,0) rotate(270 24.640625 194)" class="highcharts-axis-title" style="color:black;font-family:Aa般若楷书;font-size:12px;fill:black;" y="194">判别器的输出</text><path fill="none" class="highcharts-axis-line" data-z-index="7" d="M 74 48 L 74 340"></path></g><g class="highcharts-series-group" data-z-index="3"><g class="highcharts-series highcharts-series-0 highcharts-line-series highcharts-color-0" data-z-index="0.1" opacity="1" transform="translate(74,48) scale(1 1)" clip-path="url(#highcharts-w0mjulv-2322-)"><path fill="none" d="M 4.078431372549 171.172736 L 8.156862745098 139.96143999999998 L 12.235294117647 134.126112 L 16.313725490196 137.419872 L 20.392156862745 127.67408 L 24.470588235294 124.459744 L 28.549019607843 134.609664 L 32.627450980392 137.933792 L 36.705882352941 123.37350400000003 L 40.78431372549 150.81449600000002 L 44.862745098039 141.190176 L 48.941176470588 123.61177599999999 L 53.019607843137 120.231584 L 57.098039215686 127.58531200000002 L 61.176470588235 126.305184 L 65.254901960784 164.178752 L 69.333333333333 150.90326399999998 L 73.411764705882 137.377824 L 77.490196078431 134.99743999999998 L 81.56862745098 142.269408 L 85.647058823529 119.834464 L 89.725490196078 156.030784 L 93.803921568627 157.705696 L 97.882352941176 149.14192 L 101.96078431373 135.79168 L 106.03921568627 157.83884799999998 L 110.11764705882 136.076672 L 114.19607843137 174.795872 L 118.27450980392 141.90032000000002 L 122.35294117647 177.18560000000002 L 126.43137254902 162.940672 L 130.50980392157 175.506016 L 134.58823529412 137.144224 L 138.66666666667 137.957152 L 142.74509803922 153.082752 L 146.82352941176 165.31871999999998 L 150.90196078431 164.10166399999997 L 154.98039215686 149.090528 L 159.05882352941 154.680576 L 163.13725490196 126.802752 L 167.21568627451 152.064256 L 171.29411764706 152.63657600000002 L 175.37254901961 103.34230399999998 L 179.45098039216 120.916032 L 183.52941176471 117.19712000000001 L 187.60784313725 134.852608 L 191.6862745098 142.514688 L 195.76470588235 108.289952 L 199.8431372549 143.680352 L 203.92156862745 104.708864 L 208 142.533376 L 212.07843137255 112.64192 L 216.1568627451 114.91718400000002 L 220.23529411765 99.864 L 224.3137254902 112.56016 L 228.39215686275 122.26857600000002 L 232.47058823529 109.390208 L 236.54901960784 95.056512 L 240.62745098039 104.14588799999999 L 244.70588235294 74.43196800000001 L 248.78431372549 102.13459200000003 L 252.86274509804 107.58915200000001 L 256.94117647059 91.76508800000002 L 261.01960784314 126.91488000000001 L 265.09803921569 77.97100799999998 L 269.17647058824 81.02182400000001 L 273.25490196078 74.516064 L 277.33333333333 67.91452800000002 L 281.41176470588 109.55139199999999 L 285.49019607843 83.56105600000001 L 289.56862745098 79.46838400000001 L 293.64705882353 72.43702400000001 L 297.72549019608 89.12540800000002 L 301.80392156863 107.74332800000002 L 305.88235294118 67.84211200000001 L 309.96078431373 79.02688 L 314.03921568627 97.28272000000001 L 318.11764705882 77.70470400000002 L 322.19607843137 104.900416 L 326.27450980392 69.32547199999999 L 330.35294117647 80.10844799999998 L 334.43137254902 67.807072 L 338.50980392157 98.39232000000001 L 342.58823529412 60.925216000000006 L 346.66666666667 73.31068800000003 L 350.74509803922 93.10361600000002 L 354.82352941176 88.041504 L 358.90196078431 61.71945599999998 L 362.98039215686 85.92508800000002 L 367.05882352941 78.84700800000002 L 371.13725490196 66.50825600000002 L 375.21568627451 77.48278400000001 L 379.29411764706 81.84176000000002 L 383.37254901961 61.82691199999999 L 387.45098039216 62.93417600000001 L 391.52941176471 63.44108800000001 L 395.60784313725 59.509600000000006 L 399.6862745098 66.96377600000002 L 403.76470588235 90.33779200000001 L 407.8431372549 121.303808 L 411.92156862745 85.864352" class="highcharts-graph" data-z-index="1" stroke="#7cb5ec" stroke-width="2" stroke-linejoin="round" stroke-linecap="round"></path></g><g class="highcharts-markers highcharts-series-0 highcharts-line-series highcharts-color-0" data-z-index="0.1" opacity="1" transform="translate(74,48) scale(1 1)" clip-path="none"></g><g class="highcharts-series highcharts-series-1 highcharts-line-series highcharts-color-1" data-z-index="0.1" opacity="1" transform="translate(74,48) scale(1 1)" clip-path="url(#highcharts-w0mjulv-2322-)"><path fill="none" d="M 4.078431372549 152.082944 L 8.156862745098 62.586112000000014 L 12.235294117647 67.61785600000002 L 16.313725490196 66.396128 L 20.392156862745 66.519936 L 24.470588235294 63.856896000000006 L 28.549019607843 64.510976 L 32.627450980392 65.008544 L 36.705882352941 67.49404800000002 L 40.78431372549 71.03776000000002 L 44.862745098039 65.13936000000001 L 48.941176470588 68.720448 L 53.019607843137 69.1456 L 57.098039215686 70.977024 L 61.176470588235 67.968256 L 65.254901960784 77.11135999999999 L 69.333333333333 77.279552 L 73.411764705882 81.804384 L 77.490196078431 69.84640000000002 L 81.56862745098 74.31750400000001 L 85.647058823529 82.766816 L 89.725490196078 79.58752000000001 L 93.803921568627 71.68249600000001 L 97.882352941176 76.730592 L 101.96078431373 88.75398400000003 L 106.03921568627 83.248032 L 110.11764705882 143.437408 L 114.19607843137 88.006464 L 118.27450980392 90.68352000000002 L 122.35294117647 144.86003200000002 L 126.43137254902 139.276992 L 130.50980392157 84.406688 L 134.58823529412 92.6808 L 138.66666666667 159.92256 L 142.74509803922 93.14099199999998 L 146.82352941176 127.223232 L 150.90196078431 131.90224 L 154.98039215686 171.52313600000002 L 159.05882352941 154.80671999999998 L 163.13725490196 138.457056 L 167.21568627451 192.131328 L 171.29411764706 126.555136 L 175.37254901961 185.882528 L 179.45098039216 150.44540800000001 L 183.52941176471 159.929568 L 187.60784313725 145.693984 L 191.6862745098 131.577536 L 195.76470588235 222.085856 L 199.8431372549 184.978496 L 203.92156862745 146.08409600000002 L 208 246.32419199999998 L 212.07843137255 231.819968 L 216.1568627451 126.95926400000002 L 220.23529411765 254.467488 L 224.3137254902 210.16992 L 228.39215686275 152.666944 L 232.47058823529 225.566496 L 236.54901960784 179.1712 L 240.62745098039 250.813984 L 244.70588235294 217.31808 L 248.78431372549 231.780256 L 252.86274509804 280.50688 L 256.94117647059 161.602144 L 261.01960784314 287.727456 L 265.09803921569 214.93769600000002 L 269.17647058824 200.286304 L 273.25490196078 251.31388800000002 L 277.33333333333 237.066624 L 281.41176470588 277.129024 L 285.49019607843 219.48121600000002 L 289.56862745098 216.57289600000001 L 293.64705882353 247.478176 L 297.72549019608 233.233248 L 301.80392156863 284.118336 L 305.88235294118 266.138144 L 309.96078431373 272.052896 L 314.03921568627 249.807168 L 318.11764705882 188.78384 L 322.19607843137 259.256288 L 326.27450980392 268.352672 L 330.35294117647 252.435168 L 334.43137254902 263.750752 L 338.50980392157 214.13411200000002 L 342.58823529412 259.501568 L 346.66666666667 270.796128 L 350.74509803922 272.816768 L 354.82352941176 255.222016 L 358.90196078431 216.57289600000001 L 362.98039215686 263.421376 L 367.05882352941 270.160736 L 371.13725490196 260.013152 L 375.21568627451 275.388704 L 379.29411764706 220.02083199999998 L 383.37254901961 289.129056 L 387.45098039216 278.610048 L 391.52941176471 269.016096 L 395.60784313725 237.762752 L 399.6862745098 245.871008 L 403.76470588235 285.583008 L 407.8431372549 282.76112 L 411.92156862745 250.942464" class="highcharts-graph" data-z-index="1" stroke="#434348" stroke-width="2" stroke-linejoin="round" stroke-linecap="round"></path></g><g class="highcharts-markers highcharts-series-1 highcharts-line-series highcharts-color-1" data-z-index="0.1" opacity="1" transform="translate(74,48) scale(1 1)" clip-path="none"></g></g><text x="250" text-anchor="middle" class="highcharts-title" data-z-index="4" style="color:#333333;font-size:18px;fill:#333333;" y="24"></text><text x="250" text-anchor="middle" class="highcharts-subtitle" data-z-index="4" style="color:#666666;fill:#666666;" y="24"></text><text x="10" text-anchor="start" class="highcharts-caption" data-z-index="4" style="color:#666666;fill:#666666;" y="397"></text><g class="highcharts-legend highcharts-no-tooltip" data-z-index="7" transform="translate(315,10)"><rect fill="none" class="highcharts-legend-box" rx="0" ry="0" x="0" y="0" width="175" height="26" visibility="visible"></rect><g data-z-index="1"><g><g class="highcharts-legend-item highcharts-line-series highcharts-color-0 highcharts-series-0" data-z-index="1" transform="translate(8,3)"><path fill="none" d="M 0 11 L 16 11" class="highcharts-graph" stroke="#7cb5ec" stroke-width="2"></path><path fill="#7cb5ec" d="M 8 15 A 4 4 0 1 1 8.003999999333336 14.999998000000167 Z" class="highcharts-point" opacity="1"></path><text x="21" style="color:#333333;cursor:pointer;font-size:12px;font-weight:bold;font-family:Aa般若楷书;fill:#333333;" text-anchor="start" data-z-index="2" y="15">真实图片</text></g><g class="highcharts-legend-item highcharts-line-series highcharts-color-1 highcharts-series-1" data-z-index="1" transform="translate(97,3)"><path fill="none" d="M 0 11 L 16 11" class="highcharts-graph" stroke="#434348" stroke-width="2"></path><path fill="#434348" d="M 8 7 L 12 11 L 8 15 L 4 11 Z" class="highcharts-point" opacity="1"></path><text x="21" y="15" style="color:#333333;cursor:pointer;font-size:12px;font-weight:bold;font-family:Aa般若楷书;fill:#333333;" text-anchor="start" data-z-index="2">生成图片</text></g></g></g></g><g class="highcharts-axis-labels highcharts-xaxis-labels" data-z-index="7"><text x="78.078431372549" style="color:#666666;cursor:default;font-size:11px;fill:#666666;" text-anchor="middle" transform="translate(0,0)" y="359" opacity="1">0</text><text x="479.54443359375" style="color:#666666;cursor:default;font-size:11px;fill:#666666;" text-anchor="middle" transform="translate(0,0)" y="359" opacity="1">100</text><text x="180.03921568627" style="color:#666666;cursor:default;font-size:11px;fill:#666666;" text-anchor="middle" transform="translate(0,0)" y="359" opacity="1">25</text><text x="282" style="color:#666666;cursor:default;font-size:11px;fill:#666666;" text-anchor="middle" transform="translate(0,0)" y="359" opacity="1">50</text><text x="383.96078431373" style="color:#666666;cursor:default;font-size:11px;fill:#666666;" text-anchor="middle" transform="translate(0,0)" y="359" opacity="1">75</text></g><g class="highcharts-axis-labels highcharts-yaxis-labels" data-z-index="7"><text x="59" style="color:#666666;cursor:default;font-size:11px;fill:#666666;" text-anchor="end" transform="translate(0,0)" y="344" opacity="1">0</text><text x="59" style="color:#666666;cursor:default;font-size:11px;fill:#666666;" text-anchor="end" transform="translate(0,0)" y="286" opacity="1">0.25</text><text x="59" style="color:#666666;cursor:default;font-size:11px;fill:#666666;" text-anchor="end" transform="translate(0,0)" y="227" opacity="1">0.5</text><text x="59" style="color:#666666;cursor:default;font-size:11px;fill:#666666;" text-anchor="end" transform="translate(0,0)" y="169" opacity="1">0.75</text><text x="59" style="color:#666666;cursor:default;font-size:11px;fill:#666666;" text-anchor="end" transform="translate(0,0)" y="110" opacity="1">1</text><text x="59" style="color:#666666;cursor:default;font-size:11px;fill:#666666;" text-anchor="end" transform="translate(0,0)" y="52" opacity="1">1.25</text></g></svg>