<svg xmlns:xlink="http://www.w3.org/1999/xlink" version="1.1" class="highcharts-root" style="font-family:&quot;Lucida Grande&quot;, &quot;Lucida Sans Unicode&quot;, Arial, Helvetica, sans-serif;font-size:12px;" xmlns="http://www.w3.org/2000/svg" width="500" height="400" viewBox="0 0 500 400"><desc>Created with Highcharts 9.3.3</desc><defs><clipPath id="highcharts-t16sjvw-2013-"><rect x="0" y="0" width="426" height="292" fill="none"></rect></clipPath><clipPath id="highcharts-t16sjvw-2514-"><rect x="0" y="0" width="426" height="292" fill="none"></rect></clipPath></defs><rect fill="#ffffff" class="highcharts-background" x="0" y="0" width="500" height="400" rx="0" ry="0"></rect><rect fill="none" class="highcharts-plot-background" x="64" y="48" width="426" height="292"></rect><g class="highcharts-grid highcharts-xaxis-grid" data-z-index="1"><path fill="none" stroke-dasharray="none" data-z-index="1" class="highcharts-grid-line" d="M 67.5 48 L 67.5 340" opacity="1"></path><path fill="none" stroke-dasharray="none" data-z-index="1" class="highcharts-grid-line" d="M 151.5 48 L 151.5 340" opacity="1"></path><path fill="none" stroke-dasharray="none" data-z-index="1" class="highcharts-grid-line" d="M 235.5 48 L 235.5 340" opacity="1"></path><path fill="none" stroke-dasharray="none" data-z-index="1" class="highcharts-grid-line" d="M 318.5 48 L 318.5 340" opacity="1"></path><path fill="none" stroke-dasharray="none" data-z-index="1" class="highcharts-grid-line" d="M 402.5 48 L 402.5 340" opacity="1"></path><path fill="none" stroke-dasharray="none" data-z-index="1" class="highcharts-grid-line" d="M 486.5 48 L 486.5 340" opacity="1"></path></g><g class="highcharts-grid highcharts-yaxis-grid" data-z-index="1"><path fill="none" stroke="#e6e6e6" stroke-width="1" stroke-dasharray="none" data-z-index="1" class="highcharts-grid-line" d="M 64 340.5 L 490 340.5" opacity="1"></path><path fill="none" stroke="#e6e6e6" stroke-width="1" stroke-dasharray="none" data-z-index="1" class="highcharts-grid-line" d="M 64 282.5 L 490 282.5" opacity="1"></path><path fill="none" stroke="#e6e6e6" stroke-width="1" stroke-dasharray="none" data-z-index="1" class="highcharts-grid-line" d="M 64 223.5 L 490 223.5" opacity="1"></path><path fill="none" stroke="#e6e6e6" stroke-width="1" stroke-dasharray="none" data-z-index="1" class="highcharts-grid-line" d="M 64 165.5 L 490 165.5" opacity="1"></path><path fill="none" stroke="#e6e6e6" stroke-width="1" stroke-dasharray="none" data-z-index="1" class="highcharts-grid-line" d="M 64 106.5 L 490 106.5" opacity="1"></path><path fill="none" stroke="#e6e6e6" stroke-width="1" stroke-dasharray="none" data-z-index="1" class="highcharts-grid-line" d="M 64 47.5 L 490 47.5" opacity="1"></path></g><rect fill="none" class="highcharts-plot-border" data-z-index="1" x="64" y="48" width="426" height="292"></rect><g class="highcharts-axis highcharts-xaxis" data-z-index="2"><path fill="none" class="highcharts-tick" stroke="#ccd6eb" stroke-width="1" d="M 67.5 340 L 67.5 350" opacity="1"></path><path fill="none" class="highcharts-tick" stroke="#ccd6eb" stroke-width="1" d="M 151.5 340 L 151.5 350" opacity="1"></path><path fill="none" class="highcharts-tick" stroke="#ccd6eb" stroke-width="1" d="M 235.5 340 L 235.5 350" opacity="1"></path><path fill="none" class="highcharts-tick" stroke="#ccd6eb" stroke-width="1" d="M 318.5 340 L 318.5 350" opacity="1"></path><path fill="none" class="highcharts-tick" stroke="#ccd6eb" stroke-width="1" d="M 402.5 340 L 402.5 350" opacity="1"></path><path fill="none" class="highcharts-tick" stroke="#ccd6eb" stroke-width="1" d="M 486.5 340 L 486.5 350" opacity="1"></path><text x="277" data-z-index="7" text-anchor="middle" transform="translate(0,0)" class="highcharts-axis-title" style="color:#666666;fill:#666666;" y="379">epoch</text><path fill="none" class="highcharts-axis-line" stroke="#ccd6eb" stroke-width="1" data-z-index="7" d="M 64 340.5 L 490 340.5"></path></g><g class="highcharts-axis highcharts-yaxis" data-z-index="2"><text x="25.04443359375" data-z-index="7" text-anchor="middle" transform="translate(0,0) rotate(270 25.04443359375 194)" class="highcharts-axis-title" style="color:black;font-family:Aa般若楷书;font-size:12px;fill:black;" y="194">训练损失</text><path fill="none" class="highcharts-axis-line" data-z-index="7" d="M 64 48 L 64 340"></path></g><g class="highcharts-series-group" data-z-index="3"><g class="highcharts-series highcharts-series-0 highcharts-line-series highcharts-color-0" data-z-index="0.1" opacity="1" transform="translate(64,48) scale(1 1)" clip-path="url(#highcharts-t16sjvw-2514-)"><path fill="none" d="M 4.1764705882353 289.203808 L 5.0134386419899 289.843872 L 5.8504066957444 290.529488 L 6.687374749499 289.91366 L 7.5243428032536 291.033772 L 8.3613108570081 291.13568 L 9.1982789107627 290.39692 L 10.035246964517 290.947632 L 10.872215018272 291.436148 L 11.709183072026 291.151156 L 12.546151125781 291.451332 L 13.383119179536 291.511192 L 14.22008723329 291.393516 L 15.057055287045 290.386116 L 15.894023340799 291.512652 L 16.730991394554 291.280512 L 17.567959448308 281.889792 L 18.404927502063 291.498344 L 19.241895555818 291.698948 L 20.078863609572 291.492212 L 20.915831663327 291.654272 L 21.752799717081 290.960772 L 22.589767770836 291.354096 L 23.42673582459 291.536304 L 24.263703878345 290.068128 L 25.100671932099 291.71238 L 25.937639985854 291.872104 L 26.774608039609 291.054504 L 27.611576093363 291.49776 L 28.448544147118 291.7153 L 29.285512200872 291.768152 L 30.122480254627 291.80874 L 30.959448308381 291.852248 L 31.796416362136 291.942768 L 32.633384415891 291.990656 L 33.470352469645 291.896632 L 34.3073205234 291.991532 L 35.144288577154 285.601988 L 35.981256630909 247.772804 L 36.818224684663 282.0355 L 37.655192738418 288.538924 L 38.492160792173 278.295272 L 39.329128845927 283.526744 L 40.166096899682 282.933692 L 41.003064953436 284.822932 L 41.840033007191 285.4081 L 42.677001060945 283.448488 L 43.5139691147 276.080452 L 44.350937168455 281.219652 L 45.187905222209 282.245156 L 46.024873275964 284.62408 L 46.861841329718 280.879764 L 47.698809383473 282.62826 L 48.535777437227 280.738436 L 49.372745490982 282.517008 L 50.209713544737 285.21538 L 51.046681598491 288.383288 L 51.883649652246 285.780692 L 52.720617706 285.430584 L 53.557585759755 284.122716 L 54.394553813509 288.281088 L 55.231521867264 287.101116 L 56.068489921019 284.037744 L 56.905457974773 284.858556 L 57.742426028528 288.681712 L 58.579394082282 287.505244 L 59.416362136037 286.486456 L 60.253330189791 287.000084 L 61.090298243546 280.353288 L 61.9272662973 278.622312 L 62.764234351055 283.393884 L 63.60120240481 281.516616 L 64.438170458564 288.61572 L 65.275138512319 288.642 L 66.112106566073 282.444592 L 66.949074619828 280.028876 L 67.786042673582 288.347372 L 68.623010727337 276.709128 L 69.459978781092 283.74808 L 70.296946834846 284.52918 L 71.133914888601 285.272028 L 71.970882942355 285.456572 L 72.80785099611 286.19883600000003 L 73.644819049864 280.9624 L 74.481787103619 285.432336 L 75.318755157374 286.999208 L 76.155723211128 287.464364 L 76.992691264883 286.862552 L 77.829659318637 289.139568 L 78.666627372392 289.280312 L 79.503595426146 289.848544 L 80.340563479901 288.415992 L 81.177531533656 278.10518 L 82.01449958741 285.387952 L 82.851467641165 282.458608 L 83.688435694919 278.1738 L 84.525403748674 284.449756 L 85.362371802428 281.865848 L 86.199339856183 289.248776 L 87.036307909938 281.49384 L 87.873275963692 287.18638 L 88.710244017447 285.44314 L 89.547212071201 287.99522 L 90.384180124956 286.567048 L 91.22114817871 286.257236 L 92.058116232465 281.766568 L 92.895084286219 283.629528 L 93.732052339974 288.399348 L 94.569020393729 289.043792 L 95.405988447483 288.891368 L 96.242956501238 290.54 L 97.079924554992 288.000768 L 97.916892608747 289.66984 L 98.753860662501 290.8612 L 99.590828716256 289.250528 L 100.42779677001 272.366212 L 101.26476482377 283.27212 L 102.10173287752 280.798588 L 102.93870093127 282.217124 L 103.77566898503 280.228604 L 104.61263703878 285.619216 L 105.44960509254 283.524992 L 106.28657314629 284.040372 L 107.12354120005 285.456864 L 107.9605092538 288.705948 L 108.79747730756 283.809692 L 109.63444536131 288.86392 L 110.47141341507 289.706924 L 111.30838146882 287.794324 L 112.14534952257 284.318648 L 112.98231757633 285.148804 L 113.81928563008 288.87706000000003 L 114.65625368384 283.379284 L 115.49322173759 284.440996 L 116.33018979135 288.884068 L 117.1671578451 276.30062 L 118.00412589886 283.621352 L 118.84109395261 275.044436 L 119.67806200637 281.712256 L 120.51503006012 283.81962 L 121.35199811387 288.093624 L 122.18896616763 287.556928 L 123.02593422138 287.4521 L 123.86290227514 282.32896 L 124.69987032889 287.914044 L 125.53683838265 290.6203 L 126.3738064364 286.254608 L 127.21077449016 288.20108 L 128.04774254391 288.78362 L 128.88471059767 290.686584 L 129.72167865142 290.735348 L 130.55864670518 283.244672 L 131.39561475893 282.98508400000003 L 132.23258281268 284.973604 L 133.06955086644 286.092256 L 133.90651892019 291.052752 L 134.74348697395 286.51624 L 135.5804550277 290.011188 L 136.41742308146 289.122632 L 137.25439113521 289.469528 L 138.09135918897 290.299392 L 138.92832724272 281.583776 L 139.76529529648 284.844248 L 140.60226335023 288.597616 L 141.43923140398 288.371316 L 142.27619945774 290.989096 L 143.11316751149 285.142964 L 143.95013556525 284.899728 L 144.787103619 283.413448 L 145.62407167276 283.684716 L 146.46103972651 288.1821 L 147.29800778027 289.389228 L 148.13497583402 287.5762 L 148.97194388778 248.343956 L 149.80891194153 284.958128 L 150.64587999528 284.2036 L 151.48284804904 281.321268 L 152.31981610279 282.774844 L 153.15678415655 282.667388 L 153.9937522103 277.014852 L 154.83072026406 279.547076 L 155.66768831781 273.18644 L 156.50465637157 281.20184 L 157.34162442532 281.145192 L 158.17859247908 275.919268 L 159.01556053283 283.66048 L 159.85252858658 279.413048 L 160.68949664034 283.579012 L 161.52646469409 281.549612 L 162.36343274785 280.503084 L 163.2004008016 277.553592 L 164.03736885536 281.414708 L 164.87433690911 284.859432 L 165.71130496287 284.037452 L 166.54827301662 284.65036 L 167.38524107038 283.20788 L 168.22220912413 285.133328 L 169.05917717789 270.039848 L 169.89614523164 287.121556 L 170.73311328539 286.090796 L 171.57008133915 287.747896 L 172.4070493929 285.887272 L 173.24401744666 286.695236 L 174.08098550041 286.541352 L 174.91795355417 286.151532 L 175.75492160792 288.169544 L 176.59188966168 287.835204 L 177.42885771543 286.682972 L 178.26582576919 286.17606 L 179.10279382294 286.693192 L 179.93976187669 286.79364 L 180.77672993045 290.1823 L 181.6136979842 283.706616 L 182.45066603796 287.223464 L 183.28763409171 285.913552 L 184.12460214547 285.972828 L 184.96157019922 286.315344 L 185.79853825298 285.955892 L 186.63550630673 285.86362 L 187.47247436049 285.175376 L 188.30944241424 287.455604 L 189.14641046799 287.684824 L 189.98337852175 288.570168 L 190.8203465755 288.487532 L 191.65731462926 286.281764 L 192.49428268301 280.350368 L 193.33125073677 283.13196 L 194.16821879052 286.667496 L 195.00518684428 285.469128 L 195.84215489803 288.356132 L 196.67912295179 286.727648 L 197.51609100554 285.5103 L 198.3530590593 287.315152 L 199.19002711305 287.8828 L 200.0269951668 287.838708 L 200.86396322056 289.213444 L 201.70093127431 290.503208 L 202.53789932807 291.381544 L 203.37486738182 286.04028 L 204.21183543558 285.704188 L 205.04880348933 284.805412 L 205.88577154309 287.548168 L 206.72273959684 287.056732 L 207.5597076506 287.503492 L 208.39667570435 286.806488 L 209.2336437581 289.4085 L 210.07061181186 288.742448 L 210.90757986561 290.8612 L 211.74454791937 290.919892 L 212.58151597312 290.809224 L 213.41848402688 290.600444 L 214.25545208063 289.581364 L 215.09242013439 291.422132 L 215.92938818814 282.769296 L 216.7663562419 289.457556 L 217.60332429565 290.323044 L 218.4402923494 289.433612 L 219.27726040316 291.05246 L 220.11422845691 290.647164 L 220.95119651067 290.263768 L 221.78816456442 290.274572 L 222.62513261818 291.26854 L 223.46210067193 291.088084 L 224.29906872569 291.07582 L 225.13603677944 291.447536 L 225.9730048332 291.333364 L 226.80997288695 291.355264 L 227.6469409407 291.63792 L 228.48390899446 291.7372 L 229.32087704821 288.346496 L 230.15784510197 291.068812 L 230.99481315572 290.07572 L 231.83178120948 289.737292 L 232.66874926323 265.151184 L 233.50571731699 282.372176 L 234.34268537074 282.680528 L 235.1796534245 281.032188 L 236.01662147825 284.934768 L 236.85358953201 283.498128 L 237.69055758576 286.687352 L 238.52752563951 283.893204 L 239.36449369327 284.36712 L 240.20146174702 287.515464 L 241.03842980078 287.056732 L 241.87539785453 285.071424 L 242.71236590829 286.515072 L 243.54933396204 282.767836 L 244.3863020158 281.989948 L 245.22327006955 285.206912 L 246.06023812331 283.187148 L 246.89720617706 289.033572 L 247.73417423081 280.642368 L 248.57114228457 281.278636 L 249.40811033832 284.510492 L 250.24507839208 284.258204 L 251.08204644583 281.386092 L 251.91901449959 283.183644 L 252.75598255334 284.987328 L 253.5929506071 283.150648 L 254.42991866085 287.090604 L 255.26688671461 285.740688 L 256.10385476836 285.508256 L 256.94082282211 285.485188 L 257.77779087587 275.33118 L 258.61475892962 283.019248 L 259.45172698338 284.180532 L 260.28869503713 281.174976 L 261.12566309089 281.94498 L 261.96263114464 282.707392 L 262.7995991984 281.33908 L 263.63656725215 282.21975199999997 L 264.47353530591 285.558188 L 265.31050335966 286.677424 L 266.14747141342 279.5316 L 266.98443946717 284.739712 L 267.82140752092 282.31728 L 268.65837557468 282.375388 L 269.49534362843 275.464624 L 270.33231168219 281.852416 L 271.16927973594 282.8677 L 272.0062477897 285.081644 L 272.84321584345 281.627868 L 273.68018389721 282.557596 L 274.51715195096 284.31456000000003 L 275.35412000472 285.437008 L 276.19108805847 286.398856 L 277.02805611222 280.631856 L 277.86502416598 287.13528 L 278.70199221973 283.878312 L 279.53896027349 285.262392 L 280.37592832724 285.288964 L 281.212896381 283.190068 L 282.04986443475 280.025956 L 282.88683248851 280.846184 L 283.72380054226 282.96114 L 284.56076859602 285.13508 L 285.39773664977 286.061888 L 286.23470470352 285.244288 L 287.07167275728 286.116492 L 287.90864081103 285.498328 L 288.74560886479 286.30454 L 289.58257691854 286.590408 L 290.4195449723 285.0723 L 291.25651302605 287.256168 L 292.09348107981 284.349016 L 292.93044913356 284.725112 L 293.76741718732 285.714116 L 294.60438524107 286.833644 L 295.44135329482 284.484212 L 296.27832134858 273.13534 L 297.11528940233 279.289532 L 297.95225745609 285.598484 L 298.78922550984 285.742732 L 299.6261935636 279.613068 L 300.46316161735 289.717728 L 301.30012967111 289.799196 L 302.13709772486 289.120296 L 302.97406577862 281.21498 L 303.81103383237 282.371592 L 304.64800188613 276.885496 L 305.48496993988 283.687636 L 306.32193799363 286.144524 L 307.15890604739 283.39476 L 307.99587410114 277.932316 L 308.8328421549 278.583476 L 309.66981020865 285.5103 L 310.50677826241 283.473892 L 311.34374631616 283.398264 L 312.18071436992 287.907036 L 313.01768242367 281.93476 L 313.85465047743 284.739712 L 314.69161853118 287.537072 L 315.52858658493 284.766576 L 316.36555463869 288.29452 L 317.20252269244 282.24866 L 318.0394907462 283.73786 L 318.87645879995 284.722484 L 319.71342685371 284.04008 L 320.55039490746 282.552924 L 321.38736296122 283.710996 L 322.22433101497 283.753336 L 323.06129906873 285.631188 L 323.89826712248 280.180132 L 324.73523517623 285.025288 L 325.57220322999 285.428832 L 326.40917128374 284.63021200000003 L 327.2461393375 283.781952 L 328.08310739125 289.33842 L 328.92007544501 284.96864 L 329.75704349876 284.624372 L 330.59401155252 286.942268 L 331.43097960627 289.10774 L 332.26794766003 287.915504 L 333.10491571378 286.37024 L 333.94188376754 287.59664 L 334.77885182129 284.113664 L 335.61581987504 283.75246 L 336.4527879288 290.267856 L 337.28975598255 289.328784 L 338.12672403631 279.886964 L 338.96369209006 287.04476 L 339.80066014382 287.109584 L 340.63762819757 279.764324 L 341.47459625133 282.82536 L 342.31156430508 280.551848 L 343.14853235884 288.286052 L 343.98550041259 286.5761 L 344.82246846634 282.476128 L 345.6594365201 284.838116 L 346.49640457385 274.68148 L 347.33337262761 288.238748 L 348.17034068136 286.797436 L 349.00730873512 283.129332 L 349.84427678887 285.829164 L 350.68124484263 287.207988 L 351.51821289638 287.165356 L 352.35518095014 289.757148 L 353.19214900389 289.749556 L 354.02911705764 291.45834 L 354.8660851114 290.077764 L 355.70305316515 269.785808 L 356.54002121891 281.910232 L 357.37698927266 277.61608 L 358.21395732642 283.732312 L 359.05092538017 285.538916 L 359.88789343393 287.810676 L 360.72486148768 283.39621999999997 L 361.56182954144 284.88396 L 362.39879759519 286.580188 L 363.23576564894 282.89982 L 364.0727337027 288.762596 L 364.90970175645 284.883668 L 365.74666981021 290.931572 L 366.58363786396 283.662232 L 367.42060591772 279.70242 L 368.25757397147 278.685676 L 369.09454202523 279.86156 L 369.93151007898 276.604592 L 370.76847813274 279.875284 L 371.60544618649 282.34414400000003 L 372.44241424025 285.6198 L 373.279382294 278.86438 L 374.11635034775 278.24388 L 374.95331840151 284.725696 L 375.79028645526 281.405072 L 376.62725450902 284.03278 L 377.46422256277 287.74264 L 378.30119061653 288.618056 L 379.13815867028 290.201572 L 379.97512672404 286.219568 L 380.81209477779 289.56034 L 381.64906283155 289.049632 L 382.4860308853 280.564112 L 383.32299893905 282.39466 L 384.15996699281 283.48966 L 384.99693504656 284.364492 L 385.83390310032 284.112496 L 386.67087115407 282.69542 L 387.50783920783 285.41686 L 388.34480726158 283.216056 L 389.18177531534 282.36108 L 390.01874336909 283.763556 L 390.85571142285 289.4961 L 391.6926794766 287.61124 L 392.52964753035 289.710136 L 393.36661558411 280.626892 L 394.20358363786 281.735908 L 395.04055169162 286.23592 L 395.87751974537 284.068988 L 396.71448779913 283.845024 L 397.55145585288 286.955992 L 398.38842390664 288.235244 L 399.22539196039 285.093032 L 400.06236001415 286.128756 L 400.8993280679 287.803668 L 401.73629612166 281.035692 L 402.57326417541 288.163412 L 403.41023222916 288.681128 L 404.24720028292 291.519076 L 405.08416833667 278.808316 L 405.92113639043 281.225784 L 406.75810444418 285.928152 L 407.59507249794 283.915396 L 408.43204055169 286.219276 L 409.26900860545 286.820796 L 410.1059766592 289.115332 L 410.94294471296 281.16767600000003 L 411.77991276671 288.496292 L 412.61688082046 289.211984 L 413.45384887422 288.661272 L 414.29081692797 283.382496 L 415.12778498173 282.706808 L 415.96475303548 291.328984 L 416.80172108924 286.061888 L 417.63868914299 291.297156 L 418.47565719675 290.392248 L 419.3126252505 291.376872 L 420.14959330426 290.809224 L 420.98656135801 289.964176 L 421.82352941176 291.697196" class="highcharts-graph" data-z-index="1" stroke="#7cb5ec" stroke-width="2" stroke-linejoin="round" stroke-linecap="round"></path></g><g class="highcharts-markers highcharts-series-0 highcharts-line-series highcharts-color-0" data-z-index="0.1" opacity="1" transform="translate(64,48) scale(1 1)" clip-path="none"></g><g class="highcharts-series highcharts-series-1 highcharts-line-series highcharts-color-1" data-z-index="0.1" opacity="1" transform="translate(64,48) scale(1 1)" clip-path="url(#highcharts-t16sjvw-2514-)"><path fill="none" d="M 4.1764705882353 291.328108 L 5.0134386419899 290.81156 L 5.8504066957444 290.151932 L 6.687374749499 289.580196 L 7.5243428032536 285.935744 L 8.3613108570081 289.863144 L 9.1982789107627 290.082728 L 10.035246964517 288.664776 L 10.872215018272 287.831992 L 11.709183072026 284.1963 L 12.546151125781 278.636036 L 13.383119179536 277.170488 L 14.22008723329 273.631156 L 15.057055287045 278.311916 L 15.894023340799 266.520956 L 16.730991394554 237.095824 L 17.567959448308 248.08962400000001 L 18.404927502063 252.373848 L 19.241895555818 216.784596 L 20.078863609572 271.324356 L 20.915831663327 211.22783600000002 L 21.752799717081 273.355508 L 22.589767770836 231.438908 L 23.42673582459 245.591564 L 24.263703878345 221.103276 L 25.100671932099 239.133984 L 25.937639985854 191.973064 L 26.774608039609 231.516872 L 27.611576093363 218.332488 L 28.448544147118 207.431544 L 29.285512200872 204.349776 L 30.122480254627 192.06446 L 30.959448308381 223.007992 L 31.796416362136 251.892632 L 32.633384415891 169.481472 L 33.470352469645 249.884548 L 34.3073205234 291.986276 L 35.144288577154 290.439552 L 35.981256630909 271.72206 L 36.818224684663 280.76092 L 37.655192738418 277.923264 L 38.492160792173 271.498096 L 39.329128845927 264.202768 L 40.166096899682 256.437612 L 41.003064953436 280.900204 L 41.840033007191 274.437368 L 42.677001060945 274.174568 L 43.5139691147 269.868152 L 44.350937168455 278.403896 L 45.187905222209 259.872408 L 46.024873275964 273.21972800000003 L 46.861841329718 275.738228 L 47.698809383473 274.124344 L 48.535777437227 270.804304 L 49.372745490982 281.345212 L 50.209713544737 264.75435600000003 L 51.046681598491 276.923164 L 51.883649652246 282.385608 L 52.720617706 280.90108 L 53.557585759755 281.017588 L 54.394553813509 275.63486 L 55.231521867264 262.404048 L 56.068489921019 287.6638 L 56.905457974773 248.292564 L 57.742426028528 274.705132 L 58.579394082282 277.926476 L 59.416362136037 275.722752 L 60.253330189791 278.158908 L 61.090298243546 285.366344 L 61.9272662973 248.922116 L 62.764234351055 283.817868 L 63.60120240481 267.494192 L 64.438170458564 248.799476 L 65.275138512319 268.489912 L 66.112106566073 280.826912 L 66.949074619828 256.34826 L 67.786042673582 281.426972 L 68.623010727337 287.327708 L 69.459978781092 275.711072 L 70.296946834846 268.38012 L 71.133914888601 277.41898 L 71.970882942355 273.286012 L 72.80785099611 269.337588 L 73.644819049864 270.309948 L 74.481787103619 256.05042000000003 L 75.318755157374 279.11112 L 76.155723211128 282.024988 L 76.992691264883 260.741108 L 77.829659318637 272.9689 L 78.666627372392 235.320172 L 79.503595426146 274.089012 L 80.340563479901 273.07402 L 81.177531533656 276.332448 L 82.01449958741 281.297616 L 82.851467641165 258.759304 L 83.688435694919 287.142288 L 84.525403748674 278.242128 L 85.362371802428 280.540168 L 86.199339856183 279.947992 L 87.036307909938 283.097504 L 87.873275963692 279.027316 L 88.710244017447 281.810952 L 89.547212071201 279.93602 L 90.384180124956 261.497388 L 91.22114817871 275.09466 L 92.058116232465 275.479224 L 92.895084286219 272.667264 L 93.732052339974 185.14318400000002 L 94.569020393729 213.966796 L 95.405988447483 162.11548 L 96.242956501238 222.066 L 97.079924554992 219.48764 L 97.916892608747 246.762776 L 98.753860662501 206.223248 L 99.590828716256 271.251648 L 100.42779677001 275.797796 L 101.26476482377 279.586496 L 102.10173287752 282.238732 L 102.93870093127 279.382388 L 103.77566898503 253.74712399999999 L 104.61263703878 275.909632 L 105.44960509254 275.717496 L 106.28657314629 270.020284 L 107.12354120005 209.573948 L 107.9605092538 265.684668 L 108.79747730756 270.47084 L 109.63444536131 239.614032 L 110.47141341507 214.462028 L 111.30838146882 269.343136 L 112.14534952257 276.473776 L 112.98231757633 266.2164 L 113.81928563008 273.29448 L 114.65625368384 285.349992 L 115.49322173759 263.774404 L 116.33018979135 204.20669600000002 L 117.1671578451 273.328936 L 118.00412589886 279.7214 L 118.84109395261 278.608588 L 119.67806200637 255.33472799999998 L 120.51503006012 241.636716 L 121.35199811387 282.60227199999997 L 122.18896616763 269.02398 L 123.02593422138 279.793524 L 123.86290227514 273.493916 L 124.69987032889 264.733916 L 125.53683838265 278.603332 L 126.3738064364 283.754796 L 127.21077449016 284.504068 L 128.04774254391 256.270004 L 128.88471059767 243.400104 L 129.72167865142 281.786424 L 130.55864670518 276.260324 L 131.39561475893 283.555068 L 132.23258281268 269.704924 L 133.06955086644 263.357428 L 133.90651892019 284.339088 L 134.74348697395 283.247592 L 135.5804550277 281.400108 L 136.41742308146 192.94922 L 137.25439113521 276.619776 L 138.09135918897 267.293296 L 138.92832724272 281.8092 L 139.76529529648 254.669552 L 140.60226335023 176.011176 L 141.43923140398 238.43347599999998 L 142.27619945774 281.993744 L 143.11316751149 277.111212 L 143.95013556525 286.158832 L 144.787103619 264.880208 L 145.62407167276 217.24216 L 146.46103972651 256.325484 L 147.29800778027 248.35738800000001 L 148.13497583402 199.839252 L 148.97194388778 290.946756 L 149.80891194153 278.836056 L 150.64587999528 279.75644 L 151.48284804904 277.727332 L 152.31981610279 276.805488 L 153.15678415655 279.645772 L 153.9937522103 284.091472 L 154.83072026406 267.443384 L 155.66768831781 280.781652 L 156.50465637157 263.87164 L 157.34162442532 264.551416 L 158.17859247908 262.498364 L 159.01556053283 275.486816 L 159.85252858658 284.115416 L 160.68949664034 276.701828 L 161.52646469409 274.200848 L 162.36343274785 274.488176 L 163.2004008016 283.765892 L 164.03736885536 257.473336 L 164.87433690911 267.9465 L 165.71130496287 259.4128 L 166.54827301662 282.6049 L 167.38524107038 273.48136 L 168.22220912413 271.167552 L 169.05917717789 267.72604 L 169.89614523164 278.272496 L 170.73311328539 277.6701 L 171.57008133915 282.35524 L 172.4070493929 266.07186 L 173.24401744666 278.14168 L 174.08098550041 274.359696 L 174.91795355417 266.103688 L 175.75492160792 280.716536 L 176.59188966168 271.002864 L 177.42885771543 260.610584 L 178.26582576919 260.617008 L 179.10279382294 257.678612 L 179.93976187669 234.835452 L 180.77672993045 252.836376 L 181.6136979842 280.261016 L 182.45066603796 276.859508 L 183.28763409171 261.14144 L 184.12460214547 271.568176 L 184.96157019922 249.181412 L 185.79853825298 275.185764 L 186.63550630673 276.923748 L 187.47247436049 257.23564799999997 L 188.30944241424 238.571592 L 189.14641046799 243.654436 L 189.98337852175 186.86978 L 190.8203465755 276.625032 L 191.65731462926 274.664544 L 192.49428268301 278.419956 L 193.33125073677 276.648392 L 194.16821879052 271.269752 L 195.00518684428 220.932456 L 195.84215489803 280.173708 L 196.67912295179 263.278004 L 197.51609100554 241.415964 L 198.3530590593 270.484564 L 199.19002711305 224.82773600000002 L 200.0269951668 240.01524 L 200.86396322056 236.056304 L 201.70093127431 187.97500000000002 L 202.53789932807 256.658948 L 203.37486738182 270.224392 L 204.21183543558 265.569328 L 205.04880348933 265.44289200000003 L 205.88577154309 259.15 L 206.72273959684 258.830552 L 207.5597076506 251.782548 L 208.39667570435 132.15336000000002 L 209.2336437581 247.33276 L 210.07061181186 161.463736 L 210.90757986561 261.74150000000003 L 211.74454791937 223.602504 L 212.58151597312 223.19282800000002 L 213.41848402688 245.35154 L 214.25545208063 162.536252 L 215.09242013439 226.25912 L 215.92938818814 278.487408 L 216.7663562419 266.227496 L 217.60332429565 232.342064 L 218.4402923494 230.505968 L 219.27726040316 254.735836 L 220.11422845691 202.71428400000002 L 220.95119651067 215.182684 L 221.78816456442 232.947964 L 222.62513261818 218.07523600000002 L 223.46210067193 148.412212 L 224.29906872569 121.77976799999999 L 225.13603677944 246.577356 L 225.9730048332 231.659076 L 226.80997288695 229.729248 L 227.6469409407 227.128404 L 228.48390899446 248.209928 L 229.32087704821 265.254844 L 230.15784510197 258.308748 L 230.99481315572 250.802012 L 231.83178120948 285.303564 L 232.66874926323 289.45668 L 233.50571731699 286.791888 L 234.34268537074 284.337336 L 235.1796534245 283.363224 L 236.01662147825 276.333324 L 236.85358953201 267.518428 L 237.69055758576 279.211276 L 238.52752563951 270.72254399999997 L 239.36449369327 281.914904 L 240.20146174702 262.06562 L 241.03842980078 272.662592 L 241.87539785453 269.610024 L 242.71236590829 273.42588 L 243.54933396204 282.843464 L 244.3863020158 270.163656 L 245.22327006955 279.54766 L 246.06023812331 282.359328 L 246.89720617706 276.4145 L 247.73417423081 278.609172 L 248.57114228457 274.495184 L 249.40811033832 275.033924 L 250.24507839208 279.034032 L 251.08204644583 277.89669200000003 L 251.91901449959 270.882852 L 252.75598255334 279.212152 L 253.5929506071 282.603148 L 254.42991866085 273.370108 L 255.26688671461 258.759888 L 256.10385476836 257.182796 L 256.94082282211 272.897068 L 257.77779087587 278.622312 L 258.61475892962 281.029268 L 259.45172698338 273.78796 L 260.28869503713 278.633116 L 261.12566309089 281.788176 L 261.96263114464 279.612484 L 262.7995991984 278.600412 L 263.63656725215 261.914364 L 264.47353530591 268.175136 L 265.31050335966 270.039264 L 266.14747141342 269.76858 L 266.98443946717 276.625616 L 267.82140752092 275.485356 L 268.65837557468 279.614528 L 269.49534362843 281.207096 L 270.33231168219 266.548404 L 271.16927973594 280.517392 L 272.0062477897 257.711024 L 272.84321584345 275.24358 L 273.68018389721 269.32182 L 274.51715195096 271.76294 L 275.35412000472 257.86958 L 276.19108805847 272.124436 L 277.02805611222 270.58910000000003 L 277.86502416598 281.608012 L 278.70199221973 281.638672 L 279.53896027349 263.355968 L 280.37592832724 279.361948 L 281.212896381 264.039832 L 282.04986443475 287.522764 L 282.88683248851 286.031228 L 283.72380054226 274.539568 L 284.56076859602 282.72024 L 285.39773664977 273.794384 L 286.23470470352 276.618608 L 287.07167275728 278.31834 L 287.90864081103 265.166952 L 288.74560886479 267.41798 L 289.58257691854 275.372936 L 290.4195449723 275.063416 L 291.25651302605 271.087252 L 292.09348107981 279.777464 L 292.93044913356 252.893316 L 293.76741718732 256.885832 L 294.60438524107 277.39883199999997 L 295.44135329482 244.979532 L 296.27832134858 270.051236 L 297.11528940233 276.834104 L 297.95225745609 285.6125 L 298.78922550984 267.594348 L 299.6261935636 246.92834 L 300.46316161735 282.485764 L 301.30012967111 141.14112 L 302.13709772486 246.04504 L 302.97406577862 268.661608 L 303.81103383237 263.343412 L 304.64800188613 282.155512 L 305.48496993988 284.33646 L 306.32193799363 280.242328 L 307.15890604739 279.160468 L 307.99587410114 286.693192 L 308.8328421549 268.448156 L 309.66981020865 279.162512 L 310.50677826241 281.844532 L 311.34374631616 282.750024 L 312.18071436992 284.171188 L 313.01768242367 279.648692 L 313.85465047743 276.896884 L 314.69161853118 275.603908 L 315.52858658493 280.799756 L 316.36555463869 284.413256 L 317.20252269244 284.853884 L 318.0394907462 280.74924 L 318.87645879995 286.664284 L 319.71342685371 219.26425999999998 L 320.55039490746 278.90234 L 321.38736296122 273.168336 L 322.22433101497 287.292668 L 323.06129906873 273.158408 L 323.89826712248 264.494768 L 324.73523517623 283.9116 L 325.57220322999 276.096512 L 326.40917128374 278.249428 L 327.2461393375 236.144488 L 328.08310739125 259.071744 L 328.92007544501 280.387744 L 329.75704349876 282.773092 L 330.59401155252 277.889684 L 331.43097960627 284.525676 L 332.26794766003 283.536672 L 333.10491571378 281.123876 L 333.94188376754 274.796528 L 334.77885182129 237.895904 L 335.61581987504 237.25 L 336.4527879288 197.201616 L 337.28975598255 276.77366 L 338.12672403631 281.634 L 338.96369209006 275.991976 L 339.80066014382 281.534136 L 340.63762819757 283.239416 L 341.47459625133 283.49988 L 342.31156430508 271.177188 L 343.14853235884 279.550872 L 343.98550041259 288.81136 L 344.82246846634 268.0998 L 345.6594365201 238.902428 L 346.49640457385 264.16364 L 347.33337262761 269.145452 L 348.17034068136 261.238676 L 349.00730873512 282.859232 L 349.84427678887 275.310156 L 350.68124484263 269.953708 L 351.51821289638 240.60362 L 352.35518095014 266.830768 L 353.19214900389 185.073688 L 354.02911705764 180.012744 L 354.8660851114 282.836456 L 355.70305316515 281.621152 L 356.54002121891 284.372668 L 357.37698927266 280.857572 L 358.21395732642 281.341708 L 359.05092538017 280.21488 L 359.88789343393 271.89930400000003 L 360.72486148768 282.783604 L 361.56182954144 277.3854 L 362.39879759519 282.455104 L 363.23576564894 265.224184 L 364.0727337027 283.297816 L 364.90970175645 225.261356 L 365.74666981021 278.225776 L 366.58363786396 287.946456 L 367.42060591772 284.202724 L 368.25757397147 278.931248 L 369.09454202523 274.085216 L 369.93151007898 277.971736 L 370.76847813274 285.1745 L 371.60544618649 278.982056 L 372.44241424025 268.736652 L 373.279382294 279.44604400000003 L 374.11635034775 247.881136 L 374.95331840151 278.317756 L 375.79028645526 246.876364 L 376.62725450902 267.93044 L 377.46422256277 251.154164 L 378.30119061653 263.94902 L 379.13815867028 196.38138800000002 L 379.97512672404 223.70879200000002 L 380.81209477779 183.218612 L 381.64906283155 280.57258 L 382.4860308853 280.724712 L 383.32299893905 284.317188 L 384.15996699281 280.676824 L 384.99693504656 278.63078 L 385.83390310032 277.846176 L 386.67087115407 280.973204 L 387.50783920783 279.422684 L 388.34480726158 274.910992 L 389.18177531534 268.113524 L 390.01874336909 243.303452 L 390.85571142285 262.254252 L 391.6926794766 238.213016 L 392.52964753035 284.751976 L 393.36661558411 167.62931600000002 L 394.20358363786 281.707 L 395.04055169162 279.098564 L 395.87751974537 285.139752 L 396.71448779913 272.271604 L 397.55145585288 278.979136 L 398.38842390664 288.158156 L 399.22539196039 284.801032 L 400.06236001415 278.067804 L 400.8993280679 288.677916 L 401.73629612166 189.28870799999999 L 402.57326417541 213.107148 L 403.41023222916 123.43132 L 404.24720028292 281.309296 L 405.08416833667 283.714792 L 405.92113639043 279.51262 L 406.75810444418 285.8096 L 407.59507249794 282.47058 L 408.43204055169 281.040948 L 409.26900860545 240.09846 L 410.1059766592 277.157348 L 410.94294471296 124.55843999999999 L 411.77991276671 280.159692 L 412.61688082046 286.831892 L 413.45384887422 282.826236 L 414.29081692797 276.75322 L 415.12778498173 54.70503199999999 L 415.96475303548 285.611624 L 416.80172108924 226.73654 L 417.63868914299 280.127572 L 418.47565719675 181.27652 L 419.3126252505 244.133024 L 420.14959330426 81.250752 L 420.98656135801 58.79128 L 421.82352941176 240.512516" class="highcharts-graph" data-z-index="1" stroke="#434348" stroke-width="2" stroke-linejoin="round" stroke-linecap="round"></path></g><g class="highcharts-markers highcharts-series-1 highcharts-line-series highcharts-color-1" data-z-index="0.1" opacity="1" transform="translate(64,48) scale(1 1)" clip-path="none"></g></g><text x="250" text-anchor="middle" class="highcharts-title" data-z-index="4" style="color:#333333;font-size:18px;fill:#333333;" y="24"></text><text x="250" text-anchor="middle" class="highcharts-subtitle" data-z-index="4" style="color:#666666;fill:#666666;" y="24"></text><text x="10" text-anchor="start" class="highcharts-caption" data-z-index="4" style="color:#666666;fill:#666666;" y="397"></text><g class="highcharts-legend highcharts-no-tooltip" data-z-index="7" transform="translate(342,10)"><rect fill="none" class="highcharts-legend-box" rx="0" ry="0" x="0" y="0" width="147" height="26" visibility="visible"></rect><g data-z-index="1"><g><g class="highcharts-legend-item highcharts-line-series highcharts-color-0 highcharts-series-0" data-z-index="1" transform="translate(8,3)"><path fill="none" d="M 0 11 L 16 11" class="highcharts-graph" stroke="#7cb5ec" stroke-width="2"></path><path fill="#7cb5ec" d="M 8 15 A 4 4 0 1 1 8.003999999333336 14.999998000000167 Z" class="highcharts-point" opacity="1"></path><text x="21" style="color:#333333;cursor:pointer;font-size:12px;font-weight:bold;font-family:Aa般若楷书;fill:#333333;" text-anchor="start" data-z-index="2" y="15">D Loss</text></g><g class="highcharts-legend-item highcharts-line-series highcharts-color-1 highcharts-series-1" data-z-index="1" transform="translate(85.93995666503906,3)"><path fill="none" d="M 0 11 L 16 11" class="highcharts-graph" stroke="#434348" stroke-width="2"></path><path fill="#434348" d="M 8 7 L 12 11 L 8 15 L 4 11 Z" class="highcharts-point" opacity="1"></path><text x="21" y="15" style="color:#333333;cursor:pointer;font-size:12px;font-weight:bold;font-family:Aa般若楷书;fill:#333333;" text-anchor="start" data-z-index="2">G loss</text></g></g></g></g><g class="highcharts-axis-labels highcharts-xaxis-labels" data-z-index="7"><text x="68.176470588235" style="color:#666666;cursor:default;font-size:11px;fill:#666666;" text-anchor="middle" transform="translate(0,0)" y="359" opacity="1">0</text><text x="151.87327596369" style="color:#666666;cursor:default;font-size:11px;fill:#666666;" text-anchor="middle" transform="translate(0,0)" y="359" opacity="1">100</text><text x="235.57008133915" style="color:#666666;cursor:default;font-size:11px;fill:#666666;" text-anchor="middle" transform="translate(0,0)" y="359" opacity="1">200</text><text x="319.26688671461" style="color:#666666;cursor:default;font-size:11px;fill:#666666;" text-anchor="middle" transform="translate(0,0)" y="359" opacity="1">300</text><text x="402.96369209006" style="color:#666666;cursor:default;font-size:11px;fill:#666666;" text-anchor="middle" transform="translate(0,0)" y="359" opacity="1">400</text><text x="479.54443359375" style="color:#666666;cursor:default;font-size:11px;fill:#666666;" text-anchor="middle" transform="translate(0,0)" y="359" opacity="1">500</text></g><g class="highcharts-axis-labels highcharts-yaxis-labels" data-z-index="7"><text x="49" style="color:#666666;cursor:default;font-size:11px;fill:#666666;" text-anchor="end" transform="translate(0,0)" y="344" opacity="1">0</text><text x="49" style="color:#666666;cursor:default;font-size:11px;fill:#666666;" text-anchor="end" transform="translate(0,0)" y="286" opacity="1">2</text><text x="49" style="color:#666666;cursor:default;font-size:11px;fill:#666666;" text-anchor="end" transform="translate(0,0)" y="227" opacity="1">4</text><text x="49" style="color:#666666;cursor:default;font-size:11px;fill:#666666;" text-anchor="end" transform="translate(0,0)" y="169" opacity="1">6</text><text x="49" style="color:#666666;cursor:default;font-size:11px;fill:#666666;" text-anchor="end" transform="translate(0,0)" y="110" opacity="1">8</text><text x="49" style="color:#666666;cursor:default;font-size:11px;fill:#666666;" text-anchor="end" transform="translate(0,0)" y="52" opacity="1">10</text></g></svg>