<svg xmlns:xlink="http://www.w3.org/1999/xlink" version="1.1" class="highcharts-root" style="font-family:&quot;Lucida Grande&quot;, &quot;Lucida Sans Unicode&quot;, Arial, Helvetica, sans-serif;font-size:12px;" xmlns="http://www.w3.org/2000/svg" width="500" height="400" viewBox="0 0 500 400"><desc>Created with Highcharts 9.3.3</desc><defs><clipPath id="highcharts-s4fkfjj-100-"><rect x="0" y="0" width="423" height="294" fill="none"></rect></clipPath><clipPath id="highcharts-s4fkfjj-147-"><rect x="0" y="0" width="423" height="294" fill="none"></rect></clipPath></defs><rect fill="#ffffff" class="highcharts-background" x="0" y="0" width="500" height="400" rx="0" ry="0"></rect><rect fill="none" class="highcharts-plot-background" x="67" y="50" width="423" height="294"></rect><g class="highcharts-grid highcharts-xaxis-grid" data-z-index="1"><path fill="none" stroke-dasharray="none" data-z-index="1" class="highcharts-grid-line" d="M 70.5 50 L 70.5 344" opacity="1"></path><path fill="none" stroke-dasharray="none" data-z-index="1" class="highcharts-grid-line" d="M 162.5 50 L 162.5 344" opacity="1"></path><path fill="none" stroke-dasharray="none" data-z-index="1" class="highcharts-grid-line" d="M 254.5 50 L 254.5 344" opacity="1"></path><path fill="none" stroke-dasharray="none" data-z-index="1" class="highcharts-grid-line" d="M 347.5 50 L 347.5 344" opacity="1"></path><path fill="none" stroke-dasharray="none" data-z-index="1" class="highcharts-grid-line" d="M 439.5 50 L 439.5 344" opacity="1"></path></g><g class="highcharts-grid highcharts-yaxis-grid" data-z-index="1"><path fill="none" stroke="#e6e6e6" stroke-width="1" stroke-dasharray="none" data-z-index="1" class="highcharts-grid-line" d="M 67 344.5 L 490 344.5" opacity="1"></path><path fill="none" stroke="#e6e6e6" stroke-width="1" stroke-dasharray="none" data-z-index="1" class="highcharts-grid-line" d="M 67 295.5 L 490 295.5" opacity="1"></path><path fill="none" stroke="#e6e6e6" stroke-width="1" stroke-dasharray="none" data-z-index="1" class="highcharts-grid-line" d="M 67 246.5 L 490 246.5" opacity="1"></path><path fill="none" stroke="#e6e6e6" stroke-width="1" stroke-dasharray="none" data-z-index="1" class="highcharts-grid-line" d="M 67 197.5 L 490 197.5" opacity="1"></path><path fill="none" stroke="#e6e6e6" stroke-width="1" stroke-dasharray="none" data-z-index="1" class="highcharts-grid-line" d="M 67 148.5 L 490 148.5" opacity="1"></path><path fill="none" stroke="#e6e6e6" stroke-width="1" stroke-dasharray="none" data-z-index="1" class="highcharts-grid-line" d="M 67 99.5 L 490 99.5" opacity="1"></path><path fill="none" stroke="#e6e6e6" stroke-width="1" stroke-dasharray="none" data-z-index="1" class="highcharts-grid-line" d="M 67 49.5 L 490 49.5" opacity="1"></path></g><rect fill="none" class="highcharts-plot-border" data-z-index="1" x="67" y="50" width="423" height="294"></rect><g class="highcharts-axis highcharts-xaxis" data-z-index="2"><path fill="none" class="highcharts-tick" stroke="#ccd6eb" stroke-width="1" d="M 70.5 344 L 70.5 354" opacity="1"></path><path fill="none" class="highcharts-tick" stroke="#ccd6eb" stroke-width="1" d="M 162.5 344 L 162.5 354" opacity="1"></path><path fill="none" class="highcharts-tick" stroke="#ccd6eb" stroke-width="1" d="M 254.5 344 L 254.5 354" opacity="1"></path><path fill="none" class="highcharts-tick" stroke="#ccd6eb" stroke-width="1" d="M 347.5 344 L 347.5 354" opacity="1"></path><path fill="none" class="highcharts-tick" stroke="#ccd6eb" stroke-width="1" d="M 439.5 344 L 439.5 354" opacity="1"></path><text x="278.5" data-z-index="7" text-anchor="middle" transform="translate(0,0)" class="highcharts-axis-title" style="color:black;font-family:楷体;font-size:14px;fill:black;" y="385">迭代次数</text><path fill="none" class="highcharts-axis-line" stroke="#ccd6eb" stroke-width="1" data-z-index="7" d="M 67 344.5 L 490 344.5"></path></g><g class="highcharts-axis highcharts-yaxis" data-z-index="2"><text x="28.0859375" data-z-index="7" text-anchor="middle" transform="translate(0,0) rotate(270 28.0859375 197)" class="highcharts-axis-title" style="color:black;font-family:Times New Roman;font-size:16px;fill:black;" y="197">PSNR</text><path fill="none" class="highcharts-axis-line" data-z-index="7" d="M 67 50 L 67 344"></path></g><g class="highcharts-series-group" data-z-index="3"><g class="highcharts-series highcharts-series-0 highcharts-line-series highcharts-color-0" data-z-index="0.1" opacity="1" transform="translate(67,50) scale(1 1)" clip-path="url(#highcharts-s4fkfjj-147-)"><path fill="none" d="M 4.1470588235294 233.5342290969029 L 13.362745098039 223.75785840698327 L 22.578431372549 220.74927275347108 L 31.794117647059 212.01650193350108 L 41.009803921569 202.41631102811402 L 50.225490196078 200.19585965062112 L 59.441176470588 193.52006763317047 L 68.656862745098 188.8970415457706 L 77.872549019608 186.01201525763707 L 87.088235294118 183.23362709402141 L 96.303921568627 182.3296524892196 L 105.51960784314 180.43477842883783 L 114.73529411765 178.21317179874495 L 123.95098039216 176.06608734128596 L 133.16666666667 174.28183735422627 L 142.38235294118 168.77311612595494 L 151.59803921569 166.7659464042604 L 160.8137254902 161.96570169150482 L 170.02941176471 159.7195064725124 L 179.24509803922 154.86892625738102 L 188.46078431373 147.74301335632828 L 197.67647058824 145.59661931690388 L 206.89215686275 139.37670824797297 L 216.10784313725 132.72204616518445 L 225.32352941176 128.5130178946769 L 234.53921568627 117.79172780411218 L 243.75490196078 119.85058712174006 L 252.97058823529 120.8563259934343 L 262.1862745098 116.77989070207289 L 271.40196078431 111.99407453182522 L 280.61764705882 109.05087885467597 L 289.83333333333 102.13075786832201 L 299.04901960784 108.50672837841634 L 308.26470588235 102.31928389089546 L 317.48039215686 97.05500835942445 L 326.69607843137 97.11050320443928 L 335.91176470588 97.20458192309295 L 345.12745098039 89.48354203423617 L 354.3431372549 88.24221108192432 L 363.55882352941 91.15155436942041 L 372.77450980392 90.03856710656328 L 381.99019607843 85.43960823397205 L 391.20588235294 71.88284954977792 L 400.42156862745 81.55694784162208 L 409.63725490196 87.66075000501047 L 418.85294117647 58.461844114330404" class="highcharts-graph" data-z-index="1" stroke="#7cb5ec" stroke-width="2" stroke-linejoin="round" stroke-linecap="round"></path></g><g class="highcharts-markers highcharts-series-0 highcharts-line-series highcharts-color-0" data-z-index="0.1" opacity="1" transform="translate(67,50) scale(1 1)" clip-path="none"><path fill="#7cb5ec" d="M 4 238 A 4 4 0 1 1 4.0039999993333355 237.99999800000018 Z" opacity="1" class="highcharts-point highcharts-color-0"></path><path fill="#7cb5ec" d="M 13 228 A 4 4 0 1 1 13.003999999333336 227.99999800000018 Z" opacity="1" class="highcharts-point highcharts-color-0"></path><path fill="#7cb5ec" d="M 22 225 A 4 4 0 1 1 22.003999999333335 224.99999800000018 Z" opacity="1" class="highcharts-point highcharts-color-0"></path><path fill="#7cb5ec" d="M 31 216 A 4 4 0 1 1 31.003999999333335 215.99999800000018 Z" opacity="1" class="highcharts-point highcharts-color-0"></path><path fill="#7cb5ec" d="M 41 206 A 4 4 0 1 1 41.00399999933334 205.99999800000018 Z" opacity="1" class="highcharts-point highcharts-color-0"></path><path fill="#7cb5ec" d="M 50 204 A 4 4 0 1 1 50.00399999933334 203.99999800000018 Z" opacity="1" class="highcharts-point highcharts-color-0"></path><path fill="#7cb5ec" d="M 59 198 A 4 4 0 1 1 59.00399999933334 197.99999800000018 Z" opacity="1" class="highcharts-point highcharts-color-0"></path><path fill="#7cb5ec" d="M 68 193 A 4 4 0 1 1 68.00399999933333 192.99999800000018 Z" opacity="1" class="highcharts-point highcharts-color-0"></path><path fill="#7cb5ec" d="M 77 190 A 4 4 0 1 1 77.00399999933333 189.99999800000018 Z" opacity="1" class="highcharts-point highcharts-color-0"></path><path fill="#7cb5ec" d="M 87 187 A 4 4 0 1 1 87.00399999933333 186.99999800000018 Z" opacity="1" class="highcharts-point highcharts-color-0"></path><path fill="#7cb5ec" d="M 96 186 A 4 4 0 1 1 96.00399999933333 185.99999800000018 Z" opacity="1" class="highcharts-point highcharts-color-0"></path><path fill="#7cb5ec" d="M 105 184 A 4 4 0 1 1 105.00399999933333 183.99999800000018 Z" opacity="1" class="highcharts-point highcharts-color-0"></path><path fill="#7cb5ec" d="M 114 182 A 4 4 0 1 1 114.00399999933333 181.99999800000018 Z" opacity="1" class="highcharts-point highcharts-color-0"></path><path fill="#7cb5ec" d="M 123 180 A 4 4 0 1 1 123.00399999933333 179.99999800000018 Z" opacity="1" class="highcharts-point highcharts-color-0"></path><path fill="#7cb5ec" d="M 133 178 A 4 4 0 1 1 133.00399999933333 177.99999800000018 Z" opacity="1" class="highcharts-point highcharts-color-0"></path><path fill="#7cb5ec" d="M 142 173 A 4 4 0 1 1 142.00399999933333 172.99999800000018 Z" opacity="1" class="highcharts-point highcharts-color-0"></path><path fill="#7cb5ec" d="M 151 171 A 4 4 0 1 1 151.00399999933333 170.99999800000018 Z" opacity="1" class="highcharts-point highcharts-color-0"></path><path fill="#7cb5ec" d="M 160 166 A 4 4 0 1 1 160.00399999933333 165.99999800000018 Z" opacity="1" class="highcharts-point highcharts-color-0"></path><path fill="#7cb5ec" d="M 170 164 A 4 4 0 1 1 170.00399999933333 163.99999800000018 Z" opacity="1" class="highcharts-point highcharts-color-0"></path><path fill="#7cb5ec" d="M 179 159 A 4 4 0 1 1 179.00399999933333 158.99999800000018 Z" opacity="1" class="highcharts-point highcharts-color-0"></path><path fill="#7cb5ec" d="M 188 152 A 4 4 0 1 1 188.00399999933333 151.99999800000018 Z" opacity="1" class="highcharts-point highcharts-color-0"></path><path fill="#7cb5ec" d="M 197 150 A 4 4 0 1 1 197.00399999933333 149.99999800000018 Z" opacity="1" class="highcharts-point highcharts-color-0"></path><path fill="#7cb5ec" d="M 206 143 A 4 4 0 1 1 206.00399999933333 142.99999800000018 Z" opacity="1" class="highcharts-point highcharts-color-0"></path><path fill="#7cb5ec" d="M 216 137 A 4 4 0 1 1 216.00399999933333 136.99999800000018 Z" opacity="1" class="highcharts-point highcharts-color-0"></path><path fill="#7cb5ec" d="M 225 133 A 4 4 0 1 1 225.00399999933333 132.99999800000018 Z" opacity="1" class="highcharts-point highcharts-color-0"></path><path fill="#7cb5ec" d="M 234 122 A 4 4 0 1 1 234.00399999933333 121.99999800000016 Z" opacity="1" class="highcharts-point highcharts-color-0"></path><path fill="#7cb5ec" d="M 243 124 A 4 4 0 1 1 243.00399999933333 123.99999800000016 Z" opacity="1" class="highcharts-point highcharts-color-0"></path><path fill="#7cb5ec" d="M 252 125 A 4 4 0 1 1 252.00399999933333 124.99999800000016 Z" opacity="1" class="highcharts-point highcharts-color-0"></path><path fill="#7cb5ec" d="M 262 121 A 4 4 0 1 1 262.00399999933336 120.99999800000016 Z" opacity="1" class="highcharts-point highcharts-color-0"></path><path fill="#7cb5ec" d="M 271 116 A 4 4 0 1 1 271.00399999933336 115.99999800000016 Z" opacity="1" class="highcharts-point highcharts-color-0"></path><path fill="#7cb5ec" d="M 280 113 A 4 4 0 1 1 280.00399999933336 112.99999800000016 Z" opacity="1" class="highcharts-point highcharts-color-0"></path><path fill="#7cb5ec" d="M 289 106 A 4 4 0 1 1 289.00399999933336 105.99999800000016 Z" opacity="1" class="highcharts-point highcharts-color-0"></path><path fill="#7cb5ec" d="M 299 113 A 4 4 0 1 1 299.00399999933336 112.99999800000016 Z" opacity="1" class="highcharts-point highcharts-color-0"></path><path fill="#7cb5ec" d="M 308 106 A 4 4 0 1 1 308.00399999933336 105.99999800000016 Z" opacity="1" class="highcharts-point highcharts-color-0"></path><path fill="#7cb5ec" d="M 317 101 A 4 4 0 1 1 317.00399999933336 100.99999800000016 Z" opacity="1" class="highcharts-point highcharts-color-0"></path><path fill="#7cb5ec" d="M 326 101 A 4 4 0 1 1 326.00399999933336 100.99999800000016 Z" opacity="1" class="highcharts-point highcharts-color-0"></path><path fill="#7cb5ec" d="M 335 101 A 4 4 0 1 1 335.00399999933336 100.99999800000016 Z" opacity="1" class="highcharts-point highcharts-color-0"></path><path fill="#7cb5ec" d="M 345 93 A 4 4 0 1 1 345.00399999933336 92.99999800000016 Z" opacity="1" class="highcharts-point highcharts-color-0"></path><path fill="#7cb5ec" d="M 354 92 A 4 4 0 1 1 354.00399999933336 91.99999800000016 Z" opacity="1" class="highcharts-point highcharts-color-0"></path><path fill="#7cb5ec" d="M 363 95 A 4 4 0 1 1 363.00399999933336 94.99999800000016 Z" opacity="1" class="highcharts-point highcharts-color-0"></path><path fill="#7cb5ec" d="M 372 94 A 4 4 0 1 1 372.00399999933336 93.99999800000016 Z" opacity="1" class="highcharts-point highcharts-color-0"></path><path fill="#7cb5ec" d="M 381 89 A 4 4 0 1 1 381.00399999933336 88.99999800000016 Z" opacity="1" class="highcharts-point highcharts-color-0"></path><path fill="#7cb5ec" d="M 391 76 A 4 4 0 1 1 391.00399999933336 75.99999800000016 Z" opacity="1" class="highcharts-point highcharts-color-0"></path><path fill="#7cb5ec" d="M 400 86 A 4 4 0 1 1 400.00399999933336 85.99999800000016 Z" opacity="1" class="highcharts-point highcharts-color-0"></path><path fill="#7cb5ec" d="M 409 92 A 4 4 0 1 1 409.00399999933336 91.99999800000016 Z" opacity="1" class="highcharts-point highcharts-color-0"></path><path fill="#7cb5ec" d="M 418 62 A 4 4 0 1 1 418.00399999933336 61.99999800000017 Z" opacity="1" class="highcharts-point highcharts-color-0"></path></g><g class="highcharts-series highcharts-series-1 highcharts-line-series highcharts-color-1" data-z-index="0.1" opacity="1" transform="translate(67,50) scale(1 1)" clip-path="url(#highcharts-s4fkfjj-147-)"><path fill="none" d="M 4.1470588235294 271.83058121843754 L 13.362745098039 267.12687938747945 L 22.578431372549 263.4993295221018 L 31.794117647059 254.02451848373028 L 41.009803921569 243.46105922931864 L 50.225490196078 236.9472589973928 L 59.441176470588 226.3902281863114 L 68.656862745098 219.15615900996022 L 77.872549019608 212.8990396444467 L 87.088235294118 217.78522900583613 L 96.303921568627 222.94794613805436 L 105.51960784314 224.4519330895655 L 114.73529411765 220.20820743488315 L 123.95098039216 213.59057637018947 L 133.16666666667 210.87045640265654 L 142.38235294118 209.71024004078578 L 151.59803921569 211.29904653723088 L 160.8137254902 211.73939317075747 L 170.02941176471 207.2993211926975 L 179.24509803922 205.4471735496581 L 188.46078431373 202.46328521847568 L 197.67647058824 200.23419479393635 L 206.89215686275 198.31005851952312 L 216.10784313725 197.62553144283345 L 225.32352941176 197.12911909666872 L 234.53921568627 194.40492332800386 L 243.75490196078 190.35068917007564 L 252.97058823529 189.37504811118782 L 262.1862745098 188.70540072996448 L 271.40196078431 184.78629125772065 L 280.61764705882 180.1986661960048 L 289.83333333333 178.261754691817 L 299.04901960784 177.90173624863507 L 308.26470588235 174.2700177343169 L 317.48039215686 172.11007784031455 L 326.69607843137 168.25156374434843 L 335.91176470588 165.02078348679436 L 345.12745098039 161.4833830744011 L 354.3431372549 157.7632261647692 L 363.55882352941 154.45877825580254 L 372.77450980392 149.5188432264987 L 381.99019607843 143.1237831618498 L 391.20588235294 139.31490124515412 L 400.42156862745 133.46430477949465 L 409.63725490196 125.77890029857417 L 418.85294117647 117.84435998004128" class="highcharts-graph" data-z-index="1" stroke="#434348" stroke-width="2" stroke-linejoin="round" stroke-linecap="round"></path></g><g class="highcharts-markers highcharts-series-1 highcharts-line-series highcharts-color-1" data-z-index="0.1" opacity="1" transform="translate(67,50) scale(1 1)" clip-path="none"><path fill="#434348" d="M 4 268 L 8 272 L 4 276 L 0 272 Z" opacity="1" class="highcharts-point highcharts-color-1"></path><path fill="#434348" d="M 13 263 L 17 267 L 13 271 L 9 267 Z" opacity="1" class="highcharts-point highcharts-color-1"></path><path fill="#434348" d="M 22 259 L 26 263 L 22 267 L 18 263 Z" opacity="1" class="highcharts-point highcharts-color-1"></path><path fill="#434348" d="M 31 250 L 35 254 L 31 258 L 27 254 Z" opacity="1" class="highcharts-point highcharts-color-1"></path><path fill="#434348" d="M 41 239 L 45 243 L 41 247 L 37 243 Z" opacity="1" class="highcharts-point highcharts-color-1"></path><path fill="#434348" d="M 50 233 L 54 237 L 50 241 L 46 237 Z" opacity="1" class="highcharts-point highcharts-color-1"></path><path fill="#434348" d="M 59 222 L 63 226 L 59 230 L 55 226 Z" opacity="1" class="highcharts-point highcharts-color-1"></path><path fill="#434348" d="M 68 215 L 72 219 L 68 223 L 64 219 Z" opacity="1" class="highcharts-point highcharts-color-1"></path><path fill="#434348" d="M 77 209 L 81 213 L 77 217 L 73 213 Z" opacity="1" class="highcharts-point highcharts-color-1"></path><path fill="#434348" d="M 87 214 L 91 218 L 87 222 L 83 218 Z" opacity="1" class="highcharts-point highcharts-color-1"></path><path fill="#434348" d="M 96 219 L 100 223 L 96 227 L 92 223 Z" opacity="1" class="highcharts-point highcharts-color-1"></path><path fill="#434348" d="M 105 220 L 109 224 L 105 228 L 101 224 Z" opacity="1" class="highcharts-point highcharts-color-1"></path><path fill="#434348" d="M 114 216 L 118 220 L 114 224 L 110 220 Z" opacity="1" class="highcharts-point highcharts-color-1"></path><path fill="#434348" d="M 123 210 L 127 214 L 123 218 L 119 214 Z" opacity="1" class="highcharts-point highcharts-color-1"></path><path fill="#434348" d="M 133 207 L 137 211 L 133 215 L 129 211 Z" opacity="1" class="highcharts-point highcharts-color-1"></path><path fill="#434348" d="M 142 206 L 146 210 L 142 214 L 138 210 Z" opacity="1" class="highcharts-point highcharts-color-1"></path><path fill="#434348" d="M 151 207 L 155 211 L 151 215 L 147 211 Z" opacity="1" class="highcharts-point highcharts-color-1"></path><path fill="#434348" d="M 160 208 L 164 212 L 160 216 L 156 212 Z" opacity="1" class="highcharts-point highcharts-color-1"></path><path fill="#434348" d="M 170 203 L 174 207 L 170 211 L 166 207 Z" opacity="1" class="highcharts-point highcharts-color-1"></path><path fill="#434348" d="M 179 201 L 183 205 L 179 209 L 175 205 Z" opacity="1" class="highcharts-point highcharts-color-1"></path><path fill="#434348" d="M 188 198 L 192 202 L 188 206 L 184 202 Z" opacity="1" class="highcharts-point highcharts-color-1"></path><path fill="#434348" d="M 197 196 L 201 200 L 197 204 L 193 200 Z" opacity="1" class="highcharts-point highcharts-color-1"></path><path fill="#434348" d="M 206 194 L 210 198 L 206 202 L 202 198 Z" opacity="1" class="highcharts-point highcharts-color-1"></path><path fill="#434348" d="M 216 194 L 220 198 L 216 202 L 212 198 Z" opacity="1" class="highcharts-point highcharts-color-1"></path><path fill="#434348" d="M 225 193 L 229 197 L 225 201 L 221 197 Z" opacity="1" class="highcharts-point highcharts-color-1"></path><path fill="#434348" d="M 234 190 L 238 194 L 234 198 L 230 194 Z" opacity="1" class="highcharts-point highcharts-color-1"></path><path fill="#434348" d="M 243 186 L 247 190 L 243 194 L 239 190 Z" opacity="1" class="highcharts-point highcharts-color-1"></path><path fill="#434348" d="M 252 185 L 256 189 L 252 193 L 248 189 Z" opacity="1" class="highcharts-point highcharts-color-1"></path><path fill="#434348" d="M 262 185 L 266 189 L 262 193 L 258 189 Z" opacity="1" class="highcharts-point highcharts-color-1"></path><path fill="#434348" d="M 271 181 L 275 185 L 271 189 L 267 185 Z" opacity="1" class="highcharts-point highcharts-color-1"></path><path fill="#434348" d="M 280 176 L 284 180 L 280 184 L 276 180 Z" opacity="1" class="highcharts-point highcharts-color-1"></path><path fill="#434348" d="M 289 174 L 293 178 L 289 182 L 285 178 Z" opacity="1" class="highcharts-point highcharts-color-1"></path><path fill="#434348" d="M 299 174 L 303 178 L 299 182 L 295 178 Z" opacity="1" class="highcharts-point highcharts-color-1"></path><path fill="#434348" d="M 308 170 L 312 174 L 308 178 L 304 174 Z" opacity="1" class="highcharts-point highcharts-color-1"></path><path fill="#434348" d="M 317 168 L 321 172 L 317 176 L 313 172 Z" opacity="1" class="highcharts-point highcharts-color-1"></path><path fill="#434348" d="M 326 164 L 330 168 L 326 172 L 322 168 Z" opacity="1" class="highcharts-point highcharts-color-1"></path><path fill="#434348" d="M 335 161 L 339 165 L 335 169 L 331 165 Z" opacity="1" class="highcharts-point highcharts-color-1"></path><path fill="#434348" d="M 345 157 L 349 161 L 345 165 L 341 161 Z" opacity="1" class="highcharts-point highcharts-color-1"></path><path fill="#434348" d="M 354 154 L 358 158 L 354 162 L 350 158 Z" opacity="1" class="highcharts-point highcharts-color-1"></path><path fill="#434348" d="M 363 150 L 367 154 L 363 158 L 359 154 Z" opacity="1" class="highcharts-point highcharts-color-1"></path><path fill="#434348" d="M 372 146 L 376 150 L 372 154 L 368 150 Z" opacity="1" class="highcharts-point highcharts-color-1"></path><path fill="#434348" d="M 381 139 L 385 143 L 381 147 L 377 143 Z" opacity="1" class="highcharts-point highcharts-color-1"></path><path fill="#434348" d="M 391 135 L 395 139 L 391 143 L 387 139 Z" opacity="1" class="highcharts-point highcharts-color-1"></path><path fill="#434348" d="M 400 129 L 404 133 L 400 137 L 396 133 Z" opacity="1" class="highcharts-point highcharts-color-1"></path><path fill="#434348" d="M 409 122 L 413 126 L 409 130 L 405 126 Z" opacity="1" class="highcharts-point highcharts-color-1"></path><path fill="#434348" d="M 418 114 L 422 118 L 418 122 L 414 118 Z" opacity="1" class="highcharts-point highcharts-color-1"></path></g></g><text x="250" text-anchor="middle" class="highcharts-title" data-z-index="4" style="color:#333333;font-size:18px;fill:#333333;" y="24"></text><text x="250" text-anchor="middle" class="highcharts-subtitle" data-z-index="4" style="color:#666666;fill:#666666;" y="24"></text><text x="10" text-anchor="start" class="highcharts-caption" data-z-index="4" style="color:#666666;fill:#666666;" y="397"></text><g class="highcharts-legend highcharts-no-tooltip" data-z-index="7" transform="translate(299,10)"><rect fill="none" class="highcharts-legend-box" rx="0" ry="0" x="0" y="0" width="191" height="28" visibility="visible"></rect><g data-z-index="1"><g><g class="highcharts-legend-item highcharts-line-series highcharts-color-0 highcharts-series-0" data-z-index="1" transform="translate(8,3)"><path fill="none" d="M 0 13 L 16 13" class="highcharts-graph" stroke="#7cb5ec" stroke-width="2"></path><path fill="#7cb5ec" d="M 8 17 A 4 4 0 1 1 8.003999999333336 16.99999800000017 Z" class="highcharts-point" opacity="1"></path><text x="21" style="color:#333333;cursor:pointer;font-size:14px;font-weight:bold;font-family:Aa般若楷书;fill:#333333;" text-anchor="start" data-z-index="2" y="17">有残差块</text></g><g class="highcharts-legend-item highcharts-line-series highcharts-color-1 highcharts-series-1" data-z-index="1" transform="translate(105.5,3)"><path fill="none" d="M 0 13 L 16 13" class="highcharts-graph" stroke="#434348" stroke-width="2"></path><path fill="#434348" d="M 8 9 L 12 13 L 8 17 L 4 13 Z" class="highcharts-point" opacity="1"></path><text x="21" y="17" style="color:#333333;cursor:pointer;font-size:14px;font-weight:bold;font-family:Aa般若楷书;fill:#333333;" text-anchor="start" data-z-index="2">无残差块</text></g></g></g></g><g class="highcharts-axis-labels highcharts-xaxis-labels" data-z-index="7"><text x="71.147058823529" style="color:#666666;cursor:default;font-size:11px;fill:#666666;" text-anchor="middle" transform="translate(0,0)" y="363" opacity="1">0</text><text x="163.30392156863" style="color:#666666;cursor:default;font-size:11px;fill:#666666;" text-anchor="middle" transform="translate(0,0)" y="363" opacity="1">10</text><text x="255.46078431373" style="color:#666666;cursor:default;font-size:11px;fill:#666666;" text-anchor="middle" transform="translate(0,0)" y="363" opacity="1">20</text><text x="347.61764705882" style="color:#666666;cursor:default;font-size:11px;fill:#666666;" text-anchor="middle" transform="translate(0,0)" y="363" opacity="1">30</text><text x="439.77450980392" style="color:#666666;cursor:default;font-size:11px;fill:#666666;" text-anchor="middle" transform="translate(0,0)" y="363" opacity="1">40</text></g><g class="highcharts-axis-labels highcharts-yaxis-labels" data-z-index="7"><text x="52" style="color:#666666;cursor:default;font-size:11px;fill:#666666;" text-anchor="end" transform="translate(0,0)" y="348" opacity="1">0</text><text x="52" style="color:#666666;cursor:default;font-size:11px;fill:#666666;" text-anchor="end" transform="translate(0,0)" y="299" opacity="1">5</text><text x="52" style="color:#666666;cursor:default;font-size:11px;fill:#666666;" text-anchor="end" transform="translate(0,0)" y="250" opacity="1">10</text><text x="52" style="color:#666666;cursor:default;font-size:11px;fill:#666666;" text-anchor="end" transform="translate(0,0)" y="201" opacity="1">15</text><text x="52" style="color:#666666;cursor:default;font-size:11px;fill:#666666;" text-anchor="end" transform="translate(0,0)" y="152" opacity="1">20</text><text x="52" style="color:#666666;cursor:default;font-size:11px;fill:#666666;" text-anchor="end" transform="translate(0,0)" y="103" opacity="1">25</text><text x="52" style="color:#666666;cursor:default;font-size:11px;fill:#666666;" text-anchor="end" transform="translate(0,0)" y="54" opacity="1">30</text></g></svg>