<svg xmlns:xlink="http://www.w3.org/1999/xlink" version="1.1" class="highcharts-root" style="font-family:&quot;Lucida Grande&quot;, &quot;Lucida Sans Unicode&quot;, Arial, Helvetica, sans-serif;font-size:12px;" xmlns="http://www.w3.org/2000/svg" width="500" height="400" viewBox="0 0 500 400"><desc>Created with Highcharts 9.3.3</desc><defs><clipPath id="highcharts-5u5vs24-611-"><rect x="0" y="0" width="404" height="292" fill="none"></rect></clipPath><clipPath id="highcharts-5u5vs24-813-"><rect x="0" y="0" width="404" height="292" fill="none"></rect></clipPath></defs><rect fill="#ffffff" class="highcharts-background" x="0" y="0" width="500" height="400" rx="0" ry="0"></rect><rect fill="none" class="highcharts-plot-background" x="86" y="50" width="404" height="292"></rect><g class="highcharts-grid highcharts-xaxis-grid" data-z-index="1"><path fill="none" stroke-dasharray="none" data-z-index="1" class="highcharts-grid-line" d="M 89.5 50 L 89.5 342" opacity="1"></path><path fill="none" stroke-dasharray="none" data-z-index="1" class="highcharts-grid-line" d="M 188.5 50 L 188.5 342" opacity="1"></path><path fill="none" stroke-dasharray="none" data-z-index="1" class="highcharts-grid-line" d="M 287.5 50 L 287.5 342" opacity="1"></path><path fill="none" stroke-dasharray="none" data-z-index="1" class="highcharts-grid-line" d="M 386.5 50 L 386.5 342" opacity="1"></path><path fill="none" stroke-dasharray="none" data-z-index="1" class="highcharts-grid-line" d="M 485.5 50 L 485.5 342" opacity="1"></path></g><g class="highcharts-grid highcharts-yaxis-grid" data-z-index="1"><path fill="none" stroke="#e6e6e6" stroke-width="1" stroke-dasharray="none" data-z-index="1" class="highcharts-grid-line" d="M 86 342.5 L 490 342.5" opacity="1"></path><path fill="none" stroke="#e6e6e6" stroke-width="1" stroke-dasharray="none" data-z-index="1" class="highcharts-grid-line" d="M 86 284.5 L 490 284.5" opacity="1"></path><path fill="none" stroke="#e6e6e6" stroke-width="1" stroke-dasharray="none" data-z-index="1" class="highcharts-grid-line" d="M 86 225.5 L 490 225.5" opacity="1"></path><path fill="none" stroke="#e6e6e6" stroke-width="1" stroke-dasharray="none" data-z-index="1" class="highcharts-grid-line" d="M 86 167.5 L 490 167.5" opacity="1"></path><path fill="none" stroke="#e6e6e6" stroke-width="1" stroke-dasharray="none" data-z-index="1" class="highcharts-grid-line" d="M 86 108.5 L 490 108.5" opacity="1"></path><path fill="none" stroke="#e6e6e6" stroke-width="1" stroke-dasharray="none" data-z-index="1" class="highcharts-grid-line" d="M 86 49.5 L 490 49.5" opacity="1"></path></g><rect fill="none" class="highcharts-plot-border" data-z-index="1" x="86" y="50" width="404" height="292"></rect><g class="highcharts-axis highcharts-xaxis" data-z-index="2"><path fill="none" class="highcharts-tick" stroke="#ccd6eb" stroke-width="1" d="M 89.5 342 L 89.5 352" opacity="1"></path><path fill="none" class="highcharts-tick" stroke="#ccd6eb" stroke-width="1" d="M 188.5 342 L 188.5 352" opacity="1"></path><path fill="none" class="highcharts-tick" stroke="#ccd6eb" stroke-width="1" d="M 287.5 342 L 287.5 352" opacity="1"></path><path fill="none" class="highcharts-tick" stroke="#ccd6eb" stroke-width="1" d="M 386.5 342 L 386.5 352" opacity="1"></path><path fill="none" class="highcharts-tick" stroke="#ccd6eb" stroke-width="1" d="M 485.5 342 L 485.5 352" opacity="1"></path><text x="288" data-z-index="7" text-anchor="middle" transform="translate(0,0)" class="highcharts-axis-title" style="color:black;font-family:Aa般若楷书;font-size:14px;fill:black;" y="383">epoch</text><path fill="none" class="highcharts-axis-line" stroke="#ccd6eb" stroke-width="1" data-z-index="7" d="M 86 342.5 L 490 342.5"></path></g><g class="highcharts-axis highcharts-yaxis" data-z-index="2"><text x="26.8125" data-z-index="7" text-anchor="middle" transform="translate(0,0) rotate(270 26.8125 196)" class="highcharts-axis-title" style="color:black;font-family:Aa般若楷书;font-size:14px;fill:black;" y="196">losses</text><path fill="none" class="highcharts-axis-line" data-z-index="7" d="M 86 50 L 86 342"></path></g><g class="highcharts-series-group" data-z-index="3"><g class="highcharts-series highcharts-series-0 highcharts-line-series highcharts-color-0" data-z-index="0.1" opacity="1" transform="translate(86,50) scale(1 1)" clip-path="url(#highcharts-5u5vs24-813-)"><path fill="none" d="M 3.9607843137255 174.042293584 L 5.9411764705882 174.060139456 L 7.921568627451 174.111311872 L 9.9019607843137 174.243013216 L 11.882352941176 174.505007296 L 13.862745098039 174.829029184 L 15.843137254902 174.202810656 L 17.823529411765 172.592179536 L 19.803921568627 172.712412288 L 21.78431372549 173.725141872 L 23.764705882353 174.992092496 L 25.745098039216 176.04003377599997 L 27.725490196078 175.337043776 L 29.705882352941 174.15620161599998 L 31.686274509804 174.09671187200001 L 33.666666666667 174.066522576 L 35.647058823529 174.03453572799998 L 37.627450980392 174.044307216 L 39.607843137255 174.031120496 L 41.588235294118 174.029332288 L 43.56862745098 174.03595484800002 L 45.549019607843 174.048744448 L 47.529411764706 174.0494324 L 49.509803921569 174.06038356800002 L 51.490196078431 174.070330256 L 53.470588235294 174.084792432 L 55.450980392157 174.09937608 L 57.43137254902 174.11143684799998 L 59.411764705882 174.127973392 L 61.392156862745 174.145981616 L 63.372549019608 174.15694096 L 65.352941176471 174.179113104 L 67.333333333333 174.21223875200002 L 69.313725490196 174.21159985600002 L 71.294117647059 174.27618558400002 L 73.274509803922 174.31748956799998 L 75.254901960784 174.481625104 L 77.235294117647 174.664656544 L 79.21568627451 174.8578928 L 81.196078431373 174.98353689599998 L 83.176470588235 175.02633825599997 L 85.156862745098 175.112819312 L 87.137254901961 175.354705104 L 89.117647058824 178.30462225600002 L 91.098039215686 175.897457184 L 93.078431372549 176.44803486400002 L 95.058823529412 177.03318768 L 97.039215686275 178.020572832 L 99.019607843137 179.27237566399998 L 101 181.32924819200002 L 102.98039215686 183.591372192 L 104.96078431373 185.85408486400001 L 106.94117647059 187.77289512 L 108.92156862745 184.042508688 L 110.90196078431 203.405945568 L 112.88235294118 181.74419888 L 114.86274509804 184.597699968 L 116.8431372549 182.382281952 L 118.82352941176 203.19049511999998 L 120.80392156863 184.27976336 L 122.78431372549 183.214215648 L 124.76470588235 189.60561443199998 L 126.74509803922 192.71059292799998 L 128.72549019608 195.506251152 L 130.70588235294 198.316375056 L 132.6862745098 199.437444816 L 134.66666666667 200.324790768 L 136.64705882353 198.15297886399998 L 138.62745098039 200.592800048 L 140.60784313725 198.447721328 L 142.58823529412 198.528363552 L 144.56862745098 196.34321192 L 146.54901960784 193.75984704 L 148.52941176471 187.706877424 L 150.50980392157 259.57472568000003 L 152.49019607843 196.15095678400002 L 154.47058823529 195.045975056 L 156.45098039216 197.702064288 L 158.43137254902 199.670905824 L 160.41176470588 200.60036752 L 162.39215686275 201.196740144 L 164.37254901961 202.25895088 L 166.35294117647 201.596158768 L 168.33333333333 201.927909312 L 170.3137254902 202.03450216 L 172.29411764706 200.672051184 L 174.27450980392 200.475497808 L 176.25490196078 199.453369328 L 178.23529411765 198.34384408 L 180.21568627451 196.909897488 L 182.19607843137 191.702120704 L 184.17647058824 242.481034 L 186.1568627451 192.173462432 L 188.13725490196 194.671089104 L 190.11764705882 199.84855862400002 L 192.09803921569 201.250240384 L 194.07843137255 202.014683536 L 196.05882352941 201.87740616000002 L 198.03921568627 202.103306704 L 200.01960784314 202.529067232 L 202 202.821396608 L 203.98039215686 201.714748144 L 205.96078431373 202.305214192 L 207.94117647059 201.63189022400002 L 209.92156862745 201.397716736 L 211.90196078431 200.84631094399998 L 213.88235294118 200.976157504 L 215.86274509804 200.55029068800002 L 217.8431372549 200.13461 L 219.82352941176 199.306318128 L 221.80392156863 198.19414502400002 L 223.78431372549 196.509533952 L 225.76470588235 192.68658352 L 227.74509803922 228.968238768 L 229.72549019608 189.273980688 L 231.70588235294 194.49084568 L 233.6862745098 199.11545174399998 L 235.66666666667 203.198493584 L 237.64705882353 203.754027088 L 239.62745098039 203.970533408 L 241.60784313725 202.889844912 L 243.58823529412 203.4709436 L 245.56862745098 201.944194736 L 247.54901960784 201.93754764800002 L 249.52941176471 202.1145452 L 251.50980392157 201.819856464 L 253.49019607843 201.355682752 L 255.47058823529 201.044060352 L 257.45098039216 201.23735384 L 259.43137254902 200.63857163199998 L 261.41176470588 200.909375936 L 263.39215686275 200.38919896 L 265.37254901961 200.58740155200002 L 267.35294117647 200.19878576000002 L 269.33333333333 199.323484224 L 271.3137254902 199.02987472 L 273.29411764706 198.628208864 L 275.27450980392 197.72593704000002 L 277.25490196078 196.170381792 L 279.23529411765 192.625737728 L 281.21568627451 218.700899728 L 283.19607843137 195.742267744 L 285.17647058824 192.101151552 L 287.1568627451 198.23399835200001 L 289.13725490196 202.16661931200002 L 291.11764705882 204.957029712 L 293.09803921569 203.585461328 L 295.07843137255 204.013320752 L 297.05882352941 202.42870799999997 L 299.03921568627 201.600622864 L 301.01960784314 200.334771328 L 303 200.664690448 L 304.98039215686 199.659290064 L 306.96078431373 199.45076702400002 L 308.94117647059 199.423056224 L 310.92156862745 199.262681648 L 312.90196078431 198.755425088 L 314.88235294118 198.55715942400002 L 316.86274509804 198.63920441599998 L 318.8431372549 198.35253049599999 L 320.82352941176 197.80679417599998 L 322.80392156863 198.02203905599998 L 324.78431372549 196.942650544 L 326.76470588235 198.39555728 L 328.74509803922 198.146343456 L 330.72549019608 198.24168496 L 332.70588235294 196.60069518400002 L 334.6862745098 196.611062352 L 336.66666666667 196.411882144 L 338.64705882353 195.639149696 L 340.62745098039 195.15784376 L 342.60784313725 193.892680176 L 344.58823529412 192.95586008 L 346.56862745098 191.16667212800002 L 348.54901960784 193.054050336 L 350.52941176471 192.40372779199998 L 352.50980392157 193.911922976 L 354.49019607843 191.116450464 L 356.47058823529 189.614137328 L 358.45098039216 187.54481742399997 L 360.43137254902 186.54772736 L 362.41176470588 185.72465527999998 L 364.39215686275 185.651741712 L 366.37254901961 185.555917824 L 368.35294117647 183.444674896 L 370.33333333333 183.914901184 L 372.3137254902 184.097094 L 374.29411764706 182.585050256 L 376.27450980392 183.12106648 L 378.25490196078 184.33324607999998 L 380.23529411765 188.76039123200002 L 382.21568627451 183.715770032 L 384.19607843137 185.273453376 L 386.17647058824 185.13263696 L 388.1568627451 184.471246448 L 390.13725490196 182.598905072 L 392.11764705882 182.44717953600002 L 394.09803921569 182.611826656 L 396.07843137255 182.735196656 L 398.05882352941 182.30612017599998 L 400.03921568627 189.94029315199998" class="highcharts-graph" data-z-index="1" stroke="#7cb5ec" stroke-width="2" stroke-linejoin="round" stroke-linecap="round"></path></g><g class="highcharts-markers highcharts-series-0 highcharts-line-series highcharts-color-0" data-z-index="0.1" opacity="1" transform="translate(86,50) scale(1 1)" clip-path="none"></g><g class="highcharts-series highcharts-series-1 highcharts-line-series highcharts-color-1" data-z-index="0.1" opacity="1" transform="translate(86,50) scale(1 1)" clip-path="url(#highcharts-5u5vs24-813-)"><path fill="none" d="M 3.9607843137255 175.22129030399998 L 5.9411764705882 175.268296464 L 7.921568627451 175.397174752 L 9.9019607843137 175.721583248 L 11.882352941176 176.40857047999998 L 13.862745098039 177.46034747200002 L 15.843137254902 177.08801710400002 L 17.823529411765 174.94095745599998 L 19.803921568627 174.756371408 L 21.78431372549 175.411379968 L 23.764705882353 176.965948256 L 25.745098039216 178.06688403200002 L 27.725490196078 176.597869408 L 29.705882352941 175.147105952 L 31.686274509804 175.023481328 L 33.666666666667 174.965455088 L 35.647058823529 174.939164576 L 37.627450980392 174.933704176 L 39.607843137255 174.946928272 L 41.588235294118 174.969967072 L 43.56862745098 174.99794184 L 45.549019607843 175.03065868800002 L 47.529411764706 175.068592992 L 49.509803921569 175.106380128 L 51.490196078431 175.132258336 L 53.470588235294 175.152154048 L 55.450980392157 175.166374448 L 57.43137254902 175.175371552 L 59.411764705882 175.18073384000002 L 61.392156862745 175.18657617600002 L 63.372549019608 175.191868384 L 65.352941176471 175.19788942399998 L 67.333333333333 175.205808464 L 69.313725490196 175.218492944 L 71.294117647059 175.240543616 L 73.274509803922 175.303521008 L 75.254901960784 175.48780688 L 77.235294117647 175.55117438399998 L 79.21568627451 175.578257968 L 81.196078431373 175.59457609600003 L 83.176470588235 175.55079361600002 L 85.156862745098 175.300367408 L 87.137254901961 175.085367808 L 89.117647058824 178.92460366400002 L 91.098039215686 175.04030169599997 L 93.078431372549 175.17345136 L 95.058823529412 175.227431648 L 97.039215686275 175.266180048 L 99.019607843137 175.26992348800002 L 101 175.113598368 L 102.98039215686 174.985863552 L 104.96078431373 175.138990688 L 106.94117647059 173.70640481599997 L 108.92156862745 171.282742912 L 110.90196078431 194.085723712 L 112.88235294118 161.35380968 L 114.86274509804 161.79791598399999 L 116.8431372549 154.737496144 L 118.82352941176 178.814917952 L 120.80392156863 141.667745504 L 122.78431372549 149.178278672 L 124.76470588235 153.404520816 L 126.74509803922 155.53493763199998 L 128.72549019608 156.38543318400002 L 130.70588235294 155.490440336 L 132.6862745098 152.20744112 L 134.66666666667 150.828177952 L 136.64705882353 145.3877928 L 138.62745098039 143.022722448 L 140.60784313725 138.52079726399998 L 142.58823529412 134.338271024 L 144.56862745098 127.84081900800001 L 146.54901960784 119.55726139200002 L 148.52941176471 109.87769616 L 150.50980392157 203.807591568 L 152.49019607843 105.94639036800001 L 154.47058823529 106.97322355200001 L 156.45098039216 116.04591467199998 L 158.43137254902 116.91032694399999 L 160.41176470588 118.785504224 L 162.39215686275 116.44822059200001 L 164.37254901961 115.402634 L 166.35294117647 112.79421785599999 L 168.33333333333 111.495980016 L 170.3137254902 109.401542272 L 172.29411764706 106.24956812799999 L 174.27450980392 104.658232368 L 176.25490196078 100.93148192000001 L 178.23529411765 97.44476248000001 L 180.21568627451 92.63273679999998 L 182.19607843137 83.46948363199999 L 184.17647058824 160.401811424 L 186.1568627451 91.33228910399998 L 188.13725490196 102.56613296 L 190.11764705882 109.45218675199999 L 192.09803921569 111.97381582400001 L 194.07843137255 111.218872016 L 196.05882352941 109.716347472 L 198.03921568627 108.897058544 L 200.01960784314 107.011676448 L 202 105.61731220800002 L 203.98039215686 103.38009814399999 L 205.96078431373 102.471868352 L 207.94117647059 100.15716216000001 L 209.92156862745 98.872561888 L 211.90196078431 97.246293584 L 213.88235294118 95.536790096 L 215.86274509804 93.94454096000001 L 217.8431372549 92.39416812799999 L 219.82352941176 90.21387070400002 L 221.80392156863 87.36098865599999 L 223.78431372549 84.29632251200002 L 225.76470588235 81.17684796799998 L 227.74509803922 143.163590256 L 229.72549019608 92.56813471999999 L 231.70588235294 100.37560619199999 L 233.6862745098 111.782954112 L 235.66666666667 115.410013424 L 237.64705882353 115.22078340800002 L 239.62745098039 114.24703231999999 L 241.60784313725 110.39935416 L 243.58823529412 109.53185953600001 L 245.56862745098 106.36059353600001 L 247.54901960784 104.67060032 L 249.52941176471 103.00520284800001 L 251.50980392157 101.06762283200001 L 253.49019607843 99.777961616 L 255.47058823529 98.62249425600001 L 257.45098039216 97.24784118400001 L 259.43137254902 95.7020948 L 261.41176470588 94.790364512 L 263.39215686275 93.05673598399997 L 265.37254901961 92.80981144 L 267.35294117647 91.11028033599999 L 269.33333333333 89.247176672 L 271.3137254902 87.79223761599997 L 273.29411764706 85.245864464 L 275.27450980392 83.03203959999999 L 277.25490196078 80.73034375999998 L 279.23529411765 78.01373811199997 L 281.21568627451 118.28181123200002 L 283.19607843137 85.13038313599998 L 285.17647058824 91.37385004799998 L 287.1568627451 103.07433910399999 L 289.13725490196 109.21572748799997 L 291.11764705882 112.28042983999998 L 293.09803921569 111.07327147200002 L 295.07843137255 108.72130257600003 L 297.05882352941 104.36395827199999 L 299.03921568627 100.97086921599998 L 301.01960784314 97.99779529599999 L 303 95.97113192 L 304.98039215686 93.988490464 L 306.96078431373 91.91416451199999 L 308.94117647059 90.567271296 L 310.92156862745 88.77790230400001 L 312.90196078431 86.71795443200003 L 314.88235294118 85.297669936 L 316.86274509804 83.221660896 L 318.8431372549 81.611569392 L 320.82352941176 79.65752875199999 L 322.80392156863 77.63537852799999 L 324.78431372549 76.15794846399999 L 326.76470588235 75.11042766399999 L 328.74509803922 74.446148688 L 330.72549019608 75.18001944 L 332.70588235294 78.17406713599999 L 334.6862745098 81.14488915199999 L 336.66666666667 83.94869534399999 L 338.64705882353 83.82370416 L 340.62745098039 83.47630591999999 L 342.60784313725 81.85934073600001 L 344.58823529412 78.700801264 L 346.56862745098 79.27460696 L 348.54901960784 84.47204227200001 L 350.52941176471 86.27564217600002 L 352.50980392157 92.804394256 L 354.49019607843 86.26374375999998 L 356.47058823529 81.78537947200002 L 358.45098039216 80.13862327999999 L 360.43137254902 84.18830470400002 L 362.41176470588 81.73383679999998 L 364.39215686275 84.34697983999999 L 366.37254901961 84.45358553599999 L 368.35294117647 85.133939696 L 370.33333333333 86.00537048000001 L 372.3137254902 87.23583395200001 L 374.29411764706 88.215388832 L 376.27450980392 89.12981369599999 L 378.25490196078 92.47031238400001 L 380.23529411765 99.17761428800003 L 382.21568627451 90.46488675199998 L 384.19607843137 93.96691166400001 L 386.17647058824 94.19842327999999 L 388.1568627451 92.06069244800003 L 390.13725490196 91.91899769599999 L 392.11764705882 92.41247536 L 394.09803921569 92.411912384 L 396.07843137255 92.55515356800001 L 398.05882352941 92.87542617599999 L 400.03921568627 105.90710935999999" class="highcharts-graph" data-z-index="1" stroke="#434348" stroke-width="2" stroke-linejoin="round" stroke-linecap="round"></path></g><g class="highcharts-markers highcharts-series-1 highcharts-line-series highcharts-color-1" data-z-index="0.1" opacity="1" transform="translate(86,50) scale(1 1)" clip-path="none"></g><g class="highcharts-series highcharts-series-2 highcharts-line-series highcharts-color-2" data-z-index="0.1" opacity="1" transform="translate(86,50) scale(1 1)" clip-path="url(#highcharts-5u5vs24-813-)"><path fill="none" d="M 3.9607843137255 175.19471129599998 L 5.9411764705882 175.18077121599998 L 7.921568627451 175.14159416 L 9.9019607843137 175.043590784 L 11.882352941176 174.862519248 L 13.862745098039 174.696938896 L 15.843137254902 175.472603024 L 17.823529411765 176.873228912 L 19.803921568627 176.58453902399998 L 21.78431372549 175.52224419200002 L 23.764705882353 174.265706288 L 25.745098039216 173.25735670400002 L 27.725490196078 174.010174752 L 29.705882352941 175.128977424 L 31.686274509804 175.184254192 L 33.666666666667 175.220011344 L 35.647058823529 175.257327776 L 37.627450980392 175.24843929600002 L 39.607843137255 175.26118567999998 L 41.588235294118 175.262127088 L 43.56862745098 175.252674464 L 45.549019607843 175.23793313599998 L 47.529411764706 175.234301824 L 49.509803921569 175.219208928 L 51.490196078431 175.20543003199998 L 53.470588235294 175.195477504 L 55.450980392157 175.18541168000002 L 57.43137254902 175.174688272 L 59.411764705882 175.16669448 L 61.392156862745 175.15285017600002 L 63.372549019608 175.146618896 L 65.352941176471 175.127224256 L 67.333333333333 175.11511209600002 L 69.313725490196 175.100035552 L 71.294117647059 175.06685033600002 L 73.274509803922 175.01904643199998 L 75.254901960784 174.85637907199998 L 77.235294117647 174.716227248 L 79.21568627451 174.65279550399998 L 81.196078431373 174.57457104 L 83.176470588235 174.575971472 L 85.156862745098 174.5305024 L 87.137254901961 174.417478544 L 89.117647058824 171.36127456 L 91.098039215686 173.605163744 L 93.078431372549 173.013728256 L 95.058823529412 172.459763376 L 97.039215686275 171.367391376 L 99.019607843137 170.08547516800002 L 101 168.11551468800002 L 102.98039215686 165.58411646399998 L 104.96078431373 162.930833936 L 106.94117647059 159.48941304 L 108.92156862745 160.35912335999998 L 110.90196078431 141.695216864 L 112.88235294118 163.91001272 L 114.86274509804 160.33764968 L 116.8431372549 165.038307728 L 118.82352941176 142.12825519999998 L 120.80392156863 163.12257398399998 L 122.78431372549 163.416265248 L 124.76470588235 158.984263552 L 126.74509803922 153.686431632 L 128.72549019608 149.463632752 L 130.70588235294 143.798301312 L 132.6862745098 138.798949456 L 134.66666666667 138.34839112 L 136.64705882353 140.840122896 L 138.62745098039 136.78210312000002 L 140.60784313725 139.925958496 L 142.58823529412 139.789742832 L 144.56862745098 141.62096943999998 L 146.54901960784 145.488465056 L 148.52941176471 157.10118942399998 L 150.50980392157 46.850772784000014 L 152.49019607843 131.910664784 L 154.47058823529 144.84988675199997 L 156.45098039216 142.798159264 L 158.43137254902 138.437010784 L 160.41176470588 134.37918372800002 L 162.39215686275 134.77962552 L 164.37254901961 134.37465072 L 166.35294117647 133.91572016 L 168.33333333333 133.62695668799998 L 170.3137254902 132.81409643199999 L 172.29411764706 134.557920432 L 174.27450980392 134.498415504 L 176.25490196078 136.09846921599998 L 178.23529411765 137.736292544 L 180.21568627451 140.585966096 L 182.19607843137 150.452058592 L 184.17647058824 36.88973707200003 L 186.1568627451 135.36251708799998 L 188.13725490196 143.464989152 L 190.11764705882 138.758649952 L 192.09803921569 134.05825470399998 L 194.07843137255 132.61006084800002 L 196.05882352941 133.132823776 L 198.03921568627 132.538301264 L 200.01960784314 130.66790460800001 L 202 130.84611921599998 L 203.98039215686 132.086570256 L 205.96078431373 131.59354928 L 207.94117647059 132.400157232 L 209.92156862745 132.124845616 L 211.90196078431 133.198366096 L 213.88235294118 133.480093536 L 215.86274509804 132.969065504 L 217.8431372549 133.87541248 L 219.82352941176 135.865360944 L 221.80392156863 137.469771296 L 223.78431372549 138.64687585599998 L 225.76470588235 145.487274864 L 227.74509803922 86.06977984 L 229.72549019608 134.547832416 L 231.70588235294 142.694468896 L 233.6862745098 137.19813888 L 235.66666666667 133.073824592 L 237.64705882353 129.67960608 L 239.62745098039 129.51327120000002 L 241.60784313725 130.91253286399999 L 243.58823529412 129.908390416 L 245.56862745098 132.03415859199998 L 247.54901960784 131.466655424 L 249.52941176471 131.482567088 L 251.50980392157 132.293986032 L 253.49019607843 132.062981328 L 255.47058823529 132.523965232 L 257.45098039216 132.72533544 L 259.43137254902 133.40421324800002 L 261.41176470588 133.221727264 L 263.39215686275 133.864241728 L 265.37254901961 133.84646944 L 267.35294117647 134.406872336 L 269.33333333333 135.000361168 L 271.3137254902 136.00075316800002 L 273.29411764706 136.85411265599998 L 275.27450980392 138.53994896 L 277.25490196078 139.08630782400002 L 279.23529411765 145.73486867199998 L 281.21568627451 106.55416500800001 L 283.19607843137 127.83959611200001 L 285.17647058824 141.219255696 L 287.1568627451 139.276357776 L 289.13725490196 133.92341144 L 291.11764705882 128.835540368 L 293.09803921569 129.63948060799999 L 295.07843137255 128.446757552 L 297.05882352941 131.531728208 L 299.03921568627 132.37771528 L 301.01960784314 134.408619664 L 303 134.1797816 L 304.98039215686 135.089915232 L 306.96078431373 135.45867152 L 308.94117647059 135.558818176 L 310.92156862745 136.44374403199998 L 312.90196078431 136.975240096 L 314.88235294118 137.03348942399998 L 316.86274509804 137.548203664 L 318.8431372549 137.980515504 L 320.82352941176 138.41445904 L 322.80392156863 138.459563696 L 324.78431372549 138.689819712 L 326.76470588235 136.98010832 L 328.74509803922 135.53964896 L 330.72549019608 133.369681328 L 332.70588235294 134.931916368 L 334.6862745098 136.068492496 L 336.66666666667 137.566026176 L 338.64705882353 140.294615504 L 340.62745098039 141.25711758399999 L 342.60784313725 143.725415776 L 344.58823529412 146.323352624 L 346.56862745098 146.58633833599998 L 348.54901960784 143.375806512 L 350.52941176471 142.87156456 L 352.50980392157 142.429422832 L 354.49019607843 148.951809312 L 356.47058823529 152.328180784 L 358.45098039216 153.64081889599998 L 360.43137254902 152.724154976 L 362.41176470588 155.74773088 L 364.39215686275 155.642665776 L 366.37254901961 156.721689872 L 368.35294117647 159.226894528 L 370.33333333333 159.393418624 L 372.3137254902 159.51863756799997 L 374.29411764706 161.51466664 L 376.27450980392 161.118991456 L 378.25490196078 159.88027256 L 380.23529411765 152.670895344 L 382.21568627451 161.010860352 L 384.19607843137 159.57638232 L 386.17647058824 158.40008368 L 388.1568627451 160.344799008 L 390.13725490196 162.70779616 L 392.11764705882 162.811814736 L 394.09803921569 162.693631824 L 396.07843137255 162.461215008 L 398.05882352941 163.412581376 L 400.03921568627 152.79830311999999" class="highcharts-graph" data-z-index="1" stroke="#90ed7d" stroke-width="2" stroke-linejoin="round" stroke-linecap="round"></path></g><g class="highcharts-markers highcharts-series-2 highcharts-line-series highcharts-color-2" data-z-index="0.1" opacity="1" transform="translate(86,50) scale(1 1)" clip-path="none"></g></g><text x="250" text-anchor="middle" class="highcharts-title" data-z-index="4" style="color:#333333;font-size:18px;fill:#333333;" y="24"></text><text x="250" text-anchor="middle" class="highcharts-subtitle" data-z-index="4" style="color:#666666;fill:#666666;" y="24"></text><text x="10" text-anchor="start" class="highcharts-caption" data-z-index="4" style="color:#666666;fill:#666666;" y="397"></text><g class="highcharts-legend highcharts-no-tooltip" data-z-index="7" transform="translate(123,10)"><rect fill="none" class="highcharts-legend-box" rx="0" ry="0" x="0" y="0" width="367" height="28" visibility="visible"></rect><g data-z-index="1"><g><g class="highcharts-legend-item highcharts-line-series highcharts-color-0 highcharts-series-0" data-z-index="1" transform="translate(8,3)"><path fill="none" d="M 0 13 L 16 13" class="highcharts-graph" stroke="#7cb5ec" stroke-width="2"></path><path fill="#7cb5ec" d="M 8 17 A 4 4 0 1 1 8.003999999333336 16.99999800000017 Z" class="highcharts-point" opacity="1"></path><text x="21" style="color:#333333;cursor:pointer;font-size:14px;font-weight:bold;font-family:Aa般若楷书;fill:#333333;" text-anchor="start" data-z-index="2" y="17">判别器损失</text></g><g class="highcharts-legend-item highcharts-line-series highcharts-color-1 highcharts-series-1" data-z-index="1" transform="translate(120,3)"><path fill="none" d="M 0 13 L 16 13" class="highcharts-graph" stroke="#434348" stroke-width="2"></path><path fill="#434348" d="M 8 9 L 12 13 L 8 17 L 4 13 Z" class="highcharts-point" opacity="1"></path><text x="21" y="17" style="color:#333333;cursor:pointer;font-size:14px;font-weight:bold;font-family:Aa般若楷书;fill:#333333;" text-anchor="start" data-z-index="2">生成器损失</text></g><g class="highcharts-legend-item highcharts-line-series highcharts-color-2 highcharts-series-2" data-z-index="1" transform="translate(231.5,3)"><path fill="none" d="M 0 13 L 16 13" class="highcharts-graph" stroke="#90ed7d" stroke-width="2"></path><path fill="#90ed7d" d="M 4 9 L 12 9 L 12 17 L 4 17 Z" class="highcharts-point" opacity="1"></path><text x="21" y="17" style="color:#333333;cursor:pointer;font-size:14px;font-weight:bold;font-family:Aa般若楷书;fill:#333333;" text-anchor="start" data-z-index="2">Wasserstein 距离</text></g></g></g></g><g class="highcharts-axis-labels highcharts-xaxis-labels" data-z-index="7"><text x="89.960784313725" style="color:#666666;cursor:default;font-size:11px;fill:#666666;" text-anchor="middle" transform="translate(0,0)" y="361" opacity="1">0</text><text x="188.98039215686" style="color:#666666;cursor:default;font-size:11px;fill:#666666;" text-anchor="middle" transform="translate(0,0)" y="361" opacity="1">50</text><text x="288" style="color:#666666;cursor:default;font-size:11px;fill:#666666;" text-anchor="middle" transform="translate(0,0)" y="361" opacity="1">100</text><text x="387.01960784314" style="color:#666666;cursor:default;font-size:11px;fill:#666666;" text-anchor="middle" transform="translate(0,0)" y="361" opacity="1">150</text><text x="479.56640625" style="color:#666666;cursor:default;font-size:11px;fill:#666666;" text-anchor="middle" transform="translate(0,0)" y="361" opacity="1">200</text></g><g class="highcharts-axis-labels highcharts-yaxis-labels" data-z-index="7"><text x="71" style="color:#666666;cursor:default;font-size:11px;fill:#666666;" text-anchor="end" transform="translate(0,0)" y="346" opacity="1">-1000</text><text x="71" style="color:#666666;cursor:default;font-size:11px;fill:#666666;" text-anchor="end" transform="translate(0,0)" y="288" opacity="1">-500</text><text x="71" style="color:#666666;cursor:default;font-size:11px;fill:#666666;" text-anchor="end" transform="translate(0,0)" y="229" opacity="1">0</text><text x="71" style="color:#666666;cursor:default;font-size:11px;fill:#666666;" text-anchor="end" transform="translate(0,0)" y="171" opacity="1">500</text><text x="71" style="color:#666666;cursor:default;font-size:11px;fill:#666666;" text-anchor="end" transform="translate(0,0)" y="112" opacity="1">1000</text><text x="71" style="color:#666666;cursor:default;font-size:11px;fill:#666666;" text-anchor="end" transform="translate(0,0)" y="54" opacity="1">1500</text></g></svg>